<?xml version="1.0" encoding="UTF-8" standalone="no"?>
<svg
   xmlns:dc="http://purl.org/dc/elements/1.1/"
   xmlns:cc="http://creativecommons.org/ns#"
   xmlns:rdf="http://www.w3.org/1999/02/22-rdf-syntax-ns#"
   xmlns:svg="http://www.w3.org/2000/svg"
   xmlns="http://www.w3.org/2000/svg"
   xmlns:sodipodi="http://sodipodi.sourceforge.net/DTD/sodipodi-0.dtd"
   xmlns:inkscape="http://www.inkscape.org/namespaces/inkscape"
   width="199.10786mm"
   height="198.55243mm"
   viewBox="0 0 199.10787 198.55243"
   version="1.1"
   id="svg866"
   inkscape:version="1.0.1 (3bc2e813f5, 2020-09-07)"
   sodipodi:docname="devops-stack-d.svg"
   inkscape:export-filename="/home/raphink/dev/k8s/camptocamp-devops-stack/site/static/img/devops-stack-d.png"
   inkscape:export-xdpi="48"
   inkscape:export-ydpi="48">
  <defs
     id="defs860" />
  <sodipodi:namedview
     id="base"
     pagecolor="#ffffff"
     bordercolor="#666666"
     borderopacity="1.0"
     inkscape:pageopacity="0.0"
     inkscape:pageshadow="2"
     inkscape:zoom="0.42648314"
     inkscape:cx="648.67851"
     inkscape:cy="564.05093"
     inkscape:document-units="mm"
     inkscape:current-layer="g2549"
     inkscape:document-rotation="0"
     showgrid="false"
     inkscape:window-width="1920"
     inkscape:window-height="1043"
     inkscape:window-x="3840"
     inkscape:window-y="0"
     inkscape:window-maximized="1"
     fit-margin-top="0"
     fit-margin-left="0"
     fit-margin-right="0"
     fit-margin-bottom="0" />
  <metadata
     id="metadata863">
    <rdf:RDF>
      <cc:Work
         rdf:about="">
        <dc:format>image/svg+xml</dc:format>
        <dc:type
           rdf:resource="http://purl.org/dc/dcmitype/StillImage" />
        <dc:title></dc:title>
      </cc:Work>
    </rdf:RDF>
  </metadata>
  <g
     inkscape:label="Layer 1"
     inkscape:groupmode="layer"
     id="layer1"
     transform="translate(-5.6084576,-41.860467)">
    <path
       d="m 430.34318,198.84601 c -10.91422,1.51396 -22.74061,6.53764 -37.43497,15.90366 -3.5755,2.27324 -6.08043,3.95373 -12.10526,8.1285 -4.29231,2.97808 -4.90175,3.35739 -5.08496,3.25203 -0.11763,-0.0704 -0.87068,-1.12264 -1.68648,-2.34616 -9.40694,-14.18726 -16.88616,-20.04337 -27.67853,-21.64138 -7.03577,-1.04175 -15.22392,0.035 -23.51781,3.08403 -13.90447,5.11743 -26.75147,15.33839 -33.985,27.04456 -1.62428,2.61706 -2.33329,4.01505 -3.61026,7.11586 -2.02662,4.92115 -2.98738,9.00206 -3.12736,13.29096 -0.41581,11.9503 7.06297,19.9114 20.04873,21.36229 8.07724,0.90812 18.20371,-0.9264 28.18037,-5.08378 3.90966,-1.62808 7.34713,-3.33955 11.78085,-5.8518 5.57385,-3.14442 9.84069,-5.89877 19.25063,-12.40236 3.28334,-2.27592 6.06337,-4.13889 6.15797,-4.14203 0.10816,-0.004 0.69943,0.79399 1.32648,1.76376 1.39913,2.16996 4.98151,7.06582 6.56513,8.98201 7.30292,8.80893 14.03407,12.59727 24.07132,13.60126 0.7425,0.0744 2.55982,0.0636 4.66814,-0.006 2.87864,-0.0956 3.79129,-0.17541 5.52483,-0.46825 9.30161,-1.5471 18.24473,-5.29871 26.72241,-11.18938 8.53892,-5.94225 15.43056,-13.45184 19.90638,-21.69847 1.05818,-1.95436 3.12691,-7.07505 3.64128,-9.03613 1.84617,-7.00777 1.79974,-13.27165 -0.14382,-18.03619 -0.62215,-1.56429 -2.25693,-4.03599 -3.49488,-5.27026 -3.4201,-3.47728 -8.79929,-5.72559 -15.67653,-6.53733 -2.19013,-0.24922 -7.852,-0.16026 -10.29864,0.181 z m -91.76091,17.89333 c 4.1739,0.74055 7.9314,2.6217 11.16321,5.58519 1.1533,1.05135 2.80413,2.80433 3.829,4.07043 1.28557,1.60416 7.49859,10.27595 7.44689,10.40149 -0.0826,0.20088 -12.00475,8.4347 -14.81816,10.24925 -8.91371,5.71942 -16.49501,9.40105 -22.92043,11.14982 -3.02983,0.81877 -4.72081,1.07304 -8.01842,1.18255 -2.56782,0.0853 -3.16047,0.0678 -4.39504,-0.13885 -7.35851,-1.22915 -11.20648,-5.86855 -10.7849,-12.97758 0.36573,-6.06707 3.17002,-11.90556 8.37668,-17.42759 5.97001,-6.33984 13.80147,-10.66128 21.84022,-12.05499 0.90313,-0.15381 2.04037,-0.22872 4.01154,-0.25704 2.30903,-0.0395 2.99946,-5.3e-4 4.26941,0.21732 z m 92.85028,-3.31843 c 4.18151,0.43073 7.29239,1.87522 9.41171,4.36797 3.94775,4.6237 3.27547,13.05357 -1.68282,20.82093 -5.04218,7.90634 -14.15878,14.47449 -23.30474,16.80888 -2.20181,0.55602 -4.05497,0.81567 -6.42006,0.89421 -4.18958,0.13912 -7.23423,-0.52748 -10.64632,-2.30869 -3.59214,-1.86192 -6.65506,-4.62047 -10.08054,-9.08816 -2.15225,-2.80122 -6.32431,-8.69285 -6.28731,-8.87981 0.0422,-0.19949 8.85701,-6.42332 12.54861,-8.849 12.47414,-8.21505 21.3251,-12.26077 29.56894,-13.53749 1.84998,-0.2843 5.25571,-0.3974 6.89254,-0.22886 z"
       id="path1533"
       style="fill:#797f82;fill-opacity:1;stroke:none;stroke-width:0.0129361"
       inkscape:export-xdpi="48"
       inkscape:export-ydpi="48" />
    <path
       d="m 430.34318,187.20434 c -10.91422,1.51397 -22.74061,6.53765 -37.43497,15.90367 -3.5755,2.27325 -6.08043,3.95373 -12.10526,8.1285 -4.29231,2.97808 -4.90175,3.35739 -5.08496,3.25203 -0.11763,-0.0704 -0.87068,-1.12264 -1.68648,-2.34616 -9.40694,-14.18726 -16.88616,-20.04337 -27.67853,-21.64139 -7.03577,-1.04175 -15.22392,0.035 -23.51781,3.08403 -13.90447,5.11743 -26.75147,15.3384 -33.985,27.04457 -1.62428,2.61706 -2.33329,4.01505 -3.61026,7.11587 -2.02662,4.92114 -2.98738,9.00205 -3.12736,13.29095 -0.41581,11.9503 7.06297,19.9114 20.04873,21.3623 8.07724,0.90811 18.20371,-0.92641 28.18037,-5.08379 3.90966,-1.62808 7.34713,-3.33955 11.78085,-5.8518 5.57385,-3.14442 9.84069,-5.89876 19.25063,-12.40236 3.28334,-2.27592 6.06337,-4.13889 6.15797,-4.14203 0.10816,-0.004 0.69943,0.79399 1.32648,1.76376 1.39913,2.16996 4.98151,7.06582 6.56513,8.98201 7.30292,8.80893 14.03407,12.59727 24.07132,13.60126 0.7425,0.0744 2.55982,0.0636 4.66814,-0.006 2.87864,-0.0956 3.79129,-0.17541 5.52483,-0.46825 9.30161,-1.5471 18.24473,-5.29871 26.72241,-11.18938 8.53892,-5.94224 15.43056,-13.45184 19.90638,-21.69847 1.05818,-1.95436 3.12691,-7.07505 3.64128,-9.03613 1.84617,-7.00776 1.79974,-13.27165 -0.14382,-18.03619 -0.62215,-1.56429 -2.25693,-4.03599 -3.49488,-5.27026 -3.4201,-3.47729 -8.79929,-5.72559 -15.67653,-6.53734 -2.19013,-0.24921 -7.852,-0.16026 -10.29864,0.18101 z m -91.76091,17.89335 c 4.1739,0.74054 7.9314,2.62169 11.16321,5.58518 1.1533,1.05135 2.80413,2.80433 3.829,4.07044 1.28557,1.60415 7.49859,10.27594 7.44689,10.40148 -0.0826,0.20088 -12.00475,8.43471 -14.81816,10.24926 -8.91371,5.71941 -16.49501,9.40104 -22.92043,11.14981 -3.02983,0.81877 -4.72081,1.07304 -8.01842,1.18255 -2.56782,0.0853 -3.16047,0.0678 -4.39504,-0.13885 -7.35851,-1.22915 -11.20648,-5.86855 -10.7849,-12.97758 0.36573,-6.06707 3.17002,-11.90556 8.37668,-17.42759 5.97001,-6.33984 13.80147,-10.66128 21.84022,-12.05499 0.90313,-0.15381 2.04037,-0.22872 4.01154,-0.25704 2.30903,-0.0395 2.99946,-5.3e-4 4.26941,0.21733 z m 92.85028,-3.31844 c 4.18151,0.43073 7.29239,1.87522 9.41171,4.36797 3.94775,4.6237 3.27547,13.05357 -1.68282,20.82093 -5.04218,7.90635 -14.15878,14.47449 -23.30474,16.80889 -2.20181,0.55601 -4.05497,0.81567 -6.42006,0.8942 -4.18958,0.13912 -7.23423,-0.52748 -10.64632,-2.30869 -3.59214,-1.86192 -6.65506,-4.62047 -10.08054,-9.08816 -2.15225,-2.80122 -6.32431,-8.69285 -6.28731,-8.87981 0.0422,-0.19949 8.85701,-6.42332 12.54861,-8.849 12.47414,-8.21505 21.3251,-12.26077 29.56894,-13.53749 1.84998,-0.2843 5.25571,-0.3974 6.89254,-0.22886 z"
       id="path1531"
       style="fill:#ff6b23;fill-opacity:1;stroke:none;stroke-width:0.0129361"
       inkscape:export-xdpi="48"
       inkscape:export-ydpi="48" />
    <g
       id="g928"
       transform="matrix(3.8734311,0,0,4.0481039,207.09333,-498.27104)">
      <rect
         style="fill:#797f82;fill-opacity:1;stroke:#797f82;stroke-width:0.99809;stroke-miterlimit:4;stroke-dasharray:none;stroke-dashoffset:18.8976;stroke-opacity:1"
         id="rect923"
         width="15.64717"
         height="15.64717"
         x="164.28149"
         y="118.56123"
         rx="2.2426941"
         ry="1.875453"
         transform="matrix(0.88973076,0.45648567,-0.88973076,0.45648567,0,0)" />
      <rect
         style="fill:#ff6b23;fill-opacity:1;stroke:#ff6b23;stroke-width:0.99809;stroke-miterlimit:4;stroke-dasharray:none;stroke-dashoffset:18.8976;stroke-opacity:1"
         id="rect921"
         width="15.64717"
         height="15.64717"
         x="159.065"
         y="113.34474"
         rx="2.2426941"
         ry="1.875453"
         transform="matrix(0.88973076,0.45648567,-0.88973076,0.45648567,0,0)" />
      <rect
         style="fill:#ffffff;fill-opacity:1;stroke:#797f82;stroke-width:0.99809;stroke-miterlimit:4;stroke-dasharray:none;stroke-dashoffset:18.8976;stroke-opacity:1"
         id="rect919"
         width="15.64717"
         height="15.64717"
         x="153.57941"
         y="107.85915"
         rx="2.2426941"
         ry="1.875453"
         transform="matrix(0.88973076,0.45648567,-0.88973076,0.45648567,0,0)" />
    </g>
    <path
       d="m 429.25382,172.62987 c -10.91422,1.51396 -22.74061,6.53764 -37.43497,15.90366 -3.5755,2.27324 -6.08043,3.95373 -12.10526,8.1285 -4.29232,2.97807 -4.90175,3.35739 -5.08497,3.25202 -0.11761,-0.0704 -0.87066,-1.12263 -1.68646,-2.34615 -9.40694,-14.18726 -16.88616,-20.04337 -27.67853,-21.64138 -7.03578,-1.04175 -15.22392,0.035 -23.51781,3.08403 -13.90447,5.11742 -26.75147,15.33839 -33.985,27.04456 -1.62428,2.61706 -2.33329,4.01505 -3.61026,7.11586 -2.02662,4.92115 -2.98738,9.00206 -3.12736,13.29096 -0.41581,11.9503 7.06297,19.9114 20.04873,21.36229 8.07724,0.90812 18.2037,-0.9264 28.18037,-5.08378 3.90966,-1.62808 7.34712,-3.33955 11.78085,-5.8518 5.57385,-3.14442 9.84069,-5.89877 19.25063,-12.40236 3.28334,-2.27592 6.06337,-4.13889 6.15797,-4.14203 0.10816,-0.004 0.69943,0.79399 1.32648,1.76376 1.39913,2.16996 4.98151,7.06582 6.56513,8.98201 7.30291,8.80893 14.03406,12.59727 24.0713,13.60126 0.74251,0.0744 2.55983,0.0636 4.66814,-0.006 2.87865,-0.0956 3.7913,-0.17541 5.52484,-0.46825 9.30161,-1.5471 18.24472,-5.29871 26.72241,-11.18938 8.53892,-5.94225 15.43056,-13.45184 19.90638,-21.69847 1.05818,-1.95436 3.12691,-7.07505 3.64128,-9.03613 1.84617,-7.00777 1.79974,-13.27165 -0.14382,-18.03619 -0.62215,-1.56429 -2.25693,-4.03599 -3.49488,-5.27026 -3.4201,-3.47728 -8.79929,-5.72559 -15.67653,-6.53733 -2.19013,-0.24922 -7.85201,-0.16027 -10.29864,0.181 z m -91.7609,17.89333 c 4.1739,0.74055 7.9314,2.6217 11.16321,5.58519 1.1533,1.05135 2.80413,2.80433 3.829,4.07043 1.28557,1.60416 7.49859,10.27595 7.44689,10.40148 -0.0826,0.20089 -12.00475,8.43471 -14.81816,10.24926 -8.91371,5.71942 -16.49501,9.40105 -22.92043,11.14982 -3.02983,0.81877 -4.72081,1.07304 -8.01842,1.18255 -2.56782,0.0853 -3.16047,0.0678 -4.39504,-0.13885 -7.35851,-1.22915 -11.20648,-5.86855 -10.7849,-12.97758 0.36573,-6.06707 3.17002,-11.90556 8.37668,-17.42759 5.97001,-6.33984 13.80147,-10.66128 21.84022,-12.05499 0.90313,-0.15381 2.04036,-0.22872 4.01154,-0.25704 2.30903,-0.0395 2.99946,-5.4e-4 4.26941,0.21732 z m 92.85027,-3.31844 c 4.18151,0.43074 7.29239,1.87523 9.41171,4.36798 3.94775,4.6237 3.27547,13.05357 -1.68282,20.82093 -5.04218,7.90634 -14.15878,14.47449 -23.30474,16.80888 -2.20181,0.55602 -4.05497,0.81567 -6.42006,0.89421 -4.18959,0.13912 -7.23423,-0.52748 -10.64632,-2.30869 -3.59214,-1.86192 -6.65507,-4.62047 -10.08054,-9.08816 -2.15225,-2.80122 -6.32431,-8.69285 -6.28731,-8.87981 0.0422,-0.19949 8.857,-6.42332 12.5486,-8.849 12.47414,-8.21505 21.32511,-12.26077 29.56895,-13.53749 1.84998,-0.2843 5.2557,-0.3974 6.89254,-0.22886 z"
       id="path1495"
       style="fill:#ffffff;fill-opacity:1;stroke:#797f82;stroke-width:2;stroke-miterlimit:4;stroke-dasharray:none;stroke-opacity:1"
       inkscape:export-xdpi="48"
       inkscape:export-ydpi="48" />
    <g
       aria-label="S"
       id="text1539"
       style="font-style:normal;font-weight:normal;font-size:84.1936px;line-height:1.25;font-family:sans-serif;letter-spacing:0px;word-spacing:0px;fill:#000000;fill-opacity:1;stroke:none;stroke-width:6.31453"
       transform="matrix(0.78766105,0,0,0.78766105,-78.861644,13.749496)">
      <path
         d="m -183.20125,181.10905 q 0.38868,-4.54454 -2.95993,-7.05599 -3.31871,-2.51146 -8.8798,-2.51146 -4.06617,0 -7.35498,1.31552 -3.28881,1.31553 -5.44149,3.6177 -2.15268,2.30217 -2.75064,5.2322 -0.47837,2.45166 0.32888,4.21566 0.83715,1.7341 2.45166,2.90013 1.64441,1.13614 3.528,1.8836 1.88359,0.71756 3.4981,1.16603 l 5.88996,1.6743 q 2.27227,0.62787 4.99302,1.73411 2.72074,1.10623 5.05281,3.01972 2.33207,1.8836 3.4981,4.84353 1.16604,2.95993 0.29899,7.26528 -0.98665,4.96312 -4.39505,8.96949 -3.37851,4.00637 -8.7901,6.36834 -5.4116,2.36197 -12.46759,2.36197 -6.57763,0 -10.97268,-2.12278 -4.36515,-2.12278 -6.33844,-5.91987 -1.97328,-3.79708 -1.31552,-8.81999 h 7.65396 q -0.41857,3.4682 1.16604,5.74047 1.6145,2.24237 4.54454,3.34861 2.95993,1.07634 6.60752,1.07634 4.24556,0 7.89315,-1.37532 3.64759,-1.40522 6.12915,-3.88678 2.48156,-2.51146 3.13932,-5.86007 0.59797,-3.04963 -0.71756,-4.96312 -1.31552,-1.91349 -3.85688,-3.10942 -2.54135,-1.19593 -5.59098,-2.09288 l -7.11579,-2.15268 q -6.75702,-2.06298 -10.19532,-5.88996 -3.40841,-3.82698 -2.15268,-10.01593 1.01654,-5.14251 4.57444,-8.96949 3.5878,-3.85688 8.7303,-5.97966 5.17241,-2.15268 11.03247,-2.15268 5.91987,0 10.10563,2.12278 4.18576,2.09288 6.15905,5.74047 1.97328,3.6476 1.19593,8.28183 z"
         style="font-style:italic;font-variant:normal;font-weight:normal;font-stretch:normal;font-family:Inter;-inkscape-font-specification:'Inter Italic';stroke-width:6.31453"
         id="path1605" />
    </g>
    <path
       d="m -102.96995,177.87691 c -0.25056,3.99525 1.71095,7.84496 6.210119,12.18555 1.090974,1.05698 1.913301,1.78503 3.978849,3.51729 1.474091,1.23359 1.654671,1.4149 1.564151,1.50051 -0.0599,0.0554 -0.840687,0.49492 -1.741661,0.98298 -10.441268,5.63889 -15.162968,9.35362 -17.453598,13.74286 -1.49328,2.86144 -1.72025,5.86715 -0.65755,8.63416 1.78543,4.63799 7.06047,8.14487 13.958592,9.27606 1.541341,0.25564 2.382858,0.33101 4.283266,0.38415 3.016022,0.0843 5.599527,-0.12342 8.414312,-0.6772 7.839955,-1.53311 13.950942,-5.54596 16.395617,-10.7604 1.524331,-3.2442 1.473111,-6.89017 -0.12845,-10.14918 -0.626867,-1.27731 -1.362851,-2.36066 -2.513285,-3.71481 -1.437151,-1.70432 -2.766495,-2.95979 -5.981507,-5.66773 -1.126194,-0.9439 -2.037458,-1.75221 -2.028698,-1.78825 0.01,-0.0412 0.604157,-0.3823 1.316034,-0.76158 1.592461,-0.84718 5.23411,-2.92276 6.680201,-3.80514 6.650444,-4.06517 9.921673,-7.19833 11.733734,-11.21213 0.13413,-0.29694 0.335097,-0.99638 0.530327,-1.79967 0.266547,-1.09679 0.318367,-1.43751 0.323607,-2.06466 0.044,-3.36853 -1.408051,-6.28639 -4.325276,-8.7216 -2.944242,-2.45153 -7.111628,-4.04554 -12.042121,-4.60331 -1.168784,-0.13117 -4.311666,-0.20349 -5.547147,-0.12397 -4.413926,0.28098 -8.553602,1.18654 -11.920914,2.61139 -1.103704,0.46165 -2.922302,1.44248 -3.878716,2.09488 -2.686765,1.81196 -4.786706,4.20541 -6.110026,6.9731 -0.41529,0.88008 -1.00494,3.05136 -1.05986,3.9467 z m 1.30233,32.85798 c 0.96675,-1.71488 2.638654,-3.4308 4.964729,-5.09731 0.825987,-0.59384 2.172058,-1.47901 3.125092,-2.05374 1.206004,-0.72318 7.641108,-4.34853 7.718048,-4.34638 0.1231,0.003 4.192476,3.43514 5.06796,4.26317 2.754255,2.62766 4.316096,5.03017 4.734533,7.26073 0.19346,1.05262 0.16765,1.66884 -0.137697,2.92526 -0.23777,0.97835 -0.31717,1.20943 -0.594937,1.71491 -1.653921,3.01248 -5.156703,5.15415 -9.800606,5.99897 -3.962566,0.71874 -7.495028,0.46442 -10.54351,-0.76134 -3.500842,-1.40431 -5.456332,-3.81264 -5.455682,-6.7158 0.002,-0.32656 0.0827,-0.7546 0.28972,-1.5109 0.23833,-0.88503 0.34313,-1.15686 0.63235,-1.67757 z m 8.442311,-35.34358 c 0.763134,-1.67392 2.072768,-3.07854 3.960756,-4.24924 3.503852,-2.17794 8.990849,-3.11324 13.549755,-2.30146 4.641033,0.82444 7.932245,3.41008 8.425682,6.60701 0.114857,0.77048 0.074,1.44848 -0.14498,2.3496 -0.387937,1.59628 -1.176574,2.86511 -2.742935,4.43363 -1.640251,1.64939 -3.811749,3.22173 -7.152828,5.17611 -2.095348,1.22712 -6.461754,3.67126 -6.580914,3.68348 -0.12687,0.012 -3.225352,-2.50603 -4.403646,-3.5862 -3.993726,-3.64731 -5.650477,-6.48795 -5.549117,-9.4868 0.0242,-0.67328 0.339547,-1.9709 0.638227,-2.62613 z"
       id="path1591"
       style="fill:#ff6b23;fill-opacity:1;stroke:none;stroke-width:0.00631569" />
    <path
       d="m -109.31999,177.87691 c -0.25056,3.99525 1.71095,7.84496 6.21014,12.18555 1.09098,1.05698 1.91331,1.78503 3.978864,3.51729 1.474091,1.23359 1.654671,1.4149 1.564151,1.50051 -0.0599,0.0554 -0.840687,0.49492 -1.741661,0.98298 -10.441304,5.63889 -15.163004,9.35362 -17.453634,13.74286 -1.49328,2.86144 -1.72025,5.86715 -0.65755,8.63416 1.78543,4.63799 7.06047,8.14487 13.95861,9.27606 1.54135,0.25564 2.38287,0.33101 4.283284,0.38415 3.016022,0.0843 5.599527,-0.12342 8.414312,-0.6772 7.839955,-1.53311 13.950942,-5.54596 16.395617,-10.7604 1.524331,-3.2442 1.473111,-6.89017 -0.12845,-10.14918 -0.626867,-1.27731 -1.362851,-2.36066 -2.513285,-3.71481 -1.437151,-1.70432 -2.766495,-2.95979 -5.981507,-5.66773 -1.126194,-0.9439 -2.037458,-1.75221 -2.028698,-1.78825 0.01,-0.0412 0.604157,-0.3823 1.316034,-0.76158 1.592461,-0.84718 5.23411,-2.92276 6.680201,-3.80514 6.650444,-4.06517 9.921673,-7.19833 11.733734,-11.21213 0.13413,-0.29694 0.335097,-0.99638 0.530327,-1.79967 0.266547,-1.09679 0.318367,-1.43751 0.323607,-2.06466 0.044,-3.36853 -1.408051,-6.28639 -4.325276,-8.7216 -2.944242,-2.45153 -7.111628,-4.04554 -12.042121,-4.60331 -1.168784,-0.13117 -4.311666,-0.20349 -5.547147,-0.12397 -4.413926,0.28098 -8.553602,1.18654 -11.920914,2.61139 -1.103704,0.46165 -2.922308,1.44248 -3.878728,2.09488 -2.68678,1.81196 -4.78673,4.20541 -6.11005,6.9731 -0.41529,0.88008 -1.00494,3.05136 -1.05986,3.9467 z m 1.30233,32.85798 c 0.96675,-1.71488 2.63866,-3.4308 4.96475,-5.09731 0.82599,-0.59384 2.17207,-1.47901 3.125107,-2.05374 1.206004,-0.72318 7.641108,-4.34853 7.718048,-4.34638 0.1231,0.003 4.192476,3.43514 5.06796,4.26317 2.754255,2.62766 4.316096,5.03017 4.734533,7.26073 0.19346,1.05262 0.16765,1.66884 -0.137697,2.92526 -0.23777,0.97835 -0.31717,1.20943 -0.594937,1.71491 -1.653921,3.01248 -5.156703,5.15415 -9.800606,5.99897 -3.962566,0.71874 -7.495028,0.46442 -10.543528,-0.76134 -3.50086,-1.40431 -5.45635,-3.81264 -5.4557,-6.7158 0.002,-0.32656 0.0827,-0.7546 0.28972,-1.5109 0.23833,-0.88503 0.34313,-1.15686 0.63235,-1.67757 z m 8.442347,-35.34358 c 0.763134,-1.67392 2.072768,-3.07854 3.960756,-4.24924 3.503852,-2.17794 8.990849,-3.11324 13.549755,-2.30146 4.641033,0.82444 7.932245,3.41008 8.425682,6.60701 0.114857,0.77048 0.074,1.44848 -0.14498,2.3496 -0.387937,1.59628 -1.176574,2.86511 -2.742935,4.43363 -1.640251,1.64939 -3.811749,3.22173 -7.152828,5.17611 -2.095348,1.22712 -6.461754,3.67126 -6.580914,3.68348 -0.12687,0.012 -3.225352,-2.50603 -4.403646,-3.5862 -3.993726,-3.64731 -5.650477,-6.48795 -5.549117,-9.4868 0.0242,-0.67328 0.339547,-1.9709 0.638227,-2.62613 z"
       id="path1608"
       style="fill:#ffffff;fill-opacity:1;stroke:#797f82;stroke-width:1;stroke-miterlimit:4;stroke-dasharray:none;stroke-opacity:1" />
    <path
       d="m -179.68601,245.21559 c -1.88614,3.69825 -1.54299,7.69173 1.08749,12.64087 0.63602,1.20426 1.14361,2.04759 2.4582,4.07541 0.93925,1.44468 1.04192,1.64997 0.91799,1.7126 -0.0815,0.0403 -1.02773,0.30011 -2.11177,0.58203 -12.55578,3.25096 -18.7119,5.8135 -22.76064,9.48313 -2.63944,2.39232 -4.09615,5.16709 -4.18998,7.96968 -0.1532,4.69844 3.58052,9.01706 9.88156,11.42428 1.40675,0.54058 2.20114,0.77551 4.0432,1.19624 2.92341,0.66769 5.54252,0.97708 8.53055,1.00704 8.31867,0.0922 15.95977,-2.47884 20.49842,-6.89237 2.82704,-2.74525 4.27379,-6.17481 4.04113,-9.54402 -0.0904,-1.32033 -0.36738,-2.48005 -0.9397,-3.97464 -0.70974,-1.87896 -1.49805,-3.31592 -3.53939,-6.48316 -0.71699,-1.10508 -1.27885,-2.04104 -1.25546,-2.07314 0.0267,-0.0367 0.74951,-0.24065 1.60343,-0.45744 1.90968,-0.48378 6.3335,-1.71975 8.11408,-2.26511 8.19166,-2.51481 12.68642,-4.81498 16.11165,-8.22588 0.25347,-0.25233 0.73775,-0.86911 1.25905,-1.58442 0.71175,-0.97666 0.90247,-1.28611 1.1651,-1.87329 1.42623,-3.15077 1.20013,-6.17083 -0.66113,-9.02416 -1.88106,-2.87391 -5.31382,-5.18227 -9.92049,-6.66766 -1.09246,-0.35113 -4.14521,-1.03234 -5.38958,-1.19888 -4.44442,-0.59792 -8.8763,-0.55651 -12.76388,0.12268 -1.27203,0.21758 -3.45838,0.78258 -4.66427,1.2078 -3.37909,1.17508 -6.42137,3.01007 -8.85562,5.34763 -0.76866,0.74438 -2.23847,2.66575 -2.65994,3.49478 z m -12.21377,31.07177 c 1.65227,-1.41971 3.99656,-2.70278 6.96217,-3.81183 1.05393,-0.39576 2.73757,-0.96326 3.90825,-1.3163 1.47974,-0.44291 9.27962,-2.58723 9.3542,-2.57019 0.1195,0.0268 2.70143,4.04005 3.22011,4.98753 1.62241,3.00202 2.16777,5.56016 1.66233,7.73387 -0.24246,1.02502 -0.52078,1.59793 -1.33613,2.71674 -0.63489,0.87119 -0.80764,1.07243 -1.28761,1.49231 -2.859,2.50263 -7.17377,3.82769 -12.07524,3.71372 -4.18148,-0.0993 -7.54159,-1.02719 -10.02819,-2.77179 -2.85695,-2.00035 -3.786,-4.64078 -2.59337,-7.36353 0.13605,-0.3059 0.39094,-0.69161 0.90451,-1.36054 0.59712,-0.78356 0.81152,-1.01806 1.30897,-1.44999 z m 22.79161,-31.50121 c 1.43575,-1.42103 3.29692,-2.48284 5.62927,-3.21237 4.33071,-1.35887 10.09622,-1.16522 14.23415,0.48589 4.21329,1.67901 6.37958,4.74642 5.55091,7.84113 -0.2037,0.74506 -0.52215,1.37298 -1.1069,2.17541 -1.03589,1.42144 -2.33033,2.45757 -4.51058,3.62299 -2.28593,1.22685 -5.06125,2.27775 -9.14053,3.45871 -2.55889,0.74198 -7.84487,2.18218 -7.96675,2.17038 -0.12936,-0.0135 -2.13439,-2.97989 -2.84652,-4.22295 -2.41939,-4.20025 -2.87796,-7.18784 -1.54726,-9.98069 0.30018,-0.62675 1.14225,-1.78225 1.70421,-2.3385 z"
       id="path1610"
       style="fill:#ffffff;fill-opacity:1;stroke:#797f82;stroke-width:1;stroke-miterlimit:4;stroke-dasharray:none;stroke-opacity:1"
       inkscape:original-d="m -179.68601,245.21559 c -1.88614,3.69825 -1.54299,7.69173 1.08749,12.64087 0.63602,1.20426 1.14361,2.04759 2.4582,4.07541 0.93925,1.44468 1.04192,1.64997 0.91799,1.7126 -0.0815,0.0403 -1.02773,0.30011 -2.11177,0.58203 -12.55578,3.25096 -18.7119,5.8135 -22.76064,9.48313 -2.63944,2.39232 -4.09615,5.16709 -4.18998,7.96968 -0.1532,4.69844 3.58052,9.01706 9.88156,11.42428 1.40675,0.54058 2.20114,0.77551 4.0432,1.19624 2.92341,0.66769 5.54252,0.97708 8.53055,1.00704 8.31867,0.0922 15.95977,-2.47884 20.49842,-6.89237 2.82704,-2.74525 4.27379,-6.17481 4.04113,-9.54402 -0.0904,-1.32033 -0.36738,-2.48005 -0.9397,-3.97464 -0.70974,-1.87896 -1.49805,-3.31592 -3.53939,-6.48316 -0.71699,-1.10508 -1.27885,-2.04104 -1.25546,-2.07314 0.0267,-0.0367 0.74951,-0.24065 1.60343,-0.45744 1.90968,-0.48378 6.3335,-1.71975 8.11408,-2.26511 8.19166,-2.51481 12.68642,-4.81498 16.11165,-8.22588 0.25347,-0.25233 0.73775,-0.86911 1.25905,-1.58442 0.71175,-0.97666 0.90247,-1.28611 1.1651,-1.87329 1.42623,-3.15077 1.20013,-6.17083 -0.66113,-9.02416 -1.88106,-2.87391 -5.31382,-5.18227 -9.92049,-6.66766 -1.09246,-0.35113 -4.14521,-1.03234 -5.38958,-1.19888 -4.44442,-0.59792 -8.8763,-0.55651 -12.76388,0.12268 -1.27203,0.21758 -3.45838,0.78258 -4.66427,1.2078 -3.37909,1.17508 -6.42137,3.01007 -8.85562,5.34763 -0.76866,0.74438 -2.23847,2.66575 -2.65994,3.49478 z m -12.21377,31.07177 c 1.65227,-1.41971 3.99656,-2.70278 6.96217,-3.81183 1.05393,-0.39576 2.73757,-0.96326 3.90825,-1.3163 1.47974,-0.44291 9.27962,-2.58723 9.3542,-2.57019 0.1195,0.0268 2.70143,4.04005 3.22011,4.98753 1.62241,3.00202 2.16777,5.56016 1.66233,7.73387 -0.24246,1.02502 -0.52078,1.59793 -1.33613,2.71674 -0.63489,0.87119 -0.80764,1.07243 -1.28761,1.49231 -2.859,2.50263 -7.17377,3.82769 -12.07524,3.71372 -4.18148,-0.0993 -7.54159,-1.02719 -10.02819,-2.77179 -2.85695,-2.00035 -3.786,-4.64078 -2.59337,-7.36353 0.13605,-0.3059 0.39094,-0.69161 0.90451,-1.36054 0.59712,-0.78356 0.81152,-1.01806 1.30897,-1.44999 z m 22.79161,-31.50121 c 1.43575,-1.42103 3.29692,-2.48284 5.62927,-3.21237 4.33071,-1.35887 10.09622,-1.16522 14.23415,0.48589 4.21329,1.67901 6.37958,4.74642 5.55091,7.84113 -0.2037,0.74506 -0.52215,1.37298 -1.1069,2.17541 -1.03589,1.42144 -2.33033,2.45757 -4.51058,3.62299 -2.28593,1.22685 -5.06125,2.27775 -9.14053,3.45871 -2.55889,0.74198 -7.84487,2.18218 -7.96675,2.17038 -0.12936,-0.0135 -2.13439,-2.97989 -2.84652,-4.22295 -2.41939,-4.20025 -2.87796,-7.18784 -1.54726,-9.98069 0.30018,-0.62675 1.14225,-1.78225 1.70421,-2.3385 z" />
    <path
       style="fill:#f9f9f9;stroke:none;stroke-width:0.264583px;stroke-linecap:butt;stroke-linejoin:miter;stroke-opacity:1"
       d="m -167.74207,258.62809 18.46838,-10.52703 19.67304,13.13101 -21.54945,9.80008 -9.35671,-1.97096 z"
       id="path1614"
       sodipodi:nodetypes="cccccc" />
    <path
       style="fill:#f9f9f9;stroke:none;stroke-width:0.264583px;stroke-linecap:butt;stroke-linejoin:miter;stroke-opacity:1"
       d="m -167.41302,276.76552 -11.28262,-18.01671 -23.54538,2.25096 14.34063,18.83525 9.17463,2.69422 z"
       id="path1644"
       sodipodi:nodetypes="cccccc" />
    <path
       d="m -97.257858,318.74744 c -0.250557,3.99525 1.710941,7.84496 6.210107,12.18555 1.090974,1.05698 1.913298,1.78503 3.978846,3.51729 1.474091,1.23359 1.654671,1.4149 1.564151,1.50051 -0.0599,0.0554 -0.840684,0.49492 -1.741661,0.98298 -10.44125,5.63889 -15.162935,9.35362 -17.453565,13.74286 -1.49328,2.86144 -1.72025,5.86715 -0.65755,8.63416 1.78543,4.63799 7.060458,8.14487 13.958559,9.27606 1.541341,0.25564 2.382858,0.33101 4.283266,0.38415 3.016022,0.0843 5.59953,-0.12342 8.414312,-0.6772 7.839955,-1.53311 13.950942,-5.54596 16.395617,-10.7604 1.524331,-3.2442 1.473111,-6.89017 -0.128447,-10.14918 -0.626867,-1.27731 -1.362854,-2.36066 -2.513288,-3.71481 -1.437151,-1.70432 -2.766495,-2.95979 -5.981504,-5.66773 -1.126194,-0.9439 -2.037461,-1.75221 -2.028701,-1.78825 0.01,-0.0412 0.604157,-0.3823 1.316034,-0.76158 1.592461,-0.84718 5.23411,-2.92276 6.680201,-3.80514 6.650444,-4.06517 9.921676,-7.19833 11.733734,-11.21213 0.13413,-0.29694 0.335097,-0.99638 0.530327,-1.79967 0.26655,-1.09679 0.31837,-1.43751 0.323607,-2.06466 0.044,-3.36853 -1.408051,-6.28639 -4.325273,-8.7216 -2.944245,-2.45153 -7.111631,-4.04554 -12.042124,-4.60331 -1.168781,-0.13117 -4.311663,-0.20349 -5.547147,-0.12397 -4.413926,0.28098 -8.553602,1.18654 -11.920914,2.61139 -1.103701,0.46165 -2.922302,1.44248 -3.878716,2.09488 -2.686765,1.81196 -4.786703,4.20541 -6.110017,6.9731 -0.415287,0.88008 -1.004934,3.05136 -1.059854,3.9467 z m 1.302324,32.85798 c 0.966744,-1.71488 2.638645,-3.4308 4.96472,-5.09731 0.825987,-0.59384 2.172058,-1.47901 3.125095,-2.05374 1.206001,-0.72318 7.641105,-4.34853 7.718045,-4.34638 0.1231,0.003 4.192476,3.43514 5.06796,4.26317 2.754255,2.62766 4.316096,5.03017 4.734533,7.26073 0.19346,1.05262 0.16765,1.66884 -0.137697,2.92526 -0.23777,0.97835 -0.31717,1.20943 -0.594937,1.71491 -1.653921,3.01248 -5.1567,5.15415 -9.800606,5.99897 -3.962566,0.71874 -7.495025,0.46442 -10.54351,-0.76134 -3.500839,-1.40431 -5.456317,-3.81264 -5.455667,-6.7158 0.002,-0.32656 0.0827,-0.7546 0.289717,-1.5109 0.23833,-0.88503 0.343127,-1.15686 0.632347,-1.67757 z m 8.442302,-35.34358 c 0.763134,-1.67392 2.072768,-3.07854 3.960756,-4.24924 3.503852,-2.17794 8.990849,-3.11324 13.549755,-2.30146 4.641033,0.82444 7.932245,3.41008 8.425682,6.60701 0.11486,0.77048 0.074,1.44848 -0.14498,2.3496 -0.387937,1.59628 -1.176574,2.86511 -2.742935,4.43363 -1.640251,1.64939 -3.811746,3.22173 -7.152828,5.17611 -2.095348,1.22712 -6.461754,3.67126 -6.580914,3.68348 -0.126867,0.012 -3.225352,-2.50603 -4.403643,-3.5862 -3.993729,-3.64731 -5.65048,-6.48795 -5.54912,-9.4868 0.0242,-0.67328 0.339547,-1.9709 0.638227,-2.62613 z"
       id="path1710"
       style="fill:#797f82;fill-opacity:0.375488;stroke:none;stroke-width:0.00631569" />
    <path
       d="m -79.916159,339.92568 c 1.698076,1.41058 4.192476,3.43514 5.06796,4.26317 2.754255,2.62766 4.316096,5.03017 4.734533,7.26073 0.19346,1.05262 0.16765,1.66884 -0.137697,2.92526 -0.23777,0.97835 -0.31717,1.20943 -0.594937,1.71491 -1.653921,3.01248 -5.156703,5.15415 -9.800606,5.99897 -3.962566,0.71874 -7.495028,0.46442 -10.543524,-0.76134 -3.50086,-1.40431 -5.456341,-3.81264 -5.455691,-6.7158 0.002,-0.32656 0.0827,-0.7546 0.28972,-1.5109 0.238327,-0.88503 0.343127,-1.15686 0.632344,-1.67757 0.38681,-0.68615 0.600677,-1.07794 1.209997,-1.76119 l -5.250843,-4.80219 c -1.909497,1.62825 -3.548597,3.46714 -4.703597,5.63459 -1.49328,2.86144 -1.72025,5.86715 -0.65755,8.63416 1.78543,4.63799 7.060458,8.14487 13.95858,9.27606 1.541346,0.25564 2.382866,0.33105 4.28328,0.38415 3.016022,0.0843 5.599527,-0.12342 8.414312,-0.6772 7.839955,-1.53311 13.950942,-5.54596 16.395617,-10.7604 1.524331,-3.2442 1.473111,-6.89017 -0.12845,-10.14918 -0.626867,-1.27731 -1.362851,-2.36066 -2.513285,-3.71481 -1.437151,-1.70432 -2.766495,-2.95979 -5.981507,-5.66773 -1.126194,-0.9439 -1.340435,-1.2061 -2.028698,-1.78825 -1.717685,-1.45286 -3.495261,-2.8334 -5.24098,-4.25246 -1.468955,-1.19408 -3.225352,-2.50603 -4.403646,-3.5862 -3.993726,-3.64731 -5.650477,-6.48795 -5.549117,-9.4868 0.0242,-0.67328 0.339547,-1.9709 0.638227,-2.62613 0.763134,-1.67392 2.072768,-3.07854 3.960756,-4.24924 3.503852,-2.17794 8.990849,-3.11324 13.549755,-2.30146 4.641033,0.82444 7.932245,3.41008 8.425682,6.60701 0.114857,0.77048 0.07401,1.44848 -0.14498,2.3496 -0.194571,0.80062 -0.489941,1.51887 -0.933679,2.23387 l 5.600942,4.67856 v 0 c 2.036643,-1.88585 2.874806,-3.03643 3.827009,-5.1456 0.13413,-0.29694 0.335097,-0.99638 0.530327,-1.79967 0.266547,-1.09679 0.318407,-1.43751 0.323607,-2.06466 0.044,-3.36853 -1.408051,-6.28639 -4.325276,-8.7216 -2.944242,-2.45153 -7.111628,-4.04554 -12.042121,-4.60331 -1.168784,-0.13097 -4.311666,-0.20347 -5.547147,-0.12397 -4.413926,0.28098 -8.553602,1.18654 -11.920914,2.61139 -1.103704,0.46165 -2.922308,1.44248 -3.878728,2.09488 -2.686776,1.81196 -4.786726,4.20541 -6.11004,6.9731 -0.415287,0.88008 -1.004954,3.05136 -1.059854,3.9467 -0.25056,3.99525 1.710941,7.84496 6.210128,12.18555 1.090976,1.05698 2.626944,2.37451 3.97886,3.51729 0.527393,0.44581 1.075869,0.86607 1.611398,1.30207 1.775283,1.44535 3.548901,2.89284 5.309833,4.35564 z"
       id="path1704"
       style="fill:#f1c40f;fill-opacity:1;stroke:none;stroke-width:1;stroke-miterlimit:4;stroke-dasharray:none;stroke-opacity:1"
       sodipodi:nodetypes="accccccccccccscccccsccscccccccccccaacccccccsaaa" />
    <path
       d="m -102.02037,318.74744 c -0.25056,3.99525 1.71095,7.84496 6.210116,12.18555 1.090974,1.05698 1.913298,1.78503 3.978846,3.51729 1.474091,1.23359 1.654671,1.4149 1.564151,1.50051 -0.0599,0.0554 -0.840684,0.49492 -1.741661,0.98298 -10.441262,5.63889 -15.162962,9.35362 -17.453592,13.74286 -1.49328,2.86144 -1.72025,5.86715 -0.65755,8.63416 1.78543,4.63799 7.06047,8.14487 13.958586,9.27606 1.541341,0.25564 2.382858,0.33101 4.283266,0.38415 3.016022,0.0843 5.59953,-0.12342 8.414312,-0.6772 7.839955,-1.53311 13.950942,-5.54596 16.395617,-10.7604 1.524331,-3.2442 1.473111,-6.89017 -0.128447,-10.14918 -0.626867,-1.27731 -1.362854,-2.36066 -2.513288,-3.71481 -1.437151,-1.70432 -2.766495,-2.95979 -5.981504,-5.66773 -1.126194,-0.9439 -2.037461,-1.75221 -2.028701,-1.78825 0.01,-0.0412 0.604157,-0.3823 1.316034,-0.76158 1.592461,-0.84718 5.23411,-2.92276 6.680201,-3.80514 6.650444,-4.06517 9.921676,-7.19833 11.733734,-11.21213 0.13413,-0.29694 0.335097,-0.99638 0.530327,-1.79967 0.26655,-1.09679 0.31837,-1.43751 0.323607,-2.06466 0.044,-3.36853 -1.408051,-6.28639 -4.325273,-8.7216 -2.944245,-2.45153 -7.111631,-4.04554 -12.042124,-4.60331 -1.168781,-0.13117 -4.311663,-0.20349 -5.547147,-0.12397 -4.413926,0.28098 -8.553602,1.18654 -11.920914,2.61139 -1.103701,0.46165 -2.922302,1.44248 -3.878716,2.09488 -2.686765,1.81196 -4.786703,4.20541 -6.11002,6.9731 -0.41529,0.88008 -1.00494,3.05136 -1.05986,3.9467 z m 1.30233,32.85798 c 0.966747,-1.71488 2.638648,-3.4308 4.964723,-5.09731 0.825987,-0.59384 2.172058,-1.47901 3.125095,-2.05374 1.206001,-0.72318 7.641105,-4.34853 7.718045,-4.34638 0.1231,0.003 4.192476,3.43514 5.06796,4.26317 2.754255,2.62766 4.316096,5.03017 4.734533,7.26073 0.19346,1.05262 0.16765,1.66884 -0.137697,2.92526 -0.23777,0.97835 -0.31717,1.20943 -0.594937,1.71491 -1.653921,3.01248 -5.1567,5.15415 -9.800606,5.99897 -3.962566,0.71874 -7.495025,0.46442 -10.54351,-0.76134 -3.500839,-1.40431 -5.456326,-3.81264 -5.455676,-6.7158 0.002,-0.32656 0.0827,-0.7546 0.28972,-1.5109 0.23833,-0.88503 0.34313,-1.15686 0.63235,-1.67757 z m 8.442305,-35.34358 c 0.763134,-1.67392 2.072768,-3.07854 3.960756,-4.24924 3.503852,-2.17794 8.990849,-3.11324 13.549755,-2.30146 4.641033,0.82444 7.932245,3.41008 8.425682,6.60701 0.11486,0.77048 0.074,1.44848 -0.14498,2.3496 -0.387937,1.59628 -1.176574,2.86511 -2.742935,4.43363 -1.640251,1.64939 -3.811746,3.22173 -7.152828,5.17611 -2.095348,1.22712 -6.461754,3.67126 -6.580914,3.68348 -0.126867,0.012 -3.225352,-2.50603 -4.403643,-3.5862 -3.993729,-3.64731 -5.65048,-6.48795 -5.54912,-9.4868 0.0242,-0.67328 0.339547,-1.9709 0.638227,-2.62613 z"
       id="path1708"
       style="fill:#ff6b23;fill-opacity:0.0711346;stroke:none;stroke-width:0.00631569" />
    <path
       d="m -84.678662,339.92568 c 1.698076,1.41058 4.192476,3.43514 5.06796,4.26317 2.754255,2.62766 4.316096,5.03017 4.734533,7.26073 0.19346,1.05262 0.16765,1.66884 -0.137697,2.92526 -0.23777,0.97835 -0.31717,1.20943 -0.594937,1.71491 -1.653921,3.01248 -5.156703,5.15415 -9.800606,5.99897 -3.962566,0.71874 -7.495028,0.46442 -10.543524,-0.76134 -3.50086,-1.40431 -5.456347,-3.81264 -5.455697,-6.7158 0.002,-0.32656 0.0827,-0.7546 0.28972,-1.5109 0.23833,-0.88503 0.34313,-1.15686 0.63235,-1.67757 0.38681,-0.68615 0.600677,-1.07794 1.209997,-1.76119 l -5.250867,-4.80219 c -1.9095,1.62825 -3.5486,3.46714 -4.7036,5.63459 -1.49328,2.86144 -1.72025,5.86715 -0.65755,8.63416 1.78543,4.63799 7.06047,8.14487 13.958607,9.27606 1.541346,0.25564 2.382866,0.33105 4.28328,0.38415 3.016022,0.0843 5.599527,-0.12342 8.414312,-0.6772 7.839955,-1.53311 13.950942,-5.54596 16.395617,-10.7604 1.524331,-3.2442 1.473111,-6.89017 -0.12845,-10.14918 -0.626867,-1.27731 -1.362851,-2.36066 -2.513285,-3.71481 -1.437151,-1.70432 -2.766495,-2.95979 -5.981507,-5.66773 -1.126194,-0.9439 -1.340435,-1.2061 -2.028698,-1.78825 -1.717685,-1.45286 -3.495261,-2.8334 -5.24098,-4.25246 -1.468955,-1.19408 -3.225352,-2.50603 -4.403646,-3.5862 -3.993726,-3.64731 -5.650477,-6.48795 -5.549117,-9.4868 0.0242,-0.67328 0.339547,-1.9709 0.638227,-2.62613 0.763134,-1.67392 2.072768,-3.07854 3.960756,-4.24924 3.503852,-2.17794 8.990849,-3.11324 13.549755,-2.30146 4.641033,0.82444 7.932245,3.41008 8.425682,6.60701 0.114857,0.77048 0.07401,1.44848 -0.14498,2.3496 -0.194571,0.80062 -0.489941,1.51887 -0.933679,2.23387 l 5.600942,4.67856 v 0 c 2.036643,-1.88585 2.874806,-3.03643 3.827009,-5.1456 0.13413,-0.29694 0.335097,-0.99638 0.530327,-1.79967 0.266547,-1.09679 0.318407,-1.43751 0.323607,-2.06466 0.044,-3.36853 -1.408051,-6.28639 -4.325276,-8.7216 -2.944242,-2.45153 -7.111628,-4.04554 -12.042121,-4.60331 -1.168784,-0.13097 -4.311666,-0.20347 -5.547147,-0.12397 -4.413926,0.28098 -8.553602,1.18654 -11.920914,2.61139 -1.103704,0.46165 -2.922308,1.44248 -3.878728,2.09488 -2.686776,1.81196 -4.786726,4.20541 -6.110043,6.9731 -0.41529,0.88008 -1.00496,3.05136 -1.05986,3.9467 -0.25056,3.99525 1.71095,7.84496 6.210137,12.18555 1.090976,1.05698 2.626944,2.37451 3.97886,3.51729 0.527393,0.44581 1.075869,0.86607 1.611398,1.30207 1.775283,1.44535 3.548901,2.89284 5.309833,4.35564 z"
       id="path1702"
       style="fill:#2980b9;fill-opacity:1;stroke:none;stroke-width:1;stroke-miterlimit:4;stroke-dasharray:none;stroke-opacity:1"
       sodipodi:nodetypes="accccccccccccscccccsccscccccccccccaacccccccsaaa" />
    <path
       d="m -107.31207,318.74744 c -0.25056,3.99525 1.71095,7.84496 6.21014,12.18555 1.09098,1.05698 1.913304,1.78503 3.978852,3.51729 1.474091,1.23359 1.654671,1.4149 1.564151,1.50051 -0.0599,0.0554 -0.840684,0.49492 -1.741661,0.98298 -10.441292,5.63889 -15.162992,9.35362 -17.453622,13.74286 -1.49328,2.86144 -1.72025,5.86715 -0.65755,8.63416 1.78543,4.63799 7.06047,8.14487 13.95861,9.27606 1.541347,0.25564 2.382864,0.33101 4.283272,0.38415 3.016022,0.0843 5.59953,-0.12342 8.414312,-0.6772 7.839955,-1.53311 13.950942,-5.54596 16.395617,-10.7604 1.524331,-3.2442 1.473111,-6.89017 -0.128447,-10.14918 -0.626867,-1.27731 -1.362854,-2.36066 -2.513288,-3.71481 -1.437151,-1.70432 -2.766495,-2.95979 -5.981504,-5.66773 -1.126194,-0.9439 -2.037461,-1.75221 -2.028701,-1.78825 0.01,-0.0412 0.604157,-0.3823 1.316034,-0.76158 1.592461,-0.84718 5.23411,-2.92276 6.680201,-3.80514 6.650444,-4.06517 9.921676,-7.19833 11.733734,-11.21213 0.13413,-0.29694 0.335097,-0.99638 0.530327,-1.79967 0.26655,-1.09679 0.31837,-1.43751 0.323607,-2.06466 0.044,-3.36853 -1.408051,-6.28639 -4.325273,-8.7216 -2.944245,-2.45153 -7.111631,-4.04554 -12.042124,-4.60331 -1.168781,-0.13117 -4.311663,-0.20349 -5.547147,-0.12397 -4.413926,0.28098 -8.553602,1.18654 -11.920914,2.61139 -1.103701,0.46165 -2.922302,1.44248 -3.878716,2.09488 -2.68678,1.81196 -4.78673,4.20541 -6.11005,6.9731 -0.41529,0.88008 -1.00494,3.05136 -1.05986,3.9467 z m 1.30233,32.85798 c 0.96675,-1.71488 2.63866,-3.4308 4.96475,-5.09731 0.82599,-0.59384 2.172061,-1.47901 3.125098,-2.05374 1.206001,-0.72318 7.641105,-4.34853 7.718045,-4.34638 0.1231,0.003 4.192476,3.43514 5.06796,4.26317 2.754255,2.62766 4.316096,5.03017 4.734533,7.26073 0.19346,1.05262 0.16765,1.66884 -0.137697,2.92526 -0.23777,0.97835 -0.31717,1.20943 -0.594937,1.71491 -1.653921,3.01248 -5.1567,5.15415 -9.800606,5.99897 -3.962566,0.71874 -7.495025,0.46442 -10.543516,-0.76134 -3.50086,-1.40431 -5.45635,-3.81264 -5.4557,-6.7158 0.002,-0.32656 0.0827,-0.7546 0.28972,-1.5109 0.23833,-0.88503 0.34313,-1.15686 0.63235,-1.67757 z m 8.442335,-35.34358 c 0.763134,-1.67392 2.072768,-3.07854 3.960756,-4.24924 3.503852,-2.17794 8.990849,-3.11324 13.549755,-2.30146 4.641033,0.82444 7.932245,3.41008 8.425682,6.60701 0.11486,0.77048 0.074,1.44848 -0.14498,2.3496 -0.387937,1.59628 -1.176574,2.86511 -2.742935,4.43363 -1.640251,1.64939 -3.811746,3.22173 -7.152828,5.17611 -2.095348,1.22712 -6.461754,3.67126 -6.580914,3.68348 -0.126867,0.012 -3.225352,-2.50603 -4.403643,-3.5862 -3.993729,-3.64731 -5.65048,-6.48795 -5.54912,-9.4868 0.0242,-0.67328 0.339547,-1.9709 0.638227,-2.62613 z"
       id="path1603"
       style="fill:#797f82;fill-opacity:0.0601558;stroke:none;stroke-width:0.00631569" />
    <path
       d="m -89.970329,339.92568 c 1.698076,1.41058 4.192476,3.43514 5.06796,4.26317 2.754255,2.62766 4.316096,5.03017 4.734533,7.26073 0.19346,1.05262 0.16765,1.66884 -0.137697,2.92526 -0.23777,0.97835 -0.31717,1.20943 -0.594937,1.71491 -1.653921,3.01248 -5.156703,5.15415 -9.800606,5.99897 -3.962566,0.71874 -7.495028,0.46442 -10.543524,-0.76134 -3.50086,-1.40431 -5.45635,-3.81264 -5.4557,-6.7158 0.002,-0.32656 0.0827,-0.7546 0.28972,-1.5109 0.23833,-0.88503 0.34313,-1.15686 0.63235,-1.67757 0.38681,-0.68615 0.60068,-1.07794 1.21,-1.76119 l -5.25087,-4.80219 c -1.9095,1.62825 -3.5486,3.46714 -4.7036,5.63459 -1.49328,2.86144 -1.72025,5.86715 -0.65755,8.63416 1.78543,4.63799 7.06047,8.14487 13.95861,9.27606 1.541346,0.25564 2.382866,0.33105 4.28328,0.38415 3.016022,0.0843 5.599527,-0.12342 8.414312,-0.6772 7.839955,-1.53311 13.950942,-5.54596 16.395617,-10.7604 1.524331,-3.2442 1.473111,-6.89017 -0.12845,-10.14918 -0.626867,-1.27731 -1.362851,-2.36066 -2.513285,-3.71481 -1.437151,-1.70432 -2.766495,-2.95979 -5.981507,-5.66773 -1.126194,-0.9439 -1.340435,-1.2061 -2.028698,-1.78825 -1.717685,-1.45286 -3.495261,-2.8334 -5.24098,-4.25246 -1.468955,-1.19408 -3.225352,-2.50603 -4.403646,-3.5862 -3.993726,-3.64731 -5.650477,-6.48795 -5.549117,-9.4868 0.0242,-0.67328 0.339547,-1.9709 0.638227,-2.62613 0.763134,-1.67392 2.072768,-3.07854 3.960756,-4.24924 3.503852,-2.17794 8.990849,-3.11324 13.549755,-2.30146 4.641033,0.82444 7.932245,3.41008 8.425682,6.60701 0.114857,0.77048 0.07401,1.44848 -0.14498,2.3496 -0.194571,0.80062 -0.489941,1.51887 -0.933679,2.23387 l 5.600942,4.67856 v 0 c 2.036643,-1.88585 2.874806,-3.03643 3.827009,-5.1456 0.13413,-0.29694 0.335097,-0.99638 0.530327,-1.79967 0.266547,-1.09679 0.318407,-1.43751 0.323607,-2.06466 0.044,-3.36853 -1.408051,-6.28639 -4.325276,-8.7216 -2.944242,-2.45153 -7.111628,-4.04554 -12.042121,-4.60331 -1.168784,-0.13097 -4.311666,-0.20347 -5.547147,-0.12397 -4.413926,0.28098 -8.553602,1.18654 -11.920914,2.61139 -1.103704,0.46165 -2.922308,1.44248 -3.878728,2.09488 -2.686776,1.81196 -4.786726,4.20541 -6.110046,6.9731 -0.41529,0.88008 -1.00496,3.05136 -1.05986,3.9467 -0.25056,3.99525 1.71095,7.84496 6.21014,12.18555 1.090976,1.05698 2.626944,2.37451 3.97886,3.51729 0.527393,0.44581 1.075869,0.86607 1.611398,1.30207 1.775283,1.44535 3.548901,2.89284 5.309833,4.35564 z"
       id="path1646"
       style="fill:#e67e22;fill-opacity:1;stroke:#797f82;stroke-width:1;stroke-miterlimit:4;stroke-dasharray:none;stroke-opacity:1"
       sodipodi:nodetypes="accccccccccccscccccsccscccccccccccaacccccccsaaa" />
    <path
       d="m -109.31999,177.87691 c -0.25056,3.99525 1.71095,7.84496 6.21014,12.18555 1.09098,1.05698 1.91331,1.78503 3.978864,3.51729 1.474091,1.23359 1.654671,1.4149 1.564151,1.50051 -0.0599,0.0554 -0.840687,0.49492 -1.741661,0.98298 -10.441304,5.63889 -15.163004,9.35362 -17.453634,13.74286 -1.49328,2.86144 -1.72025,5.86715 -0.65755,8.63416 1.78543,4.63799 7.06047,8.14487 13.95861,9.27606 1.54135,0.25564 2.38287,0.33101 4.283284,0.38415 3.016022,0.0843 5.599527,-0.12342 8.414312,-0.6772 7.839955,-1.53311 13.950942,-5.54596 16.395617,-10.7604 1.524331,-3.2442 1.473111,-6.89017 -0.12845,-10.14918 -0.626867,-1.27731 -1.362851,-2.36066 -2.513285,-3.71481 -1.437151,-1.70432 -2.766495,-2.95979 -5.981507,-5.66773 -1.126194,-0.9439 -2.037458,-1.75221 -2.028698,-1.78825 0.01,-0.0412 0.604157,-0.3823 1.316034,-0.76158 1.592461,-0.84718 5.23411,-2.92276 6.680201,-3.80514 6.650444,-4.06517 9.921673,-7.19833 11.733734,-11.21213 0.13413,-0.29694 0.335097,-0.99638 0.530327,-1.79967 0.266547,-1.09679 0.318367,-1.43751 0.323607,-2.06466 0.044,-3.36853 -1.408051,-6.28639 -4.325276,-8.7216 -2.944242,-2.45153 -7.111628,-4.04554 -12.042121,-4.60331 -1.168784,-0.13117 -4.311666,-0.20349 -5.547147,-0.12397 -4.413926,0.28098 -8.553602,1.18654 -11.920914,2.61139 -1.103704,0.46165 -2.922308,1.44248 -3.878728,2.09488 -2.68678,1.81196 -4.78673,4.20541 -6.11005,6.9731 -0.41529,0.88008 -1.00494,3.05136 -1.05986,3.9467 z m 1.30233,32.85798 c 0.96675,-1.71488 2.63866,-3.4308 4.96475,-5.09731 0.82599,-0.59384 2.17207,-1.47901 3.125107,-2.05374 1.206004,-0.72318 7.641108,-4.34853 7.718048,-4.34638 0.1231,0.003 4.192476,3.43514 5.06796,4.26317 2.754255,2.62766 4.316096,5.03017 4.734533,7.26073 0.19346,1.05262 0.16765,1.66884 -0.137697,2.92526 -0.23777,0.97835 -0.31717,1.20943 -0.594937,1.71491 -1.653921,3.01248 -5.156703,5.15415 -9.800606,5.99897 -3.962566,0.71874 -7.495028,0.46442 -10.543528,-0.76134 -3.50086,-1.40431 -5.45635,-3.81264 -5.4557,-6.7158 0.002,-0.32656 0.0827,-0.7546 0.28972,-1.5109 0.23833,-0.88503 0.34313,-1.15686 0.63235,-1.67757 z m 8.442347,-35.34358 c 0.763134,-1.67392 2.072768,-3.07854 3.960756,-4.24924 3.503852,-2.17794 8.990849,-3.11324 13.549755,-2.30146 4.641033,0.82444 7.932245,3.41008 8.425682,6.60701 0.114857,0.77048 0.074,1.44848 -0.14498,2.3496 -0.387937,1.59628 -1.176574,2.86511 -2.742935,4.43363 -1.640251,1.64939 -3.811749,3.22173 -7.152828,5.17611 -2.095348,1.22712 -6.461754,3.67126 -6.580914,3.68348 -0.12687,0.012 -3.225352,-2.50603 -4.403646,-3.5862 -3.993726,-3.64731 -5.650477,-6.48795 -5.549117,-9.4868 0.0242,-0.67328 0.339547,-1.9709 0.638227,-2.62613 z"
       id="path1706"
       style="fill:#ffffff;fill-opacity:1;stroke:#797f82;stroke-width:1;stroke-miterlimit:4;stroke-dasharray:none;stroke-opacity:1" />
    <g
       id="g3052"
       transform="matrix(0.04902731,0,0,0.04902731,-7.8122632,318.61074)">
      <path
         style="fill:#326ce5;fill-opacity:1;stroke:#ffffff;stroke-width:0;stroke-miterlimit:4;stroke-dasharray:none;stroke-opacity:1"
         d="m 365.3125,184.8125 a 46.724621,46.342246 0 0 0 -17.90625,4.53125 l -244.34375,116.75 a 46.724621,46.342246 0 0 0 -25.28125,31.4375 L 17.5,599.78125 A 46.724621,46.342246 0 0 0 23.84375,635.3125 46.724621,46.342246 0 0 0 26.5,639 l 169.125,210.28125 a 46.724621,46.342246 0 0 0 36.53125,17.4375 L 503.375,866.65625 A 46.724621,46.342246 0 0 0 539.90625,849.25 L 708.96875,638.9375 A 46.724621,46.342246 0 0 0 718,599.71875 l -60.375,-262.25 a 46.724621,46.342246 0 0 0 -25.28125,-31.4375 l -244.375,-116.6875 A 46.724621,46.342246 0 0 0 365.3125,184.8125 Z"
         id="path3055"
         inkscape:connector-curvature="0"
         inkscape:export-filename="new.png"
         inkscape:export-xdpi="250.55"
         inkscape:export-ydpi="250.55" />
      <path
         inkscape:connector-curvature="0"
         id="path3059"
         d="m 367.73366,274.05962 c -8.07696,8.2e-4 -14.62596,7.27591 -14.625,16.25 1e-5,0.13773 0.0282,0.26934 0.0312,0.40625 -0.0119,1.21936 -0.0708,2.68836 -0.0312,3.75 0.19262,5.176 1.3209,9.13749 2,13.90625 1.23028,10.20666 2.26117,18.66736 1.625,26.53125 -0.61869,2.9654 -2.80288,5.67741 -4.75,7.5625 l -0.34375,6.1875 c -8.77682,0.72717 -17.61235,2.05874 -26.4375,4.0625 -37.97461,8.62218 -70.67008,28.18307 -95.5625,54.59375 -1.61522,-1.10193 -4.44103,-3.12914 -5.2813,-3.75 -2.61117,0.35262 -5.25021,1.15829 -8.6875,-0.84375 -6.54491,-4.40563 -12.50587,-10.48693 -19.71875,-17.8125 -3.30498,-3.50419 -5.69832,-6.84101 -9.625,-10.21875 -0.89172,-0.76707 -2.25258,-1.80455 -3.25,-2.59375 -3.06988,-2.44757 -6.6907,-3.72402 -10.1875,-3.84375 -4.49589,-0.15394 -8.82394,1.60385 -11.65625,5.15625 -5.03521,6.31538 -3.42312,15.96805 3.59375,21.5625 0.0712,0.0567 0.14702,0.10078 0.21875,0.15625 0.96422,0.78162 2.14496,1.78313 3.03125,2.4375 4.16687,3.07655 7.9732,4.65145 12.125,7.09375 8.747,5.40181 15.99837,9.88086 21.75,15.28125 2.24602,2.39417 2.63858,6.61292 2.9375,8.4375 l 4.6875,4.1875 c -25.09342,37.76368 -36.70686,84.40946 -29.8437,131.9375 l -6.125,1.78125 c -1.6143,2.08461 -3.89541,5.36474 -6.2813,6.34375 -7.52513,2.37021 -15.99424,3.24059 -26.21875,4.3125 -4.80031,0.39915 -8.94218,0.16095 -14.03125,1.125 -1.12008,0.21218 -2.68072,0.61877 -3.90625,0.90625 -0.0426,0.009 -0.0824,0.0216 -0.125,0.0312 -0.0668,0.0155 -0.15456,0.0479 -0.21875,0.0625 -8.62014,2.08279 -14.15774,10.006 -12.375,17.8125 1.78316,7.80833 10.20314,12.55677 18.875,10.6875 0.0626,-0.0143 0.1535,-0.0167 0.21875,-0.0312 0.0979,-0.0224 0.18409,-0.0699 0.28125,-0.0937 1.20885,-0.26536 2.72377,-0.5606 3.78125,-0.84375 5.00334,-1.33963 8.62694,-3.30796 13.125,-5.03125 9.67694,-3.47077 17.69173,-6.37022 25.5,-7.5 3.26118,-0.25542 6.69711,2.01216 8.40625,2.96875 l 6.375,-1.09375 c 14.67018,45.48282 45.41416,82.24502 84.34375,105.3125 l -2.65625,6.375 c 0.95742,2.47542 2.01341,5.8247 1.30022,8.26932 -2.83868,7.3612 -7.70097,15.13097 -13.23772,23.79318 -2.68085,4.00192 -5.42453,7.10761 -7.84375,11.6875 -0.5789,1.09589 -1.31618,2.77932 -1.875,3.9375 -3.75884,8.04236 -1.00164,17.3052 6.21875,20.78125 7.26575,3.49788 16.28447,-0.19134 20.1875,-8.25 0.006,-0.0114 0.0257,-0.0198 0.0312,-0.0312 0.004,-0.009 -0.004,-0.0225 0,-0.0312 0.55593,-1.14255 1.34353,-2.64437 1.8125,-3.71875 2.07213,-4.74702 2.76161,-8.81506 4.21875,-13.40625 3.86962,-9.72014 5.99567,-19.91903 11.32258,-26.27411 1.45868,-1.74023 3.83681,-2.4095 6.30242,-3.06964 l 3.3125,-6 c 33.93824,13.0268 71.92666,16.52246 109.875,7.90625 8.65697,-1.96557 17.01444,-4.50945 25.09375,-7.5625 0.93098,1.65133 2.66113,4.8257 3.125,5.625 2.50559,0.81518 5.24044,1.23614 7.46875,4.53125 3.98539,6.80898 6.7109,14.86416 10.03125,24.59375 1.45738,4.59111 2.17762,8.65933 4.25,13.40625 0.47234,1.08195 1.256,2.60486 1.8125,3.75 3.89482,8.08484 12.94212,11.78667 20.21875,8.28125 7.2195,-3.4779 9.97974,-12.7399 6.21875,-20.78125 -0.55889,-1.15814 -1.3273,-2.84164 -1.90625,-3.9375 -2.41946,-4.57976 -5.1627,-7.65448 -7.84375,-11.65625 -5.53721,-8.66192 -10.12968,-15.8577 -12.96875,-23.21875 -1.18711,-3.79657 0.20028,-6.15774 1.125,-8.625 -0.55378,-0.63477 -1.73881,-4.22009 -2.4375,-5.90625 40.4574,-23.88816 70.29856,-62.02129 84.3125,-106.0625 1.8924,0.29742 5.18154,0.87936 6.25,1.09375 2.19954,-1.4507 4.22194,-3.34352 8.1875,-3.03125 7.80832,1.12937 15.82288,4.02973 25.5,7.5 4.49815,1.72306 8.1216,3.72313 13.125,5.0625 1.05749,0.28309 2.57238,0.5472 3.78125,0.8125 0.0972,0.0238 0.1833,0.0714 0.28125,0.0937 0.0653,0.0146 0.15615,0.0169 0.21875,0.0312 8.67236,1.86695 17.09384,-2.87871 18.875,-10.6875 1.78074,-7.80696 -3.7543,-15.73201 -12.375,-17.8125 -1.25393,-0.28513 -3.03225,-0.76938 -4.25,-1 -5.08912,-0.96378 -9.23092,-0.7261 -14.03125,-1.125 -10.22456,-1.07138 -18.6935,-1.94269 -26.21875,-4.3125 -3.06826,-1.19028 -5.25103,-4.84124 -6.31255,-6.34375 l -5.90625,-1.71875 c 3.06226,-22.15442 2.23655,-45.21134 -3.0625,-68.28125 -5.34839,-23.28471 -14.80037,-44.58084 -27.40625,-63.34375 1.51505,-1.37729 4.37619,-3.91091 5.1875,-4.65625 0.23716,-2.62417 0.0334,-5.37553 2.75,-8.28125 5.75134,-5.40069 13.00329,-9.87898 21.75,-15.28125 4.15167,-2.44252 7.98954,-4.01698 12.15625,-7.09375 0.94225,-0.69576 2.2289,-1.79759 3.21875,-2.59375 7.01538,-5.59633 8.63058,-15.24842 3.59375,-21.5625 -5.03683,-6.31408 -14.79712,-6.90883 -21.8125,-1.3125 -0.99856,0.79085 -2.35353,1.82252 -3.25,2.59375 -3.9265,3.37796 -6.35145,6.71439 -9.65625,10.21875 -7.21249,7.32595 -13.17407,13.43777 -19.71875,17.84375 -2.83601,1.65106 -6.98996,1.07978 -8.87505,0.96875 l -5.5625,3.96875 c -31.7188,-33.26057 -74.90466,-54.52546 -121.40605,-58.6563 -0.13006,-1.94872 -0.30045,-5.47117 -0.34375,-6.53125 -1.90371,-1.82165 -4.20342,-3.37686 -4.78125,-7.3125 -0.63617,-7.86389 0.42597,-16.32459 1.65625,-26.53125 0.6791,-4.76876 1.80738,-8.73025 2,-13.90625 0.0438,-1.17663 -0.0265,-2.88401 -0.0312,-4.15625 -9.6e-4,-8.97409 -6.54804,-16.25082 -14.625,-16.25 z m -18.3125,113.4375 -4.34375,76.71875 -0.3125,0.15625 c -0.29134,6.86335 -5.93996,12.34375 -12.875,12.34375 -2.84081,0 -5.46294,-0.91229 -7.59375,-2.46875 l -0.125,0.0625 -62.90625,-44.59375 c 19.33365,-19.01115 44.06291,-33.06039 72.5625,-39.53125 5.20599,-1.18203 10.40966,-2.0591 15.59375,-2.6875 z m 36.65625,0 c 33.27347,4.09232 64.04501,19.15882 87.625,42.25 l -62.5,44.3125 -0.21875,-0.0937 c -5.54745,4.05169 -13.36343,3.04639 -17.6875,-2.375 -1.77132,-2.22096 -2.70072,-4.83239 -2.8125,-7.46875 l -0.0625,-0.0312 z m -147.625,70.875 57.4375,51.375 -0.0625,0.3125 c 5.18437,4.50697 5.94888,12.32794 1.625,17.75 -1.7712,2.22105 -4.14208,3.71074 -6.6875,4.40625 l -0.0625,0.25 -73.625,21.25 c -3.74728,-34.26517 4.32855,-67.57364 21.375,-95.34375 z m 258.15625,0.0312 c 8.5341,13.83256 14.99655,29.28214 18.84375,46.03125 3.80106,16.54828 4.75499,33.06697 3.1875,49.03125 l -74,-21.3125 -0.0625,-0.3125 c -6.6265,-1.81104 -10.69893,-8.55162 -9.15625,-15.3125 0.63203,-2.76962 2.10222,-5.11264 4.09375,-6.84375 l -0.0312,-0.15625 57.125,-51.125 z m -140.65625,55.3125 h 23.53125 l 14.625,18.28125 -5.25,22.8125 -21.125,10.15625 -21.1875,-10.1875 -5.25,-22.8125 z m 75.4375,62.5625 c 0.99997,-0.0505 1.99558,0.0396 2.96875,0.21875 l 0.125,-0.15625 76.15625,12.875 c -11.1455,31.3131 -32.47281,58.44018 -60.96875,76.59375 l -29.5625,-71.40625 0.0937,-0.125 c -2.71561,-6.30999 0.002,-13.70956 6.25,-16.71875 1.59965,-0.77041 3.27089,-1.19701 4.9375,-1.28125 z m -127.90625,0.3125 c 5.81174,0.0815 11.02462,4.11525 12.375,10.03125 0.63219,2.76958 0.3245,5.51375 -0.71875,7.9375 l 0.21875,0.28125 -29.25,70.6875 c -27.34716,-17.5486 -49.12927,-43.82403 -60.78125,-76.06245 l 75.5,-12.8125 0.125,0.15625 c 0.84451,-0.15541 1.701,-0.2304 2.53125,-0.21875 z m 63.78125,30.9688 c 2.02445,-0.0744 4.07865,0.34098 6.03125,1.28125 2.55951,1.23253 4.53673,3.17319 5.78125,5.5 h 0.28125 l 37.21875,67.25 c -4.83029,1.61923 -9.79609,3.00308 -14.875,4.15625 -28.46453,6.4629 -56.83862,4.50467 -82.53125,-4.25 l 37.125,-67.125 h 0.0625 c 2.22767,-4.16441 6.45247,-6.64887 10.90625,-6.8125 z"
         style="color:#000000;font-style:normal;font-variant:normal;font-weight:normal;font-stretch:normal;font-size:medium;line-height:normal;font-family:Sans;-inkscape-font-specification:Sans;text-indent:0;text-align:start;text-decoration:none;text-decoration-line:none;letter-spacing:normal;word-spacing:normal;text-transform:none;writing-mode:lr-tb;direction:ltr;baseline-shift:baseline;text-anchor:start;display:inline;overflow:visible;visibility:visible;fill:#ffffff;fill-opacity:1;stroke:#ffffff;stroke-width:0.25;stroke-miterlimit:4;stroke-dasharray:none;stroke-opacity:1;marker:none;enable-background:accumulate"
         sodipodi:nodetypes="ccccccccsccccscssccsccccccccscccsccccccccccccccscccscsccsccccscscsccccccccscccscsccccsccccscscscccccccccccccccscccsccccccccccccscccccscccccccccccccccccccccccscccscccccccccscccscccc"
         inkscape:export-filename="./path3059.png"
         inkscape:export-xdpi="250.55"
         inkscape:export-ydpi="250.55" />
    </g>
    <path
       style="fill:none;stroke:#797f82;stroke-width:1;stroke-linecap:butt;stroke-linejoin:miter;stroke-miterlimit:4;stroke-dasharray:none;stroke-opacity:1"
       d="m -94.214348,336.43038 0.29023,-4.50541 5.366678,-0.45132"
       id="path1877"
       sodipodi:nodetypes="ccc" />
    <path
       style="fill:none;stroke:#000000;stroke-width:0.264583px;stroke-linecap:butt;stroke-linejoin:miter;stroke-opacity:1"
       d="M -96.040783,330.33747 Z"
       id="path1879" />
    <path
       style="fill:none;stroke:#797f82;stroke-width:0.841449;stroke-linecap:butt;stroke-linejoin:miter;stroke-miterlimit:4;stroke-dasharray:none;stroke-opacity:1"
       d="m -92.560324,304.0343 2.735954,2.37575 -2.052668,4.44097"
       id="path1881"
       sodipodi:nodetypes="ccc" />
    <path
       style="fill:none;stroke:#797f82;stroke-width:0.82884;stroke-linecap:butt;stroke-linejoin:miter;stroke-miterlimit:4;stroke-dasharray:none;stroke-opacity:1"
       d="m -91.530227,362.23329 2.890646,2.18173 -2.168727,4.07828"
       id="path1883"
       sodipodi:nodetypes="ccc" />
    <text
       xml:space="preserve"
       style="font-style:normal;font-weight:normal;font-size:67.6442px;line-height:1.25;font-family:sans-serif;letter-spacing:0px;word-spacing:0px;fill:#000000;fill-opacity:1;stroke:none;stroke-width:5.07332"
       x="-145.74081"
       y="133.32428"
       id="text1887"><tspan
         sodipodi:role="line"
         id="tspan1885"
         x="-145.74081"
         y="133.32428"
         style="stroke-width:5.07332">D</tspan></text>
    <text
       xml:space="preserve"
       style="font-style:normal;font-weight:normal;font-size:141.064px;line-height:1.25;font-family:sans-serif;letter-spacing:0px;word-spacing:0px;fill:#2980b9;fill-opacity:1;stroke:none;stroke-width:10.5799"
       x="-323.10965"
       y="65.247627"
       id="text1899"
       transform="scale(0.58891064,1.6980505)"><tspan
         sodipodi:role="line"
         id="tspan1897"
         x="-323.10965"
         y="65.247627"
         style="fill:#2980b9;fill-opacity:1;stroke-width:10.5799">&gt;</tspan></text>
    <text
       xml:space="preserve"
       style="font-style:normal;font-weight:normal;font-size:141.064px;line-height:1.25;font-family:sans-serif;letter-spacing:0px;word-spacing:0px;fill:#f39c12;fill-opacity:1;stroke:none;stroke-width:10.5799"
       x="-388.42651"
       y="85.975739"
       id="text1891"
       transform="scale(0.58891064,1.6980505)"><tspan
         sodipodi:role="line"
         id="tspan1889"
         x="-388.42651"
         y="85.975739"
         style="fill:#f39c12;fill-opacity:1;stroke-width:10.5799">&gt;</tspan></text>
    <g
       id="g2549">
      <text
         xml:space="preserve"
         style="font-style:normal;font-weight:normal;font-size:277.104px;line-height:1.25;font-family:sans-serif;letter-spacing:0px;word-spacing:0px;fill:#0652dd;fill-opacity:1;stroke:none;stroke-width:20.783"
         x="112.22216"
         y="358.53589"
         id="text1915"
         transform="scale(0.76917812,1.300089)"><tspan
           sodipodi:role="line"
           id="tspan1913"
           x="112.22216"
           y="358.53589"
           style="font-style:normal;font-variant:normal;font-weight:600;font-stretch:normal;font-family:Inter;-inkscape-font-specification:'Inter Semi-Bold';fill:#0652dd;fill-opacity:1;stroke-width:20.783">&gt;</tspan></text>
      <g
         id="g2648">
        <text
           xml:space="preserve"
           style="font-style:normal;font-weight:normal;font-size:256.202px;line-height:1.25;font-family:sans-serif;letter-spacing:0px;word-spacing:0px;fill:#a3cb38;fill-opacity:1;stroke:none;stroke-width:19.2153"
           x="139.47345"
           y="174.33795"
           id="text2636"
           transform="scale(0.71115845,1.4061564)"><tspan
             sodipodi:role="line"
             id="tspan2634"
             x="139.47345"
             y="174.33795"
             style="font-style:normal;font-variant:normal;font-weight:600;font-stretch:normal;font-family:Inter;-inkscape-font-specification:'Inter Semi-Bold';fill:#a3cb38;fill-opacity:1;stroke-width:19.2153">&gt;</tspan></text>
        <text
           xml:space="preserve"
           style="font-style:normal;font-weight:normal;font-size:256.202px;line-height:1.25;font-family:sans-serif;letter-spacing:0px;word-spacing:0px;fill:#0652dd;fill-opacity:1;stroke:none;stroke-width:19.2153"
           x="61.715919"
           y="174.33795"
           id="text2640"
           transform="scale(0.71115845,1.4061564)"><tspan
             sodipodi:role="line"
             id="tspan2638"
             x="61.715919"
             y="174.33795"
             style="font-style:normal;font-variant:normal;font-weight:600;font-stretch:normal;font-family:Inter;-inkscape-font-specification:'Inter Semi-Bold';fill:#0652dd;fill-opacity:1;stroke-width:19.2153">&gt;</tspan></text>
        <text
           xml:space="preserve"
           style="font-style:normal;font-weight:normal;font-size:256.202px;line-height:1.25;font-family:sans-serif;letter-spacing:0px;word-spacing:0px;fill:#f79f1f;fill-opacity:1;stroke:none;stroke-width:19.2153"
           x="-16.041588"
           y="174.33795"
           id="text1919"
           transform="scale(0.71115846,1.4061564)"><tspan
             sodipodi:role="line"
             id="tspan1917"
             x="-16.041588"
             y="174.33795"
             style="font-style:normal;font-variant:normal;font-weight:600;font-stretch:normal;font-family:Inter;-inkscape-font-specification:'Inter Semi-Bold';fill:#f79f1f;fill-opacity:1;stroke-width:19.2153">&gt;</tspan></text>
      </g>
    </g>
  </g>
</svg>
