<?xml version="1.0" encoding="UTF-8" standalone="no"?>
<svg
   xmlns:dc="http://purl.org/dc/elements/1.1/"
   xmlns:cc="http://creativecommons.org/ns#"
   xmlns:rdf="http://www.w3.org/1999/02/22-rdf-syntax-ns#"
   xmlns:svg="http://www.w3.org/2000/svg"
   xmlns="http://www.w3.org/2000/svg"
   xmlns:sodipodi="http://sodipodi.sourceforge.net/DTD/sodipodi-0.dtd"
   xmlns:inkscape="http://www.inkscape.org/namespaces/inkscape"
   width="143.80063mm"
   height="28.90065mm"
   viewBox="0 0 143.80063 28.900649"
   version="1.1"
   id="svg8"
   inkscape:version="1.0.1 (3bc2e813f5, 2020-09-07)"
   sodipodi:docname="devops-stack-d_by_c2c.svg"
   inkscape:export-filename="/home/raphink/src/github.com/camptocamp/camptocamp-devops-stack/site/static/img/devops-stack-d_by_c2c.png"
   inkscape:export-xdpi="48"
   inkscape:export-ydpi="48">
  <defs
     id="defs2" />
  <sodipodi:namedview
     id="base"
     pagecolor="#ffffff"
     bordercolor="#666666"
     borderopacity="1.0"
     inkscape:pageopacity="0.0"
     inkscape:pageshadow="2"
     inkscape:zoom="0.98994949"
     inkscape:cx="266.63952"
     inkscape:cy="148.42641"
     inkscape:document-units="mm"
     inkscape:current-layer="layer1"
     inkscape:document-rotation="0"
     showgrid="false"
     fit-margin-top="0"
     fit-margin-left="0"
     fit-margin-right="0"
     fit-margin-bottom="0"
     inkscape:window-width="1514"
     inkscape:window-height="773"
     inkscape:window-x="2326"
     inkscape:window-y="235"
     inkscape:window-maximized="0" />
  <metadata
     id="metadata5">
    <rdf:RDF>
      <cc:Work
         rdf:about="">
        <dc:format>image/svg+xml</dc:format>
        <dc:type
           rdf:resource="http://purl.org/dc/dcmitype/StillImage" />
        <dc:title></dc:title>
      </cc:Work>
    </rdf:RDF>
  </metadata>
  <g
     inkscape:label="Layer 1"
     inkscape:groupmode="layer"
     id="layer1"
     transform="translate(-27.484106,-48.141344)">
    <g
       id="g2648"
       transform="matrix(0.14555677,0,0,0.14555677,26.667757,42.04827)">
      <text
         xml:space="preserve"
         style="font-style:normal;font-weight:normal;font-size:256.202px;line-height:1.25;font-family:sans-serif;letter-spacing:0px;word-spacing:0px;fill:#a3cb38;fill-opacity:1;stroke:none;stroke-width:19.2153"
         x="139.47345"
         y="174.33795"
         id="text2636"
         transform="scale(0.71115845,1.4061564)"><tspan
           sodipodi:role="line"
           id="tspan2634"
           x="139.47345"
           y="174.33795"
           style="font-style:normal;font-variant:normal;font-weight:600;font-stretch:normal;font-family:Inter;-inkscape-font-specification:'Inter Semi-Bold';fill:#a3cb38;fill-opacity:1;stroke-width:19.2153">&gt;</tspan></text>
      <text
         xml:space="preserve"
         style="font-style:normal;font-weight:normal;font-size:256.202px;line-height:1.25;font-family:sans-serif;letter-spacing:0px;word-spacing:0px;fill:#0652dd;fill-opacity:1;stroke:none;stroke-width:19.2153"
         x="61.715919"
         y="174.33795"
         id="text2640"
         transform="scale(0.71115845,1.4061564)"><tspan
           sodipodi:role="line"
           id="tspan2638"
           x="61.715919"
           y="174.33795"
           style="font-style:normal;font-variant:normal;font-weight:600;font-stretch:normal;font-family:Inter;-inkscape-font-specification:'Inter Semi-Bold';fill:#0652dd;fill-opacity:1;stroke-width:19.2153">&gt;</tspan></text>
      <text
         xml:space="preserve"
         style="font-style:normal;font-weight:normal;font-size:256.202px;line-height:1.25;font-family:sans-serif;letter-spacing:0px;word-spacing:0px;fill:#f79f1f;fill-opacity:1;stroke:none;stroke-width:19.2153"
         x="-16.041588"
         y="174.33795"
         id="text1919-8"
         transform="scale(0.71115846,1.4061564)"><tspan
           sodipodi:role="line"
           id="tspan1917-4"
           x="-16.041588"
           y="174.33795"
           style="font-style:normal;font-variant:normal;font-weight:600;font-stretch:normal;font-family:Inter;-inkscape-font-specification:'Inter Semi-Bold';fill:#f79f1f;fill-opacity:1;stroke-width:19.2153">&gt;</tspan></text>
    </g>
    <g
       id="g1562"
       transform="matrix(0.10116238,0,0,0.10116238,98.283935,66.412959)">
      <g
         id="g1560">
        <path
           class="st0"
           d="m 383.66,54.39 c 0,8.71 -5.73,16.1 -15.33,16.1 -9.26,0 -15.55,-7.61 -15.55,-16.32 v -0.22 c 0,-8.71 5.74,-16.1 15.33,-16.1 9.26,0 15.55,7.61 15.55,16.32 z m 16.54,-0.22 v -0.22 c 0,-16.98 -13.56,-30.54 -31.87,-30.54 -18.42,0 -32.09,13.78 -32.09,30.76 v 0.22 c 0,16.98 13.56,30.55 31.87,30.55 18.41,-0.01 32.09,-13.79 32.09,-30.77"
           id="path1538" />
        <path
           class="st1"
           d="m 275.02,54.17 c 0,9.93 -6.62,16.32 -14.44,16.32 -7.83,0 -14.34,-6.51 -14.34,-16.32 v -0.22 c 0,-9.81 6.51,-16.32 14.34,-16.32 7.83,0 14.44,6.51 14.44,16.32 z m 15.09,0 v -0.22 c 0,-19.74 -13.12,-30.54 -26.9,-30.54 -8.71,0 -14.34,4.08 -18.41,9.59 v -8.49 h -15.76 v 76.75 H 244.8 V 75.89 c 3.97,4.74 9.48,8.82 18.41,8.82 14,0 26.9,-10.8 26.9,-30.54"
           id="path1540" />
        <path
           class="st1"
           d="M 218.79,83.61 V 45.13 c 0,-14.22 -7.5,-21.72 -19.96,-21.72 -8.05,0 -14.23,3.31 -19.41,9.37 -3.09,-5.95 -8.93,-9.37 -16.65,-9.37 -8.49,0 -13.56,4.52 -17.42,9.48 v -8.38 h -16.76 v 59.1 h 16.76 V 50.64 c 0,-7.94 3.86,-12.02 10.15,-12.02 6.28,0 9.81,4.08 9.81,12.02 v 32.97 h 16.76 V 50.64 c 0,-7.94 3.86,-12.02 10.15,-12.02 6.29,0 9.81,4.08 9.81,12.02 v 32.97 z"
           id="path1542" />
        <path
           class="st1"
           d="m 89.4,72.82 c -4.75,0 -7.65,-2.49 -7.65,-5.65 0,-3.64 1.76,-5.52 6.98,-6.29 10.9,-1.61 13.59,-3.22 13.59,-3.22 1.61,13.32 -7.85,15.16 -12.92,15.16 m 29.16,10.77 c 0,0 -0.1,-28.42 -0.1,-38.38 0,-11.77 -9.15,-21.82 -26.37,-21.82 -17.51,0 -25.51,9.88 -25.51,22.82 h 15.65 c 0.2,-1.37 -0.51,-8.38 9.36,-8.38 7.11,0 10.55,2.1 10.55,5.7 0,9.89 -36.23,-1.51 -36.23,24.75 0,12.73 9.29,16.65 18,16.65 13.4,0 18.23,-7.56 18.23,-7.56 l -0.14,6.2 z"
           id="path1544" />
        <path
           class="st1"
           d="m 43.88,62.31 c -0.76,3.27 -4.51,8.18 -12.34,8.18 -9.15,0 -15,-7.28 -15,-16.32 v -0.22 c 0,-8.71 5.96,-16.1 14.34,-16.1 8.21,0 11.9,4.49 13,8.36 H 59.53 C 59.28,38.83 52.5,23.41 30.99,23.41 12.9,23.41 0,37.3 0,54.17 v 0.22 c 0,16.87 13.01,30.54 30.77,30.54 21.19,0 28.51,-15.67 28.76,-22.62 z"
           id="path1546" />
        <path
           class="st1"
           d="m 681.57,54.17 c 0,9.93 -6.62,16.32 -14.44,16.32 -7.83,0 -14.34,-6.51 -14.34,-16.32 v -0.22 c 0,-9.81 6.51,-16.32 14.34,-16.32 7.83,0 14.44,6.51 14.44,16.32 z m 15.08,0 v -0.22 c 0,-19.74 -13.12,-30.54 -26.91,-30.54 -8.71,0 -14.34,4.08 -18.41,9.59 v -8.49 h -15.76 v 76.75 h 15.76 V 75.89 c 3.97,4.74 9.48,8.82 18.41,8.82 14.01,0 26.91,-10.8 26.91,-30.54"
           id="path1548" />
        <path
           class="st1"
           d="M 625.33,83.61 V 45.13 c 0,-14.22 -7.5,-21.72 -19.96,-21.72 -8.05,0 -14.23,3.31 -19.41,9.37 -3.09,-5.95 -8.93,-9.37 -16.65,-9.37 -8.49,0 -13.56,4.52 -17.42,9.48 v -8.38 h -16.76 v 59.1 h 16.76 V 50.64 c 0,-7.94 3.86,-12.02 10.15,-12.02 6.28,0 9.81,4.08 9.81,12.02 v 32.97 h 16.76 V 50.64 c 0,-7.94 3.86,-12.02 10.15,-12.02 6.29,0 9.81,4.08 9.81,12.02 v 32.97 z"
           id="path1550" />
        <path
           class="st1"
           d="m 495.94,72.82 c -4.75,0 -7.65,-2.49 -7.65,-5.65 0,-3.64 1.76,-5.52 6.98,-6.29 10.9,-1.61 13.59,-3.22 13.59,-3.22 1.61,13.32 -7.85,15.16 -12.92,15.16 m 29.16,10.77 c 0,0 -0.1,-28.42 -0.1,-38.38 0,-11.77 -9.15,-21.82 -26.37,-21.82 -17.51,0 -25.51,9.88 -25.51,22.82 h 15.65 c 0.2,-1.37 -0.51,-8.38 9.36,-8.38 7.11,0 10.55,2.1 10.55,5.7 0,9.89 -36.23,-1.51 -36.23,24.75 0,12.73 9.29,16.65 18,16.65 13.4,0 18.23,-7.56 18.23,-7.56 l -0.14,6.2 z"
           id="path1552" />
        <path
           class="st1"
           d="m 450.42,62.31 c -0.76,3.27 -4.5,8.18 -12.34,8.18 -9.15,0 -15,-7.28 -15,-16.32 v -0.22 c 0,-8.71 5.95,-16.1 14.34,-16.1 8.21,0 11.9,4.49 13,8.36 h 15.65 c -0.25,-7.38 -7.03,-22.8 -28.54,-22.8 -18.08,0 -30.99,13.9 -30.99,30.77 v 0.22 c 0,16.87 13.01,30.54 30.77,30.54 21.19,0 28.51,-15.67 28.76,-22.62 h -15.65 z"
           id="path1554" />
        <path
           class="st0"
           d="m 708.01,2.72 h 2.72 V 0 h -2.72 z m -8.17,8.17 h -2.72 v 5.45 h 2.72 z m 2.72,-2.72 h -2.72 v 2.72 h 2.72 z m 2.72,-2.72 h -2.72 v 2.72 h 2.72 z m 2.73,-2.73 h -2.72 v 2.72 h 2.72 z m 13.61,21.79 V 13.62 H 718.9 V 10.9 h -2.72 V 5.45 h -2.72 V 2.72 h -2.72 v 5.45 h -2.72 v 2.72 h 2.72 v 2.72 h -2.72 v -2.72 h -2.72 v 2.72 h -2.72 v 2.72 h -2.72 v 2.72 h -2.72 v -2.72 h -2.72 v 8.17 h 27.2 z"
           id="path1556" />
        <path
           class="st0"
           d="m 331.54,69.62 c 0,0 -2.21,0.24 -5.95,0.24 -3.74,0 -5.87,-2.34 -5.87,-6.24 V 38.84 h 12.22 V 24.51 H 319.72 V 9.4 h -16.76 v 15.11 h -9.4 v 14.34 h 9.4 v 26.97 c 0,13.68 6.87,18.46 17.2,18.46 7.22,0 11.38,-0.71 11.38,-0.71 z"
           id="path1558" />
      </g>
    </g>
    <text
       xml:space="preserve"
       style="font-style:normal;font-weight:normal;font-size:15.8194px;line-height:1.25;font-family:sans-serif;letter-spacing:0px;word-spacing:0px;fill:#7a7f82;fill-opacity:1;stroke:none;stroke-width:1.18646"
       x="59.098003"
       y="61.796204"
       id="text1587"><tspan
         sodipodi:role="line"
         id="tspan1585"
         x="59.098003"
         y="61.796204"
         style="font-style:normal;font-variant:normal;font-weight:normal;font-stretch:normal;font-family:Inter;-inkscape-font-specification:Inter;fill:#7a7f82;fill-opacity:1;stroke-width:1.18646">DevOps Stack</tspan></text>
    <text
       xml:space="preserve"
       style="font-style:normal;font-weight:normal;font-size:10.1067px;line-height:1.25;font-family:sans-serif;letter-spacing:0px;word-spacing:0px;fill:#7a7f82;fill-opacity:1;stroke:none;stroke-width:0.758005"
       x="83.338173"
       y="74.832817"
       id="text933"><tspan
         sodipodi:role="line"
         id="tspan931"
         x="83.338173"
         y="74.832817"
         style="font-style:italic;font-variant:normal;font-weight:normal;font-stretch:normal;font-family:Inter;-inkscape-font-specification:'Inter Italic';fill:#7a7f82;fill-opacity:1;stroke-width:0.758005">by</tspan></text>
  </g>
  <style
     type="text/css"
     id="style1536">
	.st0{fill:#FF680A;}
	.st1{fill:#7A7F82;}
</style>
</svg>
