<?xml version="1.0" encoding="UTF-8" standalone="no"?>
<svg
   xmlns:dc="http://purl.org/dc/elements/1.1/"
   xmlns:cc="http://creativecommons.org/ns#"
   xmlns:rdf="http://www.w3.org/1999/02/22-rdf-syntax-ns#"
   xmlns:svg="http://www.w3.org/2000/svg"
   xmlns="http://www.w3.org/2000/svg"
   xmlns:sodipodi="http://sodipodi.sourceforge.net/DTD/sodipodi-0.dtd"
   xmlns:inkscape="http://www.inkscape.org/namespaces/inkscape"
   width="139.99007mm"
   height="28.999998mm"
   viewBox="0 0 139.99007 28.999997"
   version="1.1"
   id="svg8"
   inkscape:version="1.0.1 (3bc2e813f5, 2020-09-07)"
   sodipodi:docname="devops-stack-logo_wave_by_c2c_black.svg"
   inkscape:export-filename="./devops-stack-logo_wave_by_c2c_black2.png"
   inkscape:export-xdpi="99.848282"
   inkscape:export-ydpi="99.848282">
  <defs
     id="defs2" />
  <sodipodi:namedview
     id="base"
     pagecolor="#ffffff"
     bordercolor="#666666"
     borderopacity="1.0"
     inkscape:pageopacity="0.0"
     inkscape:pageshadow="2"
     inkscape:zoom="1.4"
     inkscape:cx="288.81556"
     inkscape:cy="204.18257"
     inkscape:document-units="mm"
     inkscape:current-layer="layer1"
     inkscape:document-rotation="0"
     showgrid="false"
     fit-margin-top="0"
     fit-margin-left="0"
     fit-margin-right="0"
     fit-margin-bottom="0"
     inkscape:window-width="1920"
     inkscape:window-height="1043"
     inkscape:window-x="3840"
     inkscape:window-y="0"
     inkscape:window-maximized="1" />
  <metadata
     id="metadata5">
    <rdf:RDF>
      <cc:Work
         rdf:about="">
        <dc:format>image/svg+xml</dc:format>
        <dc:type
           rdf:resource="http://purl.org/dc/dcmitype/StillImage" />
        <dc:title></dc:title>
      </cc:Work>
    </rdf:RDF>
  </metadata>
  <g
     inkscape:label="Layer 1"
     inkscape:groupmode="layer"
     id="layer1"
     transform="translate(-27.689868,-40.630363)">
    <text
       xml:space="preserve"
       style="font-style:normal;font-weight:normal;font-size:15.8194px;line-height:1.25;font-family:sans-serif;letter-spacing:0px;word-spacing:0px;fill:#7a7f82;fill-opacity:1;stroke:none;stroke-width:1.18646"
       x="59.83744"
       y="65.110664"
       id="text1587"><tspan
         sodipodi:role="line"
         id="tspan1585"
         x="59.83744"
         y="65.110664"
         style="font-style:normal;font-variant:normal;font-weight:600;font-stretch:normal;font-family:Inter;-inkscape-font-specification:'Inter Semi-Bold';fill:#222222;fill-opacity:1;stroke-width:1.18646">DevOps Stack</tspan></text>
    <g
       id="g878"
       transform="translate(1.7798442,23.812499)"
       style="fill:#222222;fill-opacity:1;stroke:none;stroke-opacity:1">
      <g
         id="g1560"
         transform="matrix(0.06824418,0,0,0.06824418,59.192369,19.544132)"
         style="fill:#222222;fill-opacity:1;stroke:none;stroke-opacity:1">
        <path
           class="st0"
           d="m 383.66,54.39 c 0,8.71 -5.73,16.1 -15.33,16.1 -9.26,0 -15.55,-7.61 -15.55,-16.32 v -0.22 c 0,-8.71 5.74,-16.1 15.33,-16.1 9.26,0 15.55,7.61 15.55,16.32 z m 16.54,-0.22 v -0.22 c 0,-16.98 -13.56,-30.54 -31.87,-30.54 -18.42,0 -32.09,13.78 -32.09,30.76 v 0.22 c 0,16.98 13.56,30.55 31.87,30.55 18.41,-0.01 32.09,-13.79 32.09,-30.77"
           id="path1538"
           style="fill:#222222;fill-opacity:1;stroke:none;stroke-opacity:1" />
        <path
           class="st1"
           d="m 275.02,54.17 c 0,9.93 -6.62,16.32 -14.44,16.32 -7.83,0 -14.34,-6.51 -14.34,-16.32 v -0.22 c 0,-9.81 6.51,-16.32 14.34,-16.32 7.83,0 14.44,6.51 14.44,16.32 z m 15.09,0 v -0.22 c 0,-19.74 -13.12,-30.54 -26.9,-30.54 -8.71,0 -14.34,4.08 -18.41,9.59 v -8.49 h -15.76 v 76.75 H 244.8 V 75.89 c 3.97,4.74 9.48,8.82 18.41,8.82 14,0 26.9,-10.8 26.9,-30.54"
           id="path1540"
           style="fill:#222222;fill-opacity:1;stroke:none;stroke-opacity:1" />
        <path
           class="st1"
           d="M 218.79,83.61 V 45.13 c 0,-14.22 -7.5,-21.72 -19.96,-21.72 -8.05,0 -14.23,3.31 -19.41,9.37 -3.09,-5.95 -8.93,-9.37 -16.65,-9.37 -8.49,0 -13.56,4.52 -17.42,9.48 v -8.38 h -16.76 v 59.1 h 16.76 V 50.64 c 0,-7.94 3.86,-12.02 10.15,-12.02 6.28,0 9.81,4.08 9.81,12.02 v 32.97 h 16.76 V 50.64 c 0,-7.94 3.86,-12.02 10.15,-12.02 6.29,0 9.81,4.08 9.81,12.02 v 32.97 z"
           id="path1542"
           style="fill:#222222;fill-opacity:1;stroke:none;stroke-opacity:1" />
        <path
           class="st1"
           d="m 89.4,72.82 c -4.75,0 -7.65,-2.49 -7.65,-5.65 0,-3.64 1.76,-5.52 6.98,-6.29 10.9,-1.61 13.59,-3.22 13.59,-3.22 1.61,13.32 -7.85,15.16 -12.92,15.16 m 29.16,10.77 c 0,0 -0.1,-28.42 -0.1,-38.38 0,-11.77 -9.15,-21.82 -26.37,-21.82 -17.51,0 -25.51,9.88 -25.51,22.82 h 15.65 c 0.2,-1.37 -0.51,-8.38 9.36,-8.38 7.11,0 10.55,2.1 10.55,5.7 0,9.89 -36.23,-1.51 -36.23,24.75 0,12.73 9.29,16.65 18,16.65 13.4,0 18.23,-7.56 18.23,-7.56 l -0.14,6.2 z"
           id="path1544"
           style="fill:#222222;fill-opacity:1;stroke:none;stroke-opacity:1" />
        <path
           class="st1"
           d="m 43.88,62.31 c -0.76,3.27 -4.51,8.18 -12.34,8.18 -9.15,0 -15,-7.28 -15,-16.32 v -0.22 c 0,-8.71 5.96,-16.1 14.34,-16.1 8.21,0 11.9,4.49 13,8.36 H 59.53 C 59.28,38.83 52.5,23.41 30.99,23.41 12.9,23.41 0,37.3 0,54.17 v 0.22 c 0,16.87 13.01,30.54 30.77,30.54 21.19,0 28.51,-15.67 28.76,-22.62 z"
           id="path1546"
           style="fill:#222222;fill-opacity:1;stroke:none;stroke-opacity:1" />
        <path
           class="st1"
           d="m 681.57,54.17 c 0,9.93 -6.62,16.32 -14.44,16.32 -7.83,0 -14.34,-6.51 -14.34,-16.32 v -0.22 c 0,-9.81 6.51,-16.32 14.34,-16.32 7.83,0 14.44,6.51 14.44,16.32 z m 15.08,0 v -0.22 c 0,-19.74 -13.12,-30.54 -26.91,-30.54 -8.71,0 -14.34,4.08 -18.41,9.59 v -8.49 h -15.76 v 76.75 h 15.76 V 75.89 c 3.97,4.74 9.48,8.82 18.41,8.82 14.01,0 26.91,-10.8 26.91,-30.54"
           id="path1548"
           style="fill:#222222;fill-opacity:1;stroke:none;stroke-opacity:1" />
        <path
           class="st1"
           d="M 625.33,83.61 V 45.13 c 0,-14.22 -7.5,-21.72 -19.96,-21.72 -8.05,0 -14.23,3.31 -19.41,9.37 -3.09,-5.95 -8.93,-9.37 -16.65,-9.37 -8.49,0 -13.56,4.52 -17.42,9.48 v -8.38 h -16.76 v 59.1 h 16.76 V 50.64 c 0,-7.94 3.86,-12.02 10.15,-12.02 6.28,0 9.81,4.08 9.81,12.02 v 32.97 h 16.76 V 50.64 c 0,-7.94 3.86,-12.02 10.15,-12.02 6.29,0 9.81,4.08 9.81,12.02 v 32.97 z"
           id="path1550"
           style="fill:#222222;fill-opacity:1;stroke:none;stroke-opacity:1" />
        <path
           class="st1"
           d="m 495.94,72.82 c -4.75,0 -7.65,-2.49 -7.65,-5.65 0,-3.64 1.76,-5.52 6.98,-6.29 10.9,-1.61 13.59,-3.22 13.59,-3.22 1.61,13.32 -7.85,15.16 -12.92,15.16 m 29.16,10.77 c 0,0 -0.1,-28.42 -0.1,-38.38 0,-11.77 -9.15,-21.82 -26.37,-21.82 -17.51,0 -25.51,9.88 -25.51,22.82 h 15.65 c 0.2,-1.37 -0.51,-8.38 9.36,-8.38 7.11,0 10.55,2.1 10.55,5.7 0,9.89 -36.23,-1.51 -36.23,24.75 0,12.73 9.29,16.65 18,16.65 13.4,0 18.23,-7.56 18.23,-7.56 l -0.14,6.2 z"
           id="path1552"
           style="fill:#222222;fill-opacity:1;stroke:none;stroke-opacity:1" />
        <path
           class="st1"
           d="m 450.42,62.31 c -0.76,3.27 -4.5,8.18 -12.34,8.18 -9.15,0 -15,-7.28 -15,-16.32 v -0.22 c 0,-8.71 5.95,-16.1 14.34,-16.1 8.21,0 11.9,4.49 13,8.36 h 15.65 c -0.25,-7.38 -7.03,-22.8 -28.54,-22.8 -18.08,0 -30.99,13.9 -30.99,30.77 v 0.22 c 0,16.87 13.01,30.54 30.77,30.54 21.19,0 28.51,-15.67 28.76,-22.62 h -15.65 z"
           id="path1554"
           style="fill:#222222;fill-opacity:1;stroke:none;stroke-opacity:1" />
        <path
           class="st0"
           d="m 708.01,2.72 h 2.72 V 0 h -2.72 z m -8.17,8.17 h -2.72 v 5.45 h 2.72 z m 2.72,-2.72 h -2.72 v 2.72 h 2.72 z m 2.72,-2.72 h -2.72 v 2.72 h 2.72 z m 2.73,-2.73 h -2.72 v 2.72 h 2.72 z m 13.61,21.79 V 13.62 H 718.9 V 10.9 h -2.72 V 5.45 h -2.72 V 2.72 h -2.72 v 5.45 h -2.72 v 2.72 h 2.72 v 2.72 h -2.72 v -2.72 h -2.72 v 2.72 h -2.72 v 2.72 h -2.72 v 2.72 h -2.72 v -2.72 h -2.72 v 8.17 h 27.2 z"
           id="path1556"
           style="fill:#222222;fill-opacity:1;stroke:none;stroke-opacity:1" />
        <path
           class="st0"
           d="m 331.54,69.62 c 0,0 -2.21,0.24 -5.95,0.24 -3.74,0 -5.87,-2.34 -5.87,-6.24 V 38.84 h 12.22 V 24.51 H 319.72 V 9.4 h -16.76 v 15.11 h -9.4 v 14.34 h 9.4 v 26.97 c 0,13.68 6.87,18.46 17.2,18.46 7.22,0 11.38,-0.71 11.38,-0.71 z"
           id="path1558"
           style="fill:#222222;fill-opacity:1;stroke:none;stroke-opacity:1" />
      </g>
    </g>
    <path
       d="m 43.448784,59.124521 -3.096131,0.04372 -1.964503,-2.393455 0.646436,-3.028188 2.770556,-1.382759 2.80843,1.304089 0.731448,3.008521 z"
       style="fill:#4b7bec;fill-opacity:1;fill-rule:nonzero;stroke:none;stroke-width:0.162544"
       id="path375" />
    <path
       d="M 27.934973,58.043072 C 26.855886,46.559524 36.362837,38.499148 46.191521,41.37682 c 4.373272,1.280358 8.325055,4.919385 9.359549,9.510916 1.141311,5.066322 -2.829235,6.732721 -4.438076,1.841458 -1.455829,3.909012 -3.386571,-0.631645 -3.967811,-1.894611 -1.120948,-2.435229 -1.792809,-4.06099 -4.462293,-4.864442 -5.238403,-1.576999 -14.885045,3.952736 -14.153844,10.331437"
       style="fill:none;stroke:#4b7bec;stroke-width:0.322923;stroke-linecap:butt;stroke-linejoin:miter;stroke-miterlimit:10;stroke-dasharray:none;stroke-opacity:1"
       id="path367" />
    <path
       d="m 27.723098,57.561633 c 0.882287,12.306666 17.940265,16.036555 25.374364,7.275613 -4.75359,5.601905 -15.070075,2.953909 -17.877689,-3.51338 -3.296387,-7.593875 4.005239,-18.305665 9.650379,-14.247438 -6.030207,-4.335039 -17.15128,0.431555 -17.147054,10.485205"
       style="fill:#4b7bec;fill-opacity:1;fill-rule:nonzero;stroke:none;stroke-width:0.162544"
       id="path371" />
  </g>
  <style
     type="text/css"
     id="style1536">
	.st0{fill:#FF680A;}
	.st1{fill:#7A7F82;}
</style>
</svg>
