<?xml version="1.0" encoding="UTF-8" standalone="no"?>
<svg
   xmlns:dc="http://purl.org/dc/elements/1.1/"
   xmlns:cc="http://creativecommons.org/ns#"
   xmlns:rdf="http://www.w3.org/1999/02/22-rdf-syntax-ns#"
   xmlns:svg="http://www.w3.org/2000/svg"
   xmlns="http://www.w3.org/2000/svg"
   xmlns:sodipodi="http://sodipodi.sourceforge.net/DTD/sodipodi-0.dtd"
   xmlns:inkscape="http://www.inkscape.org/namespaces/inkscape"
   width="259.08984mm"
   height="262.07773mm"
   viewBox="0 0 259.08985 262.07773"
   version="1.1"
   id="svg866"
   inkscape:version="1.0.1 (3bc2e813f5, 2020-09-07)"
   sodipodi:docname="devops-stack-d.svg"
   inkscape:export-filename="/home/raphink/dev/k8s/camptocamp-devops-stack/site/static/img/devops-stack-d.png"
   inkscape:export-xdpi="48"
   inkscape:export-ydpi="48">
  <defs
     id="defs860" />
  <sodipodi:namedview
     id="base"
     pagecolor="#ffffff"
     bordercolor="#666666"
     borderopacity="1.0"
     inkscape:pageopacity="0.0"
     inkscape:pageshadow="2"
     inkscape:zoom="0.30156912"
     inkscape:cx="737.121"
     inkscape:cy="887.5101"
     inkscape:document-units="mm"
     inkscape:current-layer="layer1"
     inkscape:document-rotation="0"
     showgrid="false"
     inkscape:window-width="1920"
     inkscape:window-height="1043"
     inkscape:window-x="3840"
     inkscape:window-y="0"
     inkscape:window-maximized="1"
     fit-margin-top="0"
     fit-margin-left="0"
     fit-margin-right="0"
     fit-margin-bottom="0" />
  <metadata
     id="metadata863">
    <rdf:RDF>
      <cc:Work
         rdf:about="">
        <dc:format>image/svg+xml</dc:format>
        <dc:type
           rdf:resource="http://purl.org/dc/dcmitype/StillImage" />
        <dc:title />
      </cc:Work>
    </rdf:RDF>
  </metadata>
  <g
     inkscape:label="Layer 1"
     inkscape:groupmode="layer"
     id="layer1"
     transform="translate(-301.627,13.725435)">
    <g
       id="g928"
       transform="matrix(3.8734311,0,0,4.0481039,11.780193,-586.07846)">
      <rect
         style="fill:#797f82;fill-opacity:1;stroke:#797f82;stroke-width:0.99809;stroke-miterlimit:4;stroke-dasharray:none;stroke-dashoffset:18.8976;stroke-opacity:1"
         id="rect923"
         width="15.64717"
         height="15.64717"
         x="164.28149"
         y="118.56123"
         rx="2.2426941"
         ry="1.875453"
         transform="matrix(0.88973076,0.45648567,-0.88973076,0.45648567,0,0)" />
      <rect
         style="fill:#ff6b23;fill-opacity:1;stroke:#ff6b23;stroke-width:0.99809;stroke-miterlimit:4;stroke-dasharray:none;stroke-dashoffset:18.8976;stroke-opacity:1"
         id="rect921"
         width="15.64717"
         height="15.64717"
         x="159.065"
         y="113.34474"
         rx="2.2426941"
         ry="1.875453"
         transform="matrix(0.88973076,0.45648567,-0.88973076,0.45648567,0,0)" />
      <rect
         style="fill:#ffffff;fill-opacity:1;stroke:#797f82;stroke-width:0.99809;stroke-miterlimit:4;stroke-dasharray:none;stroke-dashoffset:18.8976;stroke-opacity:1"
         id="rect919"
         width="15.64717"
         height="15.64717"
         x="153.57941"
         y="107.85915"
         rx="2.2426941"
         ry="1.875453"
         transform="matrix(0.88973076,0.45648567,-0.88973076,0.45648567,0,0)" />
    </g>
    <g
       id="g3504"
       transform="translate(-541.98816,-101.59345)">
      <path
         d="m 430.34318,198.84601 c -10.91422,1.51396 -22.74061,6.53764 -37.43497,15.90366 -3.5755,2.27324 -6.08043,3.95373 -12.10526,8.1285 -4.29231,2.97808 -4.90175,3.35739 -5.08496,3.25203 -0.11763,-0.0704 -0.87068,-1.12264 -1.68648,-2.34616 -9.40694,-14.18726 -16.88616,-20.04337 -27.67853,-21.64138 -7.03577,-1.04175 -15.22392,0.035 -23.51781,3.08403 -13.90447,5.11743 -26.75147,15.33839 -33.985,27.04456 -1.62428,2.61706 -2.33329,4.01505 -3.61026,7.11586 -2.02662,4.92115 -2.98738,9.00206 -3.12736,13.29096 -0.41581,11.9503 7.06297,19.9114 20.04873,21.36229 8.07724,0.90812 18.20371,-0.9264 28.18037,-5.08378 3.90966,-1.62808 7.34713,-3.33955 11.78085,-5.8518 5.57385,-3.14442 9.84069,-5.89877 19.25063,-12.40236 3.28334,-2.27592 6.06337,-4.13889 6.15797,-4.14203 0.10816,-0.004 0.69943,0.79399 1.32648,1.76376 1.39913,2.16996 4.98151,7.06582 6.56513,8.98201 7.30292,8.80893 14.03407,12.59727 24.07132,13.60126 0.7425,0.0744 2.55982,0.0636 4.66814,-0.006 2.87864,-0.0956 3.79129,-0.17541 5.52483,-0.46825 9.30161,-1.5471 18.24473,-5.29871 26.72241,-11.18938 8.53892,-5.94225 15.43056,-13.45184 19.90638,-21.69847 1.05818,-1.95436 3.12691,-7.07505 3.64128,-9.03613 1.84617,-7.00777 1.79974,-13.27165 -0.14382,-18.03619 -0.62215,-1.56429 -2.25693,-4.03599 -3.49488,-5.27026 -3.4201,-3.47728 -8.79929,-5.72559 -15.67653,-6.53733 -2.19013,-0.24922 -7.852,-0.16026 -10.29864,0.181 z m -91.76091,17.89333 c 4.1739,0.74055 7.9314,2.6217 11.16321,5.58519 1.1533,1.05135 2.80413,2.80433 3.829,4.07043 1.28557,1.60416 7.49859,10.27595 7.44689,10.40149 -0.0826,0.20088 -12.00475,8.4347 -14.81816,10.24925 -8.91371,5.71942 -16.49501,9.40105 -22.92043,11.14982 -3.02983,0.81877 -4.72081,1.07304 -8.01842,1.18255 -2.56782,0.0853 -3.16047,0.0678 -4.39504,-0.13885 -7.35851,-1.22915 -11.20648,-5.86855 -10.7849,-12.97758 0.36573,-6.06707 3.17002,-11.90556 8.37668,-17.42759 5.97001,-6.33984 13.80147,-10.66128 21.84022,-12.05499 0.90313,-0.15381 2.04037,-0.22872 4.01154,-0.25704 2.30903,-0.0395 2.99946,-5.3e-4 4.26941,0.21732 z m 92.85028,-3.31843 c 4.18151,0.43073 7.29239,1.87522 9.41171,4.36797 3.94775,4.6237 3.27547,13.05357 -1.68282,20.82093 -5.04218,7.90634 -14.15878,14.47449 -23.30474,16.80888 -2.20181,0.55602 -4.05497,0.81567 -6.42006,0.89421 -4.18958,0.13912 -7.23423,-0.52748 -10.64632,-2.30869 -3.59214,-1.86192 -6.65506,-4.62047 -10.08054,-9.08816 -2.15225,-2.80122 -6.32431,-8.69285 -6.28731,-8.87981 0.0422,-0.19949 8.85701,-6.42332 12.54861,-8.849 12.47414,-8.21505 21.3251,-12.26077 29.56894,-13.53749 1.84998,-0.2843 5.25571,-0.3974 6.89254,-0.22886 z"
         id="path1533"
         style="fill:#797f82;fill-opacity:1;stroke:none;stroke-width:0.0129361"
         inkscape:export-xdpi="48"
         inkscape:export-ydpi="48" />
      <path
         d="m 430.34318,187.20434 c -10.91422,1.51397 -22.74061,6.53765 -37.43497,15.90367 -3.5755,2.27325 -6.08043,3.95373 -12.10526,8.1285 -4.29231,2.97808 -4.90175,3.35739 -5.08496,3.25203 -0.11763,-0.0704 -0.87068,-1.12264 -1.68648,-2.34616 -9.40694,-14.18726 -16.88616,-20.04337 -27.67853,-21.64139 -7.03577,-1.04175 -15.22392,0.035 -23.51781,3.08403 -13.90447,5.11743 -26.75147,15.3384 -33.985,27.04457 -1.62428,2.61706 -2.33329,4.01505 -3.61026,7.11587 -2.02662,4.92114 -2.98738,9.00205 -3.12736,13.29095 -0.41581,11.9503 7.06297,19.9114 20.04873,21.3623 8.07724,0.90811 18.20371,-0.92641 28.18037,-5.08379 3.90966,-1.62808 7.34713,-3.33955 11.78085,-5.8518 5.57385,-3.14442 9.84069,-5.89876 19.25063,-12.40236 3.28334,-2.27592 6.06337,-4.13889 6.15797,-4.14203 0.10816,-0.004 0.69943,0.79399 1.32648,1.76376 1.39913,2.16996 4.98151,7.06582 6.56513,8.98201 7.30292,8.80893 14.03407,12.59727 24.07132,13.60126 0.7425,0.0744 2.55982,0.0636 4.66814,-0.006 2.87864,-0.0956 3.79129,-0.17541 5.52483,-0.46825 9.30161,-1.5471 18.24473,-5.29871 26.72241,-11.18938 8.53892,-5.94224 15.43056,-13.45184 19.90638,-21.69847 1.05818,-1.95436 3.12691,-7.07505 3.64128,-9.03613 1.84617,-7.00776 1.79974,-13.27165 -0.14382,-18.03619 -0.62215,-1.56429 -2.25693,-4.03599 -3.49488,-5.27026 -3.4201,-3.47729 -8.79929,-5.72559 -15.67653,-6.53734 -2.19013,-0.24921 -7.852,-0.16026 -10.29864,0.18101 z m -91.76091,17.89335 c 4.1739,0.74054 7.9314,2.62169 11.16321,5.58518 1.1533,1.05135 2.80413,2.80433 3.829,4.07044 1.28557,1.60415 7.49859,10.27594 7.44689,10.40148 -0.0826,0.20088 -12.00475,8.43471 -14.81816,10.24926 -8.91371,5.71941 -16.49501,9.40104 -22.92043,11.14981 -3.02983,0.81877 -4.72081,1.07304 -8.01842,1.18255 -2.56782,0.0853 -3.16047,0.0678 -4.39504,-0.13885 -7.35851,-1.22915 -11.20648,-5.86855 -10.7849,-12.97758 0.36573,-6.06707 3.17002,-11.90556 8.37668,-17.42759 5.97001,-6.33984 13.80147,-10.66128 21.84022,-12.05499 0.90313,-0.15381 2.04037,-0.22872 4.01154,-0.25704 2.30903,-0.0395 2.99946,-5.3e-4 4.26941,0.21733 z m 92.85028,-3.31844 c 4.18151,0.43073 7.29239,1.87522 9.41171,4.36797 3.94775,4.6237 3.27547,13.05357 -1.68282,20.82093 -5.04218,7.90635 -14.15878,14.47449 -23.30474,16.80889 -2.20181,0.55601 -4.05497,0.81567 -6.42006,0.8942 -4.18958,0.13912 -7.23423,-0.52748 -10.64632,-2.30869 -3.59214,-1.86192 -6.65506,-4.62047 -10.08054,-9.08816 -2.15225,-2.80122 -6.32431,-8.69285 -6.28731,-8.87981 0.0422,-0.19949 8.85701,-6.42332 12.54861,-8.849 12.47414,-8.21505 21.3251,-12.26077 29.56894,-13.53749 1.84998,-0.2843 5.25571,-0.3974 6.89254,-0.22886 z"
         id="path1531"
         style="fill:#ff6b23;fill-opacity:1;stroke:none;stroke-width:0.0129361"
         inkscape:export-xdpi="48"
         inkscape:export-ydpi="48" />
      <path
         d="m 429.25382,172.62987 c -10.91422,1.51396 -22.74061,6.53764 -37.43497,15.90366 -3.5755,2.27324 -6.08043,3.95373 -12.10526,8.1285 -4.29232,2.97807 -4.90175,3.35739 -5.08497,3.25202 -0.11761,-0.0704 -0.87066,-1.12263 -1.68646,-2.34615 -9.40694,-14.18726 -16.88616,-20.04337 -27.67853,-21.64138 -7.03578,-1.04175 -15.22392,0.035 -23.51781,3.08403 -13.90447,5.11742 -26.75147,15.33839 -33.985,27.04456 -1.62428,2.61706 -2.33329,4.01505 -3.61026,7.11586 -2.02662,4.92115 -2.98738,9.00206 -3.12736,13.29096 -0.41581,11.9503 7.06297,19.9114 20.04873,21.36229 8.07724,0.90812 18.2037,-0.9264 28.18037,-5.08378 3.90966,-1.62808 7.34712,-3.33955 11.78085,-5.8518 5.57385,-3.14442 9.84069,-5.89877 19.25063,-12.40236 3.28334,-2.27592 6.06337,-4.13889 6.15797,-4.14203 0.10816,-0.004 0.69943,0.79399 1.32648,1.76376 1.39913,2.16996 4.98151,7.06582 6.56513,8.98201 7.30291,8.80893 14.03406,12.59727 24.0713,13.60126 0.74251,0.0744 2.55983,0.0636 4.66814,-0.006 2.87865,-0.0956 3.7913,-0.17541 5.52484,-0.46825 9.30161,-1.5471 18.24472,-5.29871 26.72241,-11.18938 8.53892,-5.94225 15.43056,-13.45184 19.90638,-21.69847 1.05818,-1.95436 3.12691,-7.07505 3.64128,-9.03613 1.84617,-7.00777 1.79974,-13.27165 -0.14382,-18.03619 -0.62215,-1.56429 -2.25693,-4.03599 -3.49488,-5.27026 -3.4201,-3.47728 -8.79929,-5.72559 -15.67653,-6.53733 -2.19013,-0.24922 -7.85201,-0.16027 -10.29864,0.181 z m -91.7609,17.89333 c 4.1739,0.74055 7.9314,2.6217 11.16321,5.58519 1.1533,1.05135 2.80413,2.80433 3.829,4.07043 1.28557,1.60416 7.49859,10.27595 7.44689,10.40148 -0.0826,0.20089 -12.00475,8.43471 -14.81816,10.24926 -8.91371,5.71942 -16.49501,9.40105 -22.92043,11.14982 -3.02983,0.81877 -4.72081,1.07304 -8.01842,1.18255 -2.56782,0.0853 -3.16047,0.0678 -4.39504,-0.13885 -7.35851,-1.22915 -11.20648,-5.86855 -10.7849,-12.97758 0.36573,-6.06707 3.17002,-11.90556 8.37668,-17.42759 5.97001,-6.33984 13.80147,-10.66128 21.84022,-12.05499 0.90313,-0.15381 2.04036,-0.22872 4.01154,-0.25704 2.30903,-0.0395 2.99946,-5.4e-4 4.26941,0.21732 z m 92.85027,-3.31844 c 4.18151,0.43074 7.29239,1.87523 9.41171,4.36798 3.94775,4.6237 3.27547,13.05357 -1.68282,20.82093 -5.04218,7.90634 -14.15878,14.47449 -23.30474,16.80888 -2.20181,0.55602 -4.05497,0.81567 -6.42006,0.89421 -4.18959,0.13912 -7.23423,-0.52748 -10.64632,-2.30869 -3.59214,-1.86192 -6.65507,-4.62047 -10.08054,-9.08816 -2.15225,-2.80122 -6.32431,-8.69285 -6.28731,-8.87981 0.0422,-0.19949 8.857,-6.42332 12.5486,-8.849 12.47414,-8.21505 21.32511,-12.26077 29.56895,-13.53749 1.84998,-0.2843 5.2557,-0.3974 6.89254,-0.22886 z"
         id="path1495"
         style="fill:#ffffff;fill-opacity:1;stroke:#797f82;stroke-width:2;stroke-miterlimit:4;stroke-dasharray:none;stroke-opacity:1"
         inkscape:export-xdpi="48"
         inkscape:export-ydpi="48" />
    </g>
    <g
       id="g3522">
      <path
         d="m -59.294671,-52.551688 c -0.25056,3.99525 1.71095,7.84496 6.210119,12.18555 1.090974,1.05698 1.913301,1.78503 3.978849,3.51729 1.474091,1.23359 1.654671,1.4149 1.564151,1.50051 -0.0599,0.0554 -0.840687,0.49492 -1.741661,0.98298 -10.441268,5.63889 -15.162968,9.35362 -17.453598,13.74286 -1.49328,2.86144 -1.72025,5.86715 -0.65755,8.63416 1.78543,4.6379899 7.06047,8.1448699 13.958592,9.2760599 1.541341,0.25564 2.382858,0.33101 4.283266,0.38415 3.016022,0.0843 5.599527,-0.12342 8.414312,-0.6772 7.839955,-1.53311 13.950942,-5.54596 16.395617,-10.7603999 1.524331,-3.2442 1.473111,-6.89017 -0.12845,-10.14918 -0.626867,-1.27731 -1.362851,-2.36066 -2.513285,-3.71481 -1.437151,-1.70432 -2.766495,-2.95979 -5.981507,-5.66773 -1.126194,-0.9439 -2.037458,-1.75221 -2.028698,-1.78825 0.01,-0.0412 0.604157,-0.3823 1.316034,-0.76158 1.592461,-0.84718 5.23411,-2.92276 6.680201,-3.80514 6.650444,-4.06517 9.921673,-7.19833 11.733734,-11.21213 0.13413,-0.29694 0.335097,-0.99638 0.530327,-1.79967 0.266547,-1.09679 0.318367,-1.43751 0.323607,-2.06466 0.044,-3.36853 -1.408051,-6.28639 -4.325276,-8.7216 -2.944242,-2.45153 -7.111628,-4.04554 -12.042121,-4.60331 -1.168784,-0.13117 -4.311666,-0.20349 -5.547147,-0.12397 -4.413926,0.28098 -8.553602,1.18654 -11.920914,2.61139 -1.103704,0.46165 -2.922302,1.44248 -3.878716,2.09488 -2.686765,1.81196 -4.786706,4.20541 -6.110026,6.9731 -0.41529,0.88008 -1.00494,3.05136 -1.05986,3.9467 z m 1.30233,32.85798 c 0.96675,-1.71488 2.638654,-3.4308 4.964729,-5.09731 0.825987,-0.59384 2.172058,-1.47901 3.125092,-2.05374 1.206004,-0.72318 7.641108,-4.34853 7.718048,-4.34638 0.1231,0.003 4.192476,3.43514 5.06796,4.26317 2.754255,2.62766 4.316096,5.03017 4.734533,7.26073 0.19346,1.05262 0.16765,1.66884 -0.137697,2.92526 -0.23777,0.97835 -0.31717,1.20943 -0.594937,1.71491 -1.653921,3.01248 -5.156703,5.1541499 -9.800606,5.9989699 -3.962566,0.71874 -7.495028,0.46442 -10.54351,-0.76134 -3.500842,-1.4043099 -5.456332,-3.8126399 -5.455682,-6.7157999 0.002,-0.32656 0.0827,-0.7546 0.28972,-1.5109 0.23833,-0.88503 0.34313,-1.15686 0.63235,-1.67757 z m 8.442311,-35.34358 c 0.763134,-1.67392 2.072768,-3.07854 3.960756,-4.24924 3.503852,-2.17794 8.990849,-3.11324 13.549755,-2.30146 4.641033,0.82444 7.932245,3.41008 8.425682,6.60701 0.114857,0.77048 0.074,1.44848 -0.14498,2.3496 -0.387937,1.59628 -1.176574,2.86511 -2.742935,4.43363 -1.640251,1.64939 -3.811749,3.22173 -7.152828,5.17611 -2.095348,1.22712 -6.461754,3.67126 -6.580914,3.68348 -0.12687,0.012 -3.225352,-2.50603 -4.403646,-3.5862 -3.993726,-3.64731 -5.650477,-6.48795 -5.549117,-9.4868 0.0242,-0.67328 0.339547,-1.9709 0.638227,-2.62613 z"
         id="path1591"
         style="fill:#ff6b23;fill-opacity:1;stroke:none;stroke-width:0.00631569" />
      <path
         d="m -65.644711,-52.551688 c -0.25056,3.99525 1.71095,7.84496 6.21014,12.18555 1.09098,1.05698 1.91331,1.78503 3.978864,3.51729 1.474091,1.23359 1.654671,1.4149 1.564151,1.50051 -0.0599,0.0554 -0.840687,0.49492 -1.741661,0.98298 -10.441304,5.63889 -15.163004,9.35362 -17.453634,13.74286 -1.49328,2.86144 -1.72025,5.86715 -0.65755,8.63416 1.78543,4.6379899 7.06047,8.1448699 13.95861,9.2760599 1.54135,0.25564 2.38287,0.33101 4.283284,0.38415 3.016022,0.0843 5.599527,-0.12342 8.414312,-0.6772 7.839955,-1.53311 13.950942,-5.54596 16.395617,-10.7603999 1.524331,-3.2442 1.473111,-6.89017 -0.12845,-10.14918 -0.626867,-1.27731 -1.362851,-2.36066 -2.513285,-3.71481 -1.437151,-1.70432 -2.766495,-2.95979 -5.981507,-5.66773 -1.126194,-0.9439 -2.037458,-1.75221 -2.028698,-1.78825 0.01,-0.0412 0.604157,-0.3823 1.316034,-0.76158 1.592461,-0.84718 5.23411,-2.92276 6.680201,-3.80514 6.650444,-4.06517 9.921673,-7.19833 11.733734,-11.21213 0.13413,-0.29694 0.335097,-0.99638 0.530327,-1.79967 0.266547,-1.09679 0.318367,-1.43751 0.323607,-2.06466 0.044,-3.36853 -1.408051,-6.28639 -4.325276,-8.7216 -2.944242,-2.45153 -7.111628,-4.04554 -12.042121,-4.60331 -1.168784,-0.13117 -4.311666,-0.20349 -5.547147,-0.12397 -4.413926,0.28098 -8.553602,1.18654 -11.920914,2.61139 -1.103704,0.46165 -2.922308,1.44248 -3.878728,2.09488 -2.68678,1.81196 -4.78673,4.20541 -6.11005,6.9731 -0.41529,0.88008 -1.00494,3.05136 -1.05986,3.9467 z m 1.30233,32.85798 c 0.96675,-1.71488 2.63866,-3.4308 4.96475,-5.09731 0.82599,-0.59384 2.17207,-1.47901 3.125107,-2.05374 1.206004,-0.72318 7.641108,-4.34853 7.718048,-4.34638 0.1231,0.003 4.192476,3.43514 5.06796,4.26317 2.754255,2.62766 4.316096,5.03017 4.734533,7.26073 0.19346,1.05262 0.16765,1.66884 -0.137697,2.92526 -0.23777,0.97835 -0.31717,1.20943 -0.594937,1.71491 -1.653921,3.01248 -5.156703,5.1541499 -9.800606,5.9989699 -3.962566,0.71874 -7.495028,0.46442 -10.543528,-0.76134 -3.50086,-1.4043099 -5.45635,-3.8126399 -5.4557,-6.7157999 0.002,-0.32656 0.0827,-0.7546 0.28972,-1.5109 0.23833,-0.88503 0.34313,-1.15686 0.63235,-1.67757 z m 8.442347,-35.34358 c 0.763134,-1.67392 2.072768,-3.07854 3.960756,-4.24924 3.503852,-2.17794 8.990849,-3.11324 13.549755,-2.30146 4.641033,0.82444 7.932245,3.41008 8.425682,6.60701 0.114857,0.77048 0.074,1.44848 -0.14498,2.3496 -0.387937,1.59628 -1.176574,2.86511 -2.742935,4.43363 -1.640251,1.64939 -3.811749,3.22173 -7.152828,5.17611 -2.095348,1.22712 -6.461754,3.67126 -6.580914,3.68348 -0.12687,0.012 -3.225352,-2.50603 -4.403646,-3.5862 -3.993726,-3.64731 -5.650477,-6.48795 -5.549117,-9.4868 0.0242,-0.67328 0.339547,-1.9709 0.638227,-2.62613 z"
         id="path1608"
         style="fill:#ffffff;fill-opacity:1;stroke:#797f82;stroke-width:1;stroke-miterlimit:4;stroke-dasharray:none;stroke-opacity:1" />
      <path
         d="m -65.644711,-52.551688 c -0.25056,3.99525 1.71095,7.84496 6.21014,12.18555 1.09098,1.05698 1.91331,1.78503 3.978864,3.51729 1.474091,1.23359 1.654671,1.4149 1.564151,1.50051 -0.0599,0.0554 -0.840687,0.49492 -1.741661,0.98298 -10.441304,5.63889 -15.163004,9.35362 -17.453634,13.74286 -1.49328,2.86144 -1.72025,5.86715 -0.65755,8.63416 1.78543,4.6379899 7.06047,8.1448699 13.95861,9.2760599 1.54135,0.25564 2.38287,0.33101 4.283284,0.38415 3.016022,0.0843 5.599527,-0.12342 8.414312,-0.6772 7.839955,-1.53311 13.950942,-5.54596 16.395617,-10.7603999 1.524331,-3.2442 1.473111,-6.89017 -0.12845,-10.14918 -0.626867,-1.27731 -1.362851,-2.36066 -2.513285,-3.71481 -1.437151,-1.70432 -2.766495,-2.95979 -5.981507,-5.66773 -1.126194,-0.9439 -2.037458,-1.75221 -2.028698,-1.78825 0.01,-0.0412 0.604157,-0.3823 1.316034,-0.76158 1.592461,-0.84718 5.23411,-2.92276 6.680201,-3.80514 6.650444,-4.06517 9.921673,-7.19833 11.733734,-11.21213 0.13413,-0.29694 0.335097,-0.99638 0.530327,-1.79967 0.266547,-1.09679 0.318367,-1.43751 0.323607,-2.06466 0.044,-3.36853 -1.408051,-6.28639 -4.325276,-8.7216 -2.944242,-2.45153 -7.111628,-4.04554 -12.042121,-4.60331 -1.168784,-0.13117 -4.311666,-0.20349 -5.547147,-0.12397 -4.413926,0.28098 -8.553602,1.18654 -11.920914,2.61139 -1.103704,0.46165 -2.922308,1.44248 -3.878728,2.09488 -2.68678,1.81196 -4.78673,4.20541 -6.11005,6.9731 -0.41529,0.88008 -1.00494,3.05136 -1.05986,3.9467 z m 1.30233,32.85798 c 0.96675,-1.71488 2.63866,-3.4308 4.96475,-5.09731 0.82599,-0.59384 2.17207,-1.47901 3.125107,-2.05374 1.206004,-0.72318 7.641108,-4.34853 7.718048,-4.34638 0.1231,0.003 4.192476,3.43514 5.06796,4.26317 2.754255,2.62766 4.316096,5.03017 4.734533,7.26073 0.19346,1.05262 0.16765,1.66884 -0.137697,2.92526 -0.23777,0.97835 -0.31717,1.20943 -0.594937,1.71491 -1.653921,3.01248 -5.156703,5.1541499 -9.800606,5.9989699 -3.962566,0.71874 -7.495028,0.46442 -10.543528,-0.76134 -3.50086,-1.4043099 -5.45635,-3.8126399 -5.4557,-6.7157999 0.002,-0.32656 0.0827,-0.7546 0.28972,-1.5109 0.23833,-0.88503 0.34313,-1.15686 0.63235,-1.67757 z m 8.442347,-35.34358 c 0.763134,-1.67392 2.072768,-3.07854 3.960756,-4.24924 3.503852,-2.17794 8.990849,-3.11324 13.549755,-2.30146 4.641033,0.82444 7.932245,3.41008 8.425682,6.60701 0.114857,0.77048 0.074,1.44848 -0.14498,2.3496 -0.387937,1.59628 -1.176574,2.86511 -2.742935,4.43363 -1.640251,1.64939 -3.811749,3.22173 -7.152828,5.17611 -2.095348,1.22712 -6.461754,3.67126 -6.580914,3.68348 -0.12687,0.012 -3.225352,-2.50603 -4.403646,-3.5862 -3.993726,-3.64731 -5.650477,-6.48795 -5.549117,-9.4868 0.0242,-0.67328 0.339547,-1.9709 0.638227,-2.62613 z"
         id="path1706"
         style="fill:#ffffff;fill-opacity:1;stroke:#797f82;stroke-width:1;stroke-miterlimit:4;stroke-dasharray:none;stroke-opacity:1" />
    </g>
    <g
       id="g3517">
      <g
         id="g3314"
         transform="translate(-55.051814,-375.61429)">
        <path
           d="m -97.257858,318.74744 c -0.250557,3.99525 1.710941,7.84496 6.210107,12.18555 1.090974,1.05698 1.913298,1.78503 3.978846,3.51729 1.474091,1.23359 1.654671,1.4149 1.564151,1.50051 -0.0599,0.0554 -0.840684,0.49492 -1.741661,0.98298 -10.44125,5.63889 -15.162935,9.35362 -17.453565,13.74286 -1.49328,2.86144 -1.72025,5.86715 -0.65755,8.63416 1.78543,4.63799 7.060458,8.14487 13.958559,9.27606 1.541341,0.25564 2.382858,0.33101 4.283266,0.38415 3.016022,0.0843 5.59953,-0.12342 8.414312,-0.6772 7.839955,-1.53311 13.950942,-5.54596 16.395617,-10.7604 1.524331,-3.2442 1.473111,-6.89017 -0.128447,-10.14918 -0.626867,-1.27731 -1.362854,-2.36066 -2.513288,-3.71481 -1.437151,-1.70432 -2.766495,-2.95979 -5.981504,-5.66773 -1.126194,-0.9439 -2.037461,-1.75221 -2.028701,-1.78825 0.01,-0.0412 0.604157,-0.3823 1.316034,-0.76158 1.592461,-0.84718 5.23411,-2.92276 6.680201,-3.80514 6.650444,-4.06517 9.921676,-7.19833 11.733734,-11.21213 0.13413,-0.29694 0.335097,-0.99638 0.530327,-1.79967 0.26655,-1.09679 0.31837,-1.43751 0.323607,-2.06466 0.044,-3.36853 -1.408051,-6.28639 -4.325273,-8.7216 -2.944245,-2.45153 -7.111631,-4.04554 -12.042124,-4.60331 -1.168781,-0.13117 -4.311663,-0.20349 -5.547147,-0.12397 -4.413926,0.28098 -8.553602,1.18654 -11.920914,2.61139 -1.103701,0.46165 -2.922302,1.44248 -3.878716,2.09488 -2.686765,1.81196 -4.786703,4.20541 -6.110017,6.9731 -0.415287,0.88008 -1.004934,3.05136 -1.059854,3.9467 z m 1.302324,32.85798 c 0.966744,-1.71488 2.638645,-3.4308 4.96472,-5.09731 0.825987,-0.59384 2.172058,-1.47901 3.125095,-2.05374 1.206001,-0.72318 7.641105,-4.34853 7.718045,-4.34638 0.1231,0.003 4.192476,3.43514 5.06796,4.26317 2.754255,2.62766 4.316096,5.03017 4.734533,7.26073 0.19346,1.05262 0.16765,1.66884 -0.137697,2.92526 -0.23777,0.97835 -0.31717,1.20943 -0.594937,1.71491 -1.653921,3.01248 -5.1567,5.15415 -9.800606,5.99897 -3.962566,0.71874 -7.495025,0.46442 -10.54351,-0.76134 -3.500839,-1.40431 -5.456317,-3.81264 -5.455667,-6.7158 0.002,-0.32656 0.0827,-0.7546 0.289717,-1.5109 0.23833,-0.88503 0.343127,-1.15686 0.632347,-1.67757 z m 8.442302,-35.34358 c 0.763134,-1.67392 2.072768,-3.07854 3.960756,-4.24924 3.503852,-2.17794 8.990849,-3.11324 13.549755,-2.30146 4.641033,0.82444 7.932245,3.41008 8.425682,6.60701 0.11486,0.77048 0.074,1.44848 -0.14498,2.3496 -0.387937,1.59628 -1.176574,2.86511 -2.742935,4.43363 -1.640251,1.64939 -3.811746,3.22173 -7.152828,5.17611 -2.095348,1.22712 -6.461754,3.67126 -6.580914,3.68348 -0.126867,0.012 -3.225352,-2.50603 -4.403643,-3.5862 -3.993729,-3.64731 -5.65048,-6.48795 -5.54912,-9.4868 0.0242,-0.67328 0.339547,-1.9709 0.638227,-2.62613 z"
           id="path1710"
           style="fill:#797f82;fill-opacity:0.375488;stroke:none;stroke-width:0.00631569" />
        <path
           d="m -79.916159,339.92568 c 1.698076,1.41058 4.192476,3.43514 5.06796,4.26317 2.754255,2.62766 4.316096,5.03017 4.734533,7.26073 0.19346,1.05262 0.16765,1.66884 -0.137697,2.92526 -0.23777,0.97835 -0.31717,1.20943 -0.594937,1.71491 -1.653921,3.01248 -5.156703,5.15415 -9.800606,5.99897 -3.962566,0.71874 -7.495028,0.46442 -10.543524,-0.76134 -3.50086,-1.40431 -5.456341,-3.81264 -5.455691,-6.7158 0.002,-0.32656 0.0827,-0.7546 0.28972,-1.5109 0.238327,-0.88503 0.343127,-1.15686 0.632344,-1.67757 0.38681,-0.68615 0.600677,-1.07794 1.209997,-1.76119 l -5.250843,-4.80219 c -1.909497,1.62825 -3.548597,3.46714 -4.703597,5.63459 -1.49328,2.86144 -1.72025,5.86715 -0.65755,8.63416 1.78543,4.63799 7.060458,8.14487 13.95858,9.27606 1.541346,0.25564 2.382866,0.33105 4.28328,0.38415 3.016022,0.0843 5.599527,-0.12342 8.414312,-0.6772 7.839955,-1.53311 13.950942,-5.54596 16.395617,-10.7604 1.524331,-3.2442 1.473111,-6.89017 -0.12845,-10.14918 -0.626867,-1.27731 -1.362851,-2.36066 -2.513285,-3.71481 -1.437151,-1.70432 -2.766495,-2.95979 -5.981507,-5.66773 -1.126194,-0.9439 -1.340435,-1.2061 -2.028698,-1.78825 -1.717685,-1.45286 -3.495261,-2.8334 -5.24098,-4.25246 -1.468955,-1.19408 -3.225352,-2.50603 -4.403646,-3.5862 -3.993726,-3.64731 -5.650477,-6.48795 -5.549117,-9.4868 0.0242,-0.67328 0.339547,-1.9709 0.638227,-2.62613 0.763134,-1.67392 2.072768,-3.07854 3.960756,-4.24924 3.503852,-2.17794 8.990849,-3.11324 13.549755,-2.30146 4.641033,0.82444 7.932245,3.41008 8.425682,6.60701 0.114857,0.77048 0.07401,1.44848 -0.14498,2.3496 -0.194571,0.80062 -0.489941,1.51887 -0.933679,2.23387 l 5.600942,4.67856 v 0 c 2.036643,-1.88585 2.874806,-3.03643 3.827009,-5.1456 0.13413,-0.29694 0.335097,-0.99638 0.530327,-1.79967 0.266547,-1.09679 0.318407,-1.43751 0.323607,-2.06466 0.044,-3.36853 -1.408051,-6.28639 -4.325276,-8.7216 -2.944242,-2.45153 -7.111628,-4.04554 -12.042121,-4.60331 -1.168784,-0.13097 -4.311666,-0.20347 -5.547147,-0.12397 -4.413926,0.28098 -8.553602,1.18654 -11.920914,2.61139 -1.103704,0.46165 -2.922308,1.44248 -3.878728,2.09488 -2.686776,1.81196 -4.786726,4.20541 -6.11004,6.9731 -0.415287,0.88008 -1.004954,3.05136 -1.059854,3.9467 -0.25056,3.99525 1.710941,7.84496 6.210128,12.18555 1.090976,1.05698 2.626944,2.37451 3.97886,3.51729 0.527393,0.44581 1.075869,0.86607 1.611398,1.30207 1.775283,1.44535 3.548901,2.89284 5.309833,4.35564 z"
           id="path1704"
           style="fill:#f1c40f;fill-opacity:1;stroke:none;stroke-width:1;stroke-miterlimit:4;stroke-dasharray:none;stroke-opacity:1"
           sodipodi:nodetypes="accccccccccccscccccsccscccccccccccaacccccccsaaa" />
        <path
           d="m -102.02037,318.74744 c -0.25056,3.99525 1.71095,7.84496 6.210116,12.18555 1.090974,1.05698 1.913298,1.78503 3.978846,3.51729 1.474091,1.23359 1.654671,1.4149 1.564151,1.50051 -0.0599,0.0554 -0.840684,0.49492 -1.741661,0.98298 -10.441262,5.63889 -15.162962,9.35362 -17.453592,13.74286 -1.49328,2.86144 -1.72025,5.86715 -0.65755,8.63416 1.78543,4.63799 7.06047,8.14487 13.958586,9.27606 1.541341,0.25564 2.382858,0.33101 4.283266,0.38415 3.016022,0.0843 5.59953,-0.12342 8.414312,-0.6772 7.839955,-1.53311 13.950942,-5.54596 16.395617,-10.7604 1.524331,-3.2442 1.473111,-6.89017 -0.128447,-10.14918 -0.626867,-1.27731 -1.362854,-2.36066 -2.513288,-3.71481 -1.437151,-1.70432 -2.766495,-2.95979 -5.981504,-5.66773 -1.126194,-0.9439 -2.037461,-1.75221 -2.028701,-1.78825 0.01,-0.0412 0.604157,-0.3823 1.316034,-0.76158 1.592461,-0.84718 5.23411,-2.92276 6.680201,-3.80514 6.650444,-4.06517 9.921676,-7.19833 11.733734,-11.21213 0.13413,-0.29694 0.335097,-0.99638 0.530327,-1.79967 0.26655,-1.09679 0.31837,-1.43751 0.323607,-2.06466 0.044,-3.36853 -1.408051,-6.28639 -4.325273,-8.7216 -2.944245,-2.45153 -7.111631,-4.04554 -12.042124,-4.60331 -1.168781,-0.13117 -4.311663,-0.20349 -5.547147,-0.12397 -4.413926,0.28098 -8.553602,1.18654 -11.920914,2.61139 -1.103701,0.46165 -2.922302,1.44248 -3.878716,2.09488 -2.686765,1.81196 -4.786703,4.20541 -6.11002,6.9731 -0.41529,0.88008 -1.00494,3.05136 -1.05986,3.9467 z m 1.30233,32.85798 c 0.966747,-1.71488 2.638648,-3.4308 4.964723,-5.09731 0.825987,-0.59384 2.172058,-1.47901 3.125095,-2.05374 1.206001,-0.72318 7.641105,-4.34853 7.718045,-4.34638 0.1231,0.003 4.192476,3.43514 5.06796,4.26317 2.754255,2.62766 4.316096,5.03017 4.734533,7.26073 0.19346,1.05262 0.16765,1.66884 -0.137697,2.92526 -0.23777,0.97835 -0.31717,1.20943 -0.594937,1.71491 -1.653921,3.01248 -5.1567,5.15415 -9.800606,5.99897 -3.962566,0.71874 -7.495025,0.46442 -10.54351,-0.76134 -3.500839,-1.40431 -5.456326,-3.81264 -5.455676,-6.7158 0.002,-0.32656 0.0827,-0.7546 0.28972,-1.5109 0.23833,-0.88503 0.34313,-1.15686 0.63235,-1.67757 z m 8.442305,-35.34358 c 0.763134,-1.67392 2.072768,-3.07854 3.960756,-4.24924 3.503852,-2.17794 8.990849,-3.11324 13.549755,-2.30146 4.641033,0.82444 7.932245,3.41008 8.425682,6.60701 0.11486,0.77048 0.074,1.44848 -0.14498,2.3496 -0.387937,1.59628 -1.176574,2.86511 -2.742935,4.43363 -1.640251,1.64939 -3.811746,3.22173 -7.152828,5.17611 -2.095348,1.22712 -6.461754,3.67126 -6.580914,3.68348 -0.126867,0.012 -3.225352,-2.50603 -4.403643,-3.5862 -3.993729,-3.64731 -5.65048,-6.48795 -5.54912,-9.4868 0.0242,-0.67328 0.339547,-1.9709 0.638227,-2.62613 z"
           id="path1708"
           style="fill:#ff6b23;fill-opacity:0.0711346;stroke:none;stroke-width:0.00631569" />
        <path
           d="m -84.678662,339.92568 c 1.698076,1.41058 4.192476,3.43514 5.06796,4.26317 2.754255,2.62766 4.316096,5.03017 4.734533,7.26073 0.19346,1.05262 0.16765,1.66884 -0.137697,2.92526 -0.23777,0.97835 -0.31717,1.20943 -0.594937,1.71491 -1.653921,3.01248 -5.156703,5.15415 -9.800606,5.99897 -3.962566,0.71874 -7.495028,0.46442 -10.543524,-0.76134 -3.50086,-1.40431 -5.456347,-3.81264 -5.455697,-6.7158 0.002,-0.32656 0.0827,-0.7546 0.28972,-1.5109 0.23833,-0.88503 0.34313,-1.15686 0.63235,-1.67757 0.38681,-0.68615 0.600677,-1.07794 1.209997,-1.76119 l -5.250867,-4.80219 c -1.9095,1.62825 -3.5486,3.46714 -4.7036,5.63459 -1.49328,2.86144 -1.72025,5.86715 -0.65755,8.63416 1.78543,4.63799 7.06047,8.14487 13.958607,9.27606 1.541346,0.25564 2.382866,0.33105 4.28328,0.38415 3.016022,0.0843 5.599527,-0.12342 8.414312,-0.6772 7.839955,-1.53311 13.950942,-5.54596 16.395617,-10.7604 1.524331,-3.2442 1.473111,-6.89017 -0.12845,-10.14918 -0.626867,-1.27731 -1.362851,-2.36066 -2.513285,-3.71481 -1.437151,-1.70432 -2.766495,-2.95979 -5.981507,-5.66773 -1.126194,-0.9439 -1.340435,-1.2061 -2.028698,-1.78825 -1.717685,-1.45286 -3.495261,-2.8334 -5.24098,-4.25246 -1.468955,-1.19408 -3.225352,-2.50603 -4.403646,-3.5862 -3.993726,-3.64731 -5.650477,-6.48795 -5.549117,-9.4868 0.0242,-0.67328 0.339547,-1.9709 0.638227,-2.62613 0.763134,-1.67392 2.072768,-3.07854 3.960756,-4.24924 3.503852,-2.17794 8.990849,-3.11324 13.549755,-2.30146 4.641033,0.82444 7.932245,3.41008 8.425682,6.60701 0.114857,0.77048 0.07401,1.44848 -0.14498,2.3496 -0.194571,0.80062 -0.489941,1.51887 -0.933679,2.23387 l 5.600942,4.67856 v 0 c 2.036643,-1.88585 2.874806,-3.03643 3.827009,-5.1456 0.13413,-0.29694 0.335097,-0.99638 0.530327,-1.79967 0.266547,-1.09679 0.318407,-1.43751 0.323607,-2.06466 0.044,-3.36853 -1.408051,-6.28639 -4.325276,-8.7216 -2.944242,-2.45153 -7.111628,-4.04554 -12.042121,-4.60331 -1.168784,-0.13097 -4.311666,-0.20347 -5.547147,-0.12397 -4.413926,0.28098 -8.553602,1.18654 -11.920914,2.61139 -1.103704,0.46165 -2.922308,1.44248 -3.878728,2.09488 -2.686776,1.81196 -4.786726,4.20541 -6.110043,6.9731 -0.41529,0.88008 -1.00496,3.05136 -1.05986,3.9467 -0.25056,3.99525 1.71095,7.84496 6.210137,12.18555 1.090976,1.05698 2.626944,2.37451 3.97886,3.51729 0.527393,0.44581 1.075869,0.86607 1.611398,1.30207 1.775283,1.44535 3.548901,2.89284 5.309833,4.35564 z"
           id="path1702"
           style="fill:#2980b9;fill-opacity:1;stroke:none;stroke-width:1;stroke-miterlimit:4;stroke-dasharray:none;stroke-opacity:1"
           sodipodi:nodetypes="accccccccccccscccccsccscccccccccccaacccccccsaaa" />
        <path
           d="m -107.31207,318.74744 c -0.25056,3.99525 1.71095,7.84496 6.21014,12.18555 1.09098,1.05698 1.913304,1.78503 3.978852,3.51729 1.474091,1.23359 1.654671,1.4149 1.564151,1.50051 -0.0599,0.0554 -0.840684,0.49492 -1.741661,0.98298 -10.441292,5.63889 -15.162992,9.35362 -17.453622,13.74286 -1.49328,2.86144 -1.72025,5.86715 -0.65755,8.63416 1.78543,4.63799 7.06047,8.14487 13.95861,9.27606 1.541347,0.25564 2.382864,0.33101 4.283272,0.38415 3.016022,0.0843 5.59953,-0.12342 8.414312,-0.6772 7.839955,-1.53311 13.950942,-5.54596 16.395617,-10.7604 1.524331,-3.2442 1.473111,-6.89017 -0.128447,-10.14918 -0.626867,-1.27731 -1.362854,-2.36066 -2.513288,-3.71481 -1.437151,-1.70432 -2.766495,-2.95979 -5.981504,-5.66773 -1.126194,-0.9439 -2.037461,-1.75221 -2.028701,-1.78825 0.01,-0.0412 0.604157,-0.3823 1.316034,-0.76158 1.592461,-0.84718 5.23411,-2.92276 6.680201,-3.80514 6.650444,-4.06517 9.921676,-7.19833 11.733734,-11.21213 0.13413,-0.29694 0.335097,-0.99638 0.530327,-1.79967 0.26655,-1.09679 0.31837,-1.43751 0.323607,-2.06466 0.044,-3.36853 -1.408051,-6.28639 -4.325273,-8.7216 -2.944245,-2.45153 -7.111631,-4.04554 -12.042124,-4.60331 -1.168781,-0.13117 -4.311663,-0.20349 -5.547147,-0.12397 -4.413926,0.28098 -8.553602,1.18654 -11.920914,2.61139 -1.103701,0.46165 -2.922302,1.44248 -3.878716,2.09488 -2.68678,1.81196 -4.78673,4.20541 -6.11005,6.9731 -0.41529,0.88008 -1.00494,3.05136 -1.05986,3.9467 z m 1.30233,32.85798 c 0.96675,-1.71488 2.63866,-3.4308 4.96475,-5.09731 0.82599,-0.59384 2.172061,-1.47901 3.125098,-2.05374 1.206001,-0.72318 7.641105,-4.34853 7.718045,-4.34638 0.1231,0.003 4.192476,3.43514 5.06796,4.26317 2.754255,2.62766 4.316096,5.03017 4.734533,7.26073 0.19346,1.05262 0.16765,1.66884 -0.137697,2.92526 -0.23777,0.97835 -0.31717,1.20943 -0.594937,1.71491 -1.653921,3.01248 -5.1567,5.15415 -9.800606,5.99897 -3.962566,0.71874 -7.495025,0.46442 -10.543516,-0.76134 -3.50086,-1.40431 -5.45635,-3.81264 -5.4557,-6.7158 0.002,-0.32656 0.0827,-0.7546 0.28972,-1.5109 0.23833,-0.88503 0.34313,-1.15686 0.63235,-1.67757 z m 8.442335,-35.34358 c 0.763134,-1.67392 2.072768,-3.07854 3.960756,-4.24924 3.503852,-2.17794 8.990849,-3.11324 13.549755,-2.30146 4.641033,0.82444 7.932245,3.41008 8.425682,6.60701 0.11486,0.77048 0.074,1.44848 -0.14498,2.3496 -0.387937,1.59628 -1.176574,2.86511 -2.742935,4.43363 -1.640251,1.64939 -3.811746,3.22173 -7.152828,5.17611 -2.095348,1.22712 -6.461754,3.67126 -6.580914,3.68348 -0.126867,0.012 -3.225352,-2.50603 -4.403643,-3.5862 -3.993729,-3.64731 -5.65048,-6.48795 -5.54912,-9.4868 0.0242,-0.67328 0.339547,-1.9709 0.638227,-2.62613 z"
           id="path1603"
           style="fill:#797f82;fill-opacity:0.0601558;stroke:none;stroke-width:0.00631569" />
        <path
           d="m -89.970329,339.92568 c 1.698076,1.41058 4.192476,3.43514 5.06796,4.26317 2.754255,2.62766 4.316096,5.03017 4.734533,7.26073 0.19346,1.05262 0.16765,1.66884 -0.137697,2.92526 -0.23777,0.97835 -0.31717,1.20943 -0.594937,1.71491 -1.653921,3.01248 -5.156703,5.15415 -9.800606,5.99897 -3.962566,0.71874 -7.495028,0.46442 -10.543524,-0.76134 -3.50086,-1.40431 -5.45635,-3.81264 -5.4557,-6.7158 0.002,-0.32656 0.0827,-0.7546 0.28972,-1.5109 0.23833,-0.88503 0.34313,-1.15686 0.63235,-1.67757 0.38681,-0.68615 0.60068,-1.07794 1.21,-1.76119 l -5.25087,-4.80219 c -1.9095,1.62825 -3.5486,3.46714 -4.7036,5.63459 -1.49328,2.86144 -1.72025,5.86715 -0.65755,8.63416 1.78543,4.63799 7.06047,8.14487 13.95861,9.27606 1.541346,0.25564 2.382866,0.33105 4.28328,0.38415 3.016022,0.0843 5.599527,-0.12342 8.414312,-0.6772 7.839955,-1.53311 13.950942,-5.54596 16.395617,-10.7604 1.524331,-3.2442 1.473111,-6.89017 -0.12845,-10.14918 -0.626867,-1.27731 -1.362851,-2.36066 -2.513285,-3.71481 -1.437151,-1.70432 -2.766495,-2.95979 -5.981507,-5.66773 -1.126194,-0.9439 -1.340435,-1.2061 -2.028698,-1.78825 -1.717685,-1.45286 -3.495261,-2.8334 -5.24098,-4.25246 -1.468955,-1.19408 -3.225352,-2.50603 -4.403646,-3.5862 -3.993726,-3.64731 -5.650477,-6.48795 -5.549117,-9.4868 0.0242,-0.67328 0.339547,-1.9709 0.638227,-2.62613 0.763134,-1.67392 2.072768,-3.07854 3.960756,-4.24924 3.503852,-2.17794 8.990849,-3.11324 13.549755,-2.30146 4.641033,0.82444 7.932245,3.41008 8.425682,6.60701 0.114857,0.77048 0.07401,1.44848 -0.14498,2.3496 -0.194571,0.80062 -0.489941,1.51887 -0.933679,2.23387 l 5.600942,4.67856 v 0 c 2.036643,-1.88585 2.874806,-3.03643 3.827009,-5.1456 0.13413,-0.29694 0.335097,-0.99638 0.530327,-1.79967 0.266547,-1.09679 0.318407,-1.43751 0.323607,-2.06466 0.044,-3.36853 -1.408051,-6.28639 -4.325276,-8.7216 -2.944242,-2.45153 -7.111628,-4.04554 -12.042121,-4.60331 -1.168784,-0.13097 -4.311666,-0.20347 -5.547147,-0.12397 -4.413926,0.28098 -8.553602,1.18654 -11.920914,2.61139 -1.103704,0.46165 -2.922308,1.44248 -3.878728,2.09488 -2.686776,1.81196 -4.786726,4.20541 -6.110046,6.9731 -0.41529,0.88008 -1.00496,3.05136 -1.05986,3.9467 -0.25056,3.99525 1.71095,7.84496 6.21014,12.18555 1.090976,1.05698 2.626944,2.37451 3.97886,3.51729 0.527393,0.44581 1.075869,0.86607 1.611398,1.30207 1.775283,1.44535 3.548901,2.89284 5.309833,4.35564 z"
           id="path1646"
           style="fill:#e67e22;fill-opacity:1;stroke:#797f82;stroke-width:1;stroke-miterlimit:4;stroke-dasharray:none;stroke-opacity:1"
           sodipodi:nodetypes="accccccccccccscccccsccscccccccccccaacccccccsaaa" />
        <path
           style="fill:none;stroke:#797f82;stroke-width:1;stroke-linecap:butt;stroke-linejoin:miter;stroke-miterlimit:4;stroke-dasharray:none;stroke-opacity:1"
           d="m -94.214348,336.43038 0.29023,-4.50541 5.366678,-0.45132"
           id="path1877"
           sodipodi:nodetypes="ccc" />
        <path
           style="fill:none;stroke:#000000;stroke-width:0.264583px;stroke-linecap:butt;stroke-linejoin:miter;stroke-opacity:1"
           d="M -96.040783,330.33747 Z"
           id="path1879" />
        <path
           style="fill:none;stroke:#797f82;stroke-width:0.841449;stroke-linecap:butt;stroke-linejoin:miter;stroke-miterlimit:4;stroke-dasharray:none;stroke-opacity:1"
           d="m -92.560324,304.0343 2.735954,2.37575 -2.052668,4.44097"
           id="path1881"
           sodipodi:nodetypes="ccc" />
        <path
           style="fill:none;stroke:#797f82;stroke-width:0.82884;stroke-linecap:butt;stroke-linejoin:miter;stroke-miterlimit:4;stroke-dasharray:none;stroke-opacity:1"
           d="m -91.530227,362.23329 2.890646,2.18173 -2.168727,4.07828"
           id="path1883"
           sodipodi:nodetypes="ccc" />
      </g>
    </g>
    <g
       id="g3559"
       transform="translate(683.07569,-73.232198)">
      <text
         xml:space="preserve"
         style="font-style:normal;font-weight:normal;font-size:256.202px;line-height:1.25;font-family:sans-serif;letter-spacing:0px;word-spacing:0px;fill:#a3cb38;fill-opacity:1;stroke:none;stroke-width:19.2153"
         x="139.47345"
         y="174.33795"
         id="text2636"
         transform="scale(0.71115845,1.4061564)"><tspan
           sodipodi:role="line"
           id="tspan2634"
           x="139.47345"
           y="174.33795"
           style="font-style:normal;font-variant:normal;font-weight:600;font-stretch:normal;font-family:Inter;-inkscape-font-specification:'Inter Semi-Bold';fill:#a3cb38;fill-opacity:1;stroke-width:19.2153">&gt;</tspan></text>
      <text
         xml:space="preserve"
         style="font-style:normal;font-weight:normal;font-size:256.202px;line-height:1.25;font-family:sans-serif;letter-spacing:0px;word-spacing:0px;fill:#0652dd;fill-opacity:1;stroke:none;stroke-width:19.2153"
         x="61.715919"
         y="174.33795"
         id="text2640"
         transform="scale(0.71115845,1.4061564)"><tspan
           sodipodi:role="line"
           id="tspan2638"
           x="61.715919"
           y="174.33795"
           style="font-style:normal;font-variant:normal;font-weight:600;font-stretch:normal;font-family:Inter;-inkscape-font-specification:'Inter Semi-Bold';fill:#0652dd;fill-opacity:1;stroke-width:19.2153">&gt;</tspan></text>
      <text
         xml:space="preserve"
         style="font-style:normal;font-weight:normal;font-size:256.202px;line-height:1.25;font-family:sans-serif;letter-spacing:0px;word-spacing:0px;fill:#f79f1f;fill-opacity:1;stroke:none;stroke-width:19.2153"
         x="-16.041588"
         y="174.33795"
         id="text1919"
         transform="scale(0.71115845,1.4061564)"><tspan
           sodipodi:role="line"
           id="tspan1917"
           x="-16.041588"
           y="174.33795"
           style="font-style:normal;font-variant:normal;font-weight:600;font-stretch:normal;font-family:Inter;-inkscape-font-specification:'Inter Semi-Bold';fill:#f79f1f;fill-opacity:1;stroke-width:19.2153">&gt;</tspan></text>
    </g>
    <g
       id="g3380"
       transform="translate(-87.940335,278.2338)">
      <text
         xml:space="preserve"
         style="font-style:normal;font-weight:normal;font-size:256.202px;line-height:1.25;font-family:sans-serif;letter-spacing:0px;word-spacing:0px;fill:#797e82;fill-opacity:1;stroke:none;stroke-width:19.2153"
         x="139.47345"
         y="174.33795"
         id="text2636-1"
         transform="scale(0.71115845,1.4061564)"><tspan
           sodipodi:role="line"
           id="tspan2634-7"
           x="139.47345"
           y="174.33795"
           style="font-style:normal;font-variant:normal;font-weight:600;font-stretch:normal;font-family:Inter;-inkscape-font-specification:'Inter Semi-Bold';fill:#797e82;fill-opacity:1;stroke-width:19.2153">&gt;</tspan></text>
      <text
         xml:space="preserve"
         style="font-style:normal;font-weight:normal;font-size:256.202px;line-height:1.25;font-family:sans-serif;letter-spacing:0px;word-spacing:0px;fill:#ff6b23;fill-opacity:1;stroke:none;stroke-width:19.2153"
         x="61.715919"
         y="174.33795"
         id="text2640-7"
         transform="scale(0.71115845,1.4061564)"><tspan
           sodipodi:role="line"
           id="tspan2638-9"
           x="61.715919"
           y="174.33795"
           style="font-style:normal;font-variant:normal;font-weight:600;font-stretch:normal;font-family:Inter;-inkscape-font-specification:'Inter Semi-Bold';fill:#ff6b23;fill-opacity:1;stroke-width:19.2153">&gt;</tspan></text>
      <text
         xml:space="preserve"
         style="font-style:normal;font-weight:normal;font-size:256.202px;line-height:1.25;font-family:sans-serif;letter-spacing:0px;word-spacing:0px;fill:none;fill-opacity:1;stroke:#797f82;stroke-width:2;stroke-miterlimit:4;stroke-dasharray:none;stroke-opacity:1"
         x="-16.041588"
         y="174.33795"
         id="text1919-4"
         transform="scale(0.71115845,1.4061564)"><tspan
           sodipodi:role="line"
           id="tspan1917-0"
           x="-16.041588"
           y="174.33795"
           style="font-style:normal;font-variant:normal;font-weight:600;font-stretch:normal;font-family:Inter;-inkscape-font-specification:'Inter Semi-Bold';fill:none;fill-opacity:1;stroke:#797f82;stroke-width:2;stroke-miterlimit:4;stroke-dasharray:none;stroke-opacity:1">&gt;</tspan></text>
    </g>
    <g
       id="g3451"
       transform="translate(153.83613,284.00795)">
      <text
         xml:space="preserve"
         style="font-style:normal;font-weight:normal;font-size:256.202px;line-height:1.25;font-family:sans-serif;letter-spacing:0px;word-spacing:0px;fill:#a3cb38;fill-opacity:1;stroke:none;stroke-width:19.2153"
         x="100.03641"
         y="174.33795"
         id="text2636-8"
         transform="scale(0.71115845,1.4061564)"><tspan
           sodipodi:role="line"
           id="tspan2634-75"
           x="100.03641"
           y="174.33795"
           style="font-style:normal;font-variant:normal;font-weight:600;font-stretch:normal;font-family:Inter;-inkscape-font-specification:'Inter Semi-Bold';fill:#a3cb38;fill-opacity:1;stroke-width:19.2153">&gt;</tspan></text>
      <text
         xml:space="preserve"
         style="font-style:normal;font-weight:normal;font-size:256.202px;line-height:1.25;font-family:sans-serif;letter-spacing:0px;word-spacing:0px;fill:#0652dd;fill-opacity:1;stroke:none;stroke-width:19.2153"
         x="41.997406"
         y="174.33795"
         id="text2640-4"
         transform="scale(0.71115845,1.4061564)"><tspan
           sodipodi:role="line"
           id="tspan2638-0"
           x="41.997406"
           y="174.33795"
           style="font-style:normal;font-variant:normal;font-weight:600;font-stretch:normal;font-family:Inter;-inkscape-font-specification:'Inter Semi-Bold';fill:#0652dd;fill-opacity:1;stroke-width:19.2153">&gt;</tspan></text>
      <text
         xml:space="preserve"
         style="font-style:normal;font-weight:normal;font-size:256.202px;line-height:1.25;font-family:sans-serif;letter-spacing:0px;word-spacing:0px;fill:#f79f1f;fill-opacity:1;stroke:none;stroke-width:19.2153"
         x="-16.041588"
         y="174.33795"
         id="text1919-9"
         transform="scale(0.71115845,1.4061564)"><tspan
           sodipodi:role="line"
           id="tspan1917-2"
           x="-16.041588"
           y="174.33795"
           style="font-style:normal;font-variant:normal;font-weight:600;font-stretch:normal;font-family:Inter;-inkscape-font-specification:'Inter Semi-Bold';fill:#f79f1f;fill-opacity:1;stroke-width:19.2153">&gt;</tspan></text>
    </g>
    <g
       id="g3573"
       transform="matrix(1.2544265,0,0,1.2544265,37.28989,287.05155)">
      <text
         xml:space="preserve"
         style="font-style:normal;font-weight:normal;font-size:256.202px;line-height:1.25;font-family:sans-serif;letter-spacing:0px;word-spacing:0px;fill:#a3cb38;fill-opacity:1;stroke:none;stroke-width:19.2153"
         x="324.94043"
         y="336.83606"
         id="text3526"
         transform="matrix(0.54002463,-0.46273072,0.91494627,1.0677777,0,0)"><tspan
           sodipodi:role="line"
           id="tspan3524"
           x="324.94043"
           y="336.83606"
           style="font-style:normal;font-variant:normal;font-weight:600;font-stretch:normal;font-family:Inter;-inkscape-font-specification:'Inter Semi-Bold';fill:#a3cb38;fill-opacity:1;stroke-width:19.2153">&gt;</tspan></text>
      <text
         xml:space="preserve"
         style="font-style:normal;font-weight:normal;font-size:256.202px;line-height:1.25;font-family:sans-serif;letter-spacing:0px;word-spacing:0px;fill:#0652dd;fill-opacity:1;stroke:none;stroke-width:19.2153"
         x="266.90143"
         y="336.83606"
         id="text3530"
         transform="matrix(0.54002463,-0.46273072,0.91494627,1.0677777,0,0)"><tspan
           sodipodi:role="line"
           id="tspan3528"
           x="266.90143"
           y="336.83606"
           style="font-style:normal;font-variant:normal;font-weight:600;font-stretch:normal;font-family:Inter;-inkscape-font-specification:'Inter Semi-Bold';fill:#0652dd;fill-opacity:1;stroke-width:19.2153">&gt;</tspan></text>
      <text
         xml:space="preserve"
         style="font-style:normal;font-weight:normal;font-size:256.202px;line-height:1.25;font-family:sans-serif;letter-spacing:0px;word-spacing:0px;fill:#f79f1f;fill-opacity:1;stroke:none;stroke-width:19.2153"
         x="208.86243"
         y="336.83606"
         id="text3534"
         transform="matrix(0.54002463,-0.46273072,0.91494627,1.0677777,0,0)"><tspan
           sodipodi:role="line"
           id="tspan3532"
           x="208.86243"
           y="336.83606"
           style="font-style:normal;font-variant:normal;font-weight:600;font-stretch:normal;font-family:Inter;-inkscape-font-specification:'Inter Semi-Bold';fill:#f79f1f;fill-opacity:1;stroke-width:19.2153">&gt;</tspan></text>
    </g>
    <g
       id="g1071"
       transform="matrix(1.0719427,-0.90927032,0.90927032,1.0719427,-571.87726,328.38157)">
      <text
         xml:space="preserve"
         style="font-style:normal;font-weight:normal;font-size:256.202px;line-height:1.25;font-family:sans-serif;letter-spacing:0px;word-spacing:0px;fill:#a3cb38;fill-opacity:1;stroke:none;stroke-width:19.2153"
         x="906.79321"
         y="317.59979"
         id="text1047"
         transform="scale(0.71115845,1.4061564)"><tspan
           sodipodi:role="line"
           id="tspan1045"
           x="906.79321"
           y="317.59979"
           style="font-style:normal;font-variant:normal;font-weight:600;font-stretch:normal;font-family:Inter;-inkscape-font-specification:'Inter Semi-Bold';fill:#a3cb38;fill-opacity:1;stroke-width:19.2153">&gt;</tspan></text>
      <text
         xml:space="preserve"
         style="font-style:normal;font-weight:normal;font-size:256.202px;line-height:1.25;font-family:sans-serif;letter-spacing:0px;word-spacing:0px;fill:#0652dd;fill-opacity:1;stroke:none;stroke-width:19.2153"
         x="869.96008"
         y="317.59979"
         id="text1051"
         transform="scale(0.71115845,1.4061564)"><tspan
           sodipodi:role="line"
           id="tspan1049"
           x="869.96008"
           y="317.59979"
           style="font-style:normal;font-variant:normal;font-weight:600;font-stretch:normal;font-family:Inter;-inkscape-font-specification:'Inter Semi-Bold';fill:#0652dd;fill-opacity:1;stroke-width:19.2153">&gt;</tspan></text>
      <text
         xml:space="preserve"
         style="font-style:normal;font-weight:normal;font-size:256.202px;line-height:1.25;font-family:sans-serif;letter-spacing:0px;word-spacing:0px;fill:#f79f1f;fill-opacity:1;stroke:none;stroke-width:19.2153"
         x="833.12695"
         y="317.59979"
         id="text1055"
         transform="scale(0.71115845,1.4061564)"><tspan
           sodipodi:role="line"
           id="tspan1053"
           x="833.12695"
           y="317.59979"
           style="font-style:normal;font-variant:normal;font-weight:600;font-stretch:normal;font-family:Inter;-inkscape-font-specification:'Inter Semi-Bold';fill:#f79f1f;fill-opacity:1;stroke-width:19.2153">&gt;</tspan></text>
    </g>
    <g
       id="g1085"
       transform="translate(200.2474,0.23690313)">
      <text
         xml:space="preserve"
         style="font-style:normal;font-weight:normal;font-size:256.202px;line-height:1.25;font-family:sans-serif;letter-spacing:0px;word-spacing:0px;fill:#a3cb38;fill-opacity:1;stroke:none;stroke-width:19.2153"
         x="906.79321"
         y="317.59979"
         id="text1075"
         transform="scale(0.71115845,1.4061564)"><tspan
           sodipodi:role="line"
           id="tspan1073"
           x="906.79321"
           y="317.59979"
           style="font-style:normal;font-variant:normal;font-weight:600;font-stretch:normal;font-family:Inter;-inkscape-font-specification:'Inter Semi-Bold';fill:#a3cb38;fill-opacity:1;stroke-width:19.2153">&gt;</tspan></text>
      <text
         xml:space="preserve"
         style="font-style:normal;font-weight:normal;font-size:256.202px;line-height:1.25;font-family:sans-serif;letter-spacing:0px;word-spacing:0px;fill:#0652dd;fill-opacity:1;stroke:none;stroke-width:19.2153"
         x="869.96008"
         y="317.59979"
         id="text1079"
         transform="scale(0.71115845,1.4061564)"><tspan
           sodipodi:role="line"
           id="tspan1077"
           x="869.96008"
           y="317.59979"
           style="font-style:normal;font-variant:normal;font-weight:600;font-stretch:normal;font-family:Inter;-inkscape-font-specification:'Inter Semi-Bold';fill:#0652dd;fill-opacity:1;stroke-width:19.2153">&gt;</tspan></text>
      <text
         xml:space="preserve"
         style="font-style:normal;font-weight:normal;font-size:256.202px;line-height:1.25;font-family:sans-serif;letter-spacing:0px;word-spacing:0px;fill:#f79f1f;fill-opacity:1;stroke:none;stroke-width:19.2153"
         x="833.12695"
         y="317.59979"
         id="text1083"
         transform="scale(0.71115845,1.4061564)"><tspan
           sodipodi:role="line"
           id="tspan1081"
           x="833.12695"
           y="317.59979"
           style="font-style:normal;font-variant:normal;font-weight:600;font-stretch:normal;font-family:Inter;-inkscape-font-specification:'Inter Semi-Bold';fill:#f79f1f;fill-opacity:1;stroke-width:19.2153">&gt;</tspan></text>
    </g>
  </g>
</svg>
