<svg xmlns="http://www.w3.org/2000/svg" viewBox="0 0 962.16 206.107" height="206.107" width="962.16"><path d="M3.567 205.543H13.4c4.603 0 7.17-3.007 7.17-6.231 0-2.35-1.377-4.574-4.07-5.324 2.192-.753 3.32-2.913 3.32-5.01 0-2.631-1.878-5.355-5.887-5.355H3.567zm9.456-18.132c1.879 0 2.756 1.066 2.756 2.38 0 1.41-1 2.661-3.037 2.661H7.575v-5.041zm.22 8.329c2.192 0 3.319 1.379 3.319 2.914 0 1.566-1.127 3.1-3.54 3.1H7.576v-6.014zm18.349-2.443l-5.26-9.674h-4.76l7.953 13.184v8.736h4.04v-8.736l7.922-13.184h-4.635zm27.836-10.206c-6.92 0-10.834 5.23-10.834 11.492 0 6.294 3.914 11.524 10.834 11.524 6.953 0 10.835-5.23 10.835-11.493 0-6.294-3.882-11.523-10.835-11.523m0 3.914c4.479 0 6.764 3.506 6.764 7.64s-2.317 7.547-6.764 7.547c-4.446 0-6.762-3.508-6.762-7.64 0-4.133 2.348-7.547 6.762-7.547m14.342 18.538h4.008v-7.766h5.167c4.885 0 7.358-3.413 7.358-7.266 0-3.568-2.255-6.888-6.92-6.888H73.77zm8.956-18.132c2.285 0 3.506 1.348 3.506 3.289 0 2.035-1.315 3.383-3.664 3.383h-4.79v-6.672zm11.083 18.132h15.156v-3.79H97.817v-5.385h9.677v-3.82h-9.677v-5.137h10.585v-3.788H93.809zm33.256-21.92v15.438l-9.928-15.438h-4.383v21.92h3.977v-15.626l10.115 15.626h4.196v-21.92zm32.344 6.357c-.188-4.636-3.882-6.89-8.421-6.89-4.541 0-8.08 2.225-8.08 6.7 0 4.009 2.661 5.482 8.143 6.703 2.504.532 4.633 1.064 4.633 3.163 0 1.784-1.504 2.88-4.133 2.88-2.756 0-4.728-1.345-5.104-4.416h-4.166c.188 5.167 4.354 7.987 9.208 7.987 4.508 0 8.234-2.38 8.234-6.827 0-4.103-2.818-5.324-7.734-6.356-2.788-.628-5.105-1.221-5.105-3.382 0-1.911 1.504-2.914 4.008-2.914 2.255 0 4.104.91 4.384 3.352zm14.03-6.89c-6.922 0-10.834 5.23-10.834 11.493 0 6.294 3.912 11.524 10.834 11.524 6.95 0 10.834-5.23 10.834-11.493 0-6.294-3.884-11.523-10.834-11.523m0 3.914c4.477 0 6.762 3.506 6.762 7.64s-2.317 7.547-6.762 7.547c-4.446 0-6.764-3.508-6.764-7.64 0-4.133 2.348-7.547 6.764-7.547m28.588 10.49c0 3.257-1.848 4.76-4.823 4.76-3.13 0-5.103-1.692-5.103-5.105v-13.527h-4.009v13.715c0 5.762 3.79 8.769 9.019 8.769 5.26 0 8.924-3.039 8.924-8.769v-13.715h-4.008zm8.892 8.048h4.008v-8.267h4.229l4.883 8.267h4.697l-5.73-9.175c2.82-.972 4.383-3.414 4.383-6.232 0-3.381-2.16-6.513-7.012-6.513h-9.458zm9.144-18.132c2.16 0 3.257 1.348 3.257 3.038 0 1.847-1.285 3.226-3.54 3.226h-4.853v-6.264zm26.804 10.021c-.156 3.257-2.631 4.916-5.699 4.916-4.604 0-6.608-3.694-6.608-7.765 0-4.54 2.475-7.766 6.733-7.766 3.068 0 5.199 1.723 5.418 4.166h4.101c-.407-4.948-4.29-7.892-9.363-7.892-6.606 0-10.958 4.947-10.958 11.585 0 5.887 3.381 11.43 10.582 11.43 5.2 0 9.646-2.911 9.866-8.674zm8.017 8.11h15.153v-3.788h-11.146v-5.386h9.676v-3.82h-9.676v-5.137h10.584v-3.788h-14.591zm26.457 0h15.156v-3.788H285.35v-5.386h9.676v-3.82h-9.676v-5.137h10.586v-3.788H281.34zm25.114-11.334l-7.891 11.335h4.947l5.292-7.954 5.324 7.954h5.009l-7.92-11.43 7.263-10.49h-4.884l-4.76 7.14-4.76-7.14h-4.978zm16.157 11.335h4.008v-7.766h5.167c4.885 0 7.358-3.413 7.358-7.266 0-3.568-2.254-6.888-6.92-6.888h-9.613zm8.956-18.132c2.285 0 3.507 1.348 3.507 3.289 0 2.035-1.315 3.383-3.664 3.383h-4.791v-6.672zm11.085 18.132h15.155v-3.79h-11.147v-5.385h9.675v-3.82h-9.675v-5.137h10.583v-3.788h-14.59zm18.943 0h4.01v-8.267h4.226l4.885 8.267h4.696l-5.729-9.175c2.817-.972 4.383-3.414 4.383-6.232 0-3.381-2.16-6.513-7.014-6.513h-9.457zm9.144-18.132c2.16 0 3.256 1.348 3.256 3.038 0 1.847-1.281 3.226-3.537 3.226h-4.854v-6.264zm9.488-3.788v3.788h7.233v18.132h4.008V187.41h7.234v-3.788zm37.419 6.357c-.188-4.636-3.882-6.89-8.423-6.89-4.54 0-8.079 2.225-8.079 6.7 0 4.009 2.662 5.482 8.142 6.703 2.505.532 4.634 1.064 4.634 3.163 0 1.784-1.504 2.88-4.133 2.88-2.756 0-4.728-1.345-5.104-4.416h-4.165c.188 5.167 4.353 7.987 9.206 7.987 4.508 0 8.235-2.38 8.235-6.827 0-4.103-2.817-5.324-7.733-6.356-2.788-.628-5.106-1.221-5.106-3.382 0-1.911 1.504-2.914 4.008-2.914 2.255 0 4.103.91 4.384 3.352h4.134M3.724 170.145h4.008v-21.919H3.724zm24.33-21.919v15.438l-9.927-15.438h-4.383v21.92h3.977v-15.627l10.114 15.626h4.196v-21.919zm24.517 0v15.438l-9.926-15.438h-4.384v21.92h3.976v-15.627l10.115 15.626h4.195v-21.919zm19.32-.533c-6.92 0-10.834 5.23-10.834 11.49 0 6.297 3.914 11.526 10.834 11.526 6.952 0 10.835-5.229 10.835-11.492 0-6.294-3.883-11.524-10.835-11.524m0 3.915c4.477 0 6.763 3.507 6.763 7.639 0 4.134-2.317 7.546-6.763 7.546s-6.764-3.506-6.764-7.638c0-4.135 2.349-7.547 6.764-7.547m22.076 13.307l-6.074-16.689H83.57l8.58 21.92h3.537l8.612-21.92h-4.259zm31.532 5.23l-8.674-21.919h-4.447l-8.673 21.92h4.353l1.91-5.198h9.175l1.91 5.197zm-10.961-17.754l3.258 8.797h-6.513zm9.646-4.165v3.787h7.233v18.132h4.008v-18.132h7.234v-3.787zm21.7 21.92h4.008v-21.92h-4.008zm17.753-5.231l-6.074-16.689h-4.322l8.58 21.92h3.539l8.61-21.92h-4.258zm13.496 5.23h15.156v-3.79h-11.148v-5.386h9.676v-3.819h-9.676v-5.137h10.584v-3.787h-14.592zm44.215-15.564c-.188-4.633-3.884-6.888-8.424-6.888-4.54 0-8.079 2.223-8.079 6.702 0 4.006 2.662 5.48 8.142 6.701 2.505.53 4.634 1.064 4.634 3.163 0 1.785-1.502 2.881-4.133 2.881-2.756 0-4.728-1.348-5.104-4.416h-4.165c.188 5.167 4.353 7.985 9.206 7.985 4.51 0 8.235-2.38 8.235-6.826 0-4.102-2.817-5.323-7.733-6.358-2.787-.626-5.104-1.221-5.104-3.38 0-1.912 1.502-2.914 4.008-2.914 2.254 0 4.101.909 4.384 3.35zm14.028-6.888c-6.92 0-10.835 5.23-10.835 11.49 0 6.297 3.915 11.526 10.835 11.526 6.95 0 10.833-5.229 10.833-11.492 0-6.294-3.882-11.524-10.833-11.524m0 3.915c4.477 0 6.763 3.507 6.763 7.639 0 4.134-2.316 7.546-6.763 7.546s-6.764-3.506-6.764-7.638c0-4.135 2.348-7.547 6.764-7.547m18.975 14.747v-18.129h-4.008v21.92h14.278v-3.791zm27.21-4.256c0 3.255-1.846 4.757-4.821 4.757-3.132 0-5.104-1.69-5.104-5.102v-13.528h-4.008v13.716c0 5.76 3.788 8.767 9.017 8.767 5.262 0 8.924-3.037 8.924-8.767v-13.716h-4.008zm6.764-13.873v3.787h7.234v18.132h4.008v-18.132h7.233v-3.787zm21.7 21.92h4.008v-21.92h-4.008zm19.132-22.453c-6.92 0-10.834 5.23-10.834 11.49 0 6.297 3.914 11.526 10.834 11.526 6.951 0 10.834-5.229 10.834-11.492 0-6.294-3.883-11.524-10.834-11.524m0 3.915c4.478 0 6.763 3.507 6.763 7.639 0 4.134-2.316 7.546-6.763 7.546-4.446 0-6.764-3.506-6.764-7.638 0-4.135 2.348-7.547 6.764-7.547m29.278-3.382v15.438l-9.927-15.438h-4.384v21.92h3.977v-15.627l10.114 15.626h4.196v-21.919zm25.456 6.355c-.187-4.633-3.883-6.888-8.423-6.888s-8.079 2.223-8.079 6.702c0 4.006 2.662 5.48 8.142 6.701 2.505.53 4.634 1.064 4.634 3.163 0 1.785-1.504 2.881-4.133 2.881-2.756 0-4.728-1.348-5.104-4.416h-4.165c.188 5.167 4.353 7.985 9.206 7.985 4.51 0 8.235-2.38 8.235-6.826 0-4.102-2.817-5.323-7.733-6.358-2.788-.626-5.104-1.221-5.104-3.38 0-1.912 1.502-2.914 4.008-2.914 2.253 0 4.101.909 4.382 3.35h4.134" fill="#6a7478"/><path d="M533.601 72.225v-.296c0-22.638-18.085-40.724-42.493-40.724-24.553 0-42.781 18.379-42.781 41.02v.294c0 22.64 18.082 40.727 42.488 40.727 24.552 0 42.786-18.378 42.786-41.02m-22.054.293c0 11.615-7.646 21.466-20.439 21.466-12.348 0-20.73-10.145-20.73-21.76v-.296c0-11.613 7.647-21.461 20.437-21.461 12.35 0 20.732 10.141 20.732 21.757v.294" fill="#f25c24"/><path d="M386.812 72.225v-.296c0-26.317-17.495-40.724-35.873-40.724-11.614 0-19.114 5.442-24.554 12.791v-11.32H305.38v102.33h21.006V101.19c5.291 6.319 12.646 11.756 24.554 11.756 18.67 0 35.873-14.403 35.873-40.722m-20.113 0c0 13.234-8.823 21.76-19.26 21.76-10.439 0-19.114-8.673-19.114-21.76v-.296c0-13.084 8.675-21.758 19.114-21.758 10.437 0 19.26 8.674 19.26 21.758v.296m-74.983 39.255V60.168c0-18.964-10-28.963-26.613-28.963-10.73 0-18.967 4.411-25.875 12.499-4.116-7.94-11.909-12.499-22.202-12.499-11.32 0-18.083 6.028-23.23 12.644V32.676h-22.346v78.803h22.346V67.52c0-10.585 5.147-16.026 13.53-16.026 8.377 0 13.082 5.441 13.082 16.026v43.958h22.347V67.52c0-10.585 5.147-16.026 13.53-16.026 8.38 0 13.083 5.441 13.083 16.026v43.958h22.348m-133.637-.031s-.127-37.896-.127-51.167c0-15.695-12.194-29.09-35.163-29.09-23.35 0-34.01 13.166-34.01 30.42h20.863c.265-1.833-.68-11.167 12.477-11.167 9.487 0 14.073 2.794 14.073 7.594 0 13.18-48.308-2.008-48.308 32.996 0 16.972 12.392 22.205 24.004 22.205 17.864 0 24.304-10.076 24.304-10.076l-.186 8.26zm-38.887-14.354c-6.337 0-10.206-3.318-10.206-7.528 0-4.85 2.342-7.364 9.313-8.389 14.54-2.14 18.117-4.297 18.117-4.297 2.15 17.764-10.462 20.214-17.224 20.214M58.504 83.077c-1.02 4.366-6.006 10.909-16.454 10.909-12.2 0-19.993-9.704-19.993-21.76v-.295c0-11.615 7.938-21.464 19.113-21.464 10.95 0 15.862 5.984 17.334 11.142h20.862c-.337-9.845-9.373-30.404-38.051-30.404C17.205 31.205 0 49.733 0 72.225v.294c0 22.495 17.351 40.725 41.022 40.725 28.256 0 38.006-20.888 38.343-30.167H58.504m870.363-10.852v-.296c0-26.317-17.495-40.724-35.872-40.724-11.615 0-19.115 5.442-24.554 12.791v-11.32h-21.008v102.33h21.008V101.19c5.291 6.319 12.644 11.756 24.554 11.756 18.67 0 35.872-14.403 35.872-40.722m-20.114 0c0 13.234-8.822 21.76-19.257 21.76-10.44 0-19.116-8.673-19.116-21.76v-.296c0-13.084 8.676-21.758 19.116-21.758 10.435 0 19.257 8.674 19.257 21.758v.296m-74.98 39.255V60.168c0-18.964-9.998-28.963-26.614-28.963-10.731 0-18.967 4.411-25.875 12.499-4.116-7.94-11.91-12.499-22.203-12.499-11.32 0-18.081 6.028-23.229 12.644V32.676h-22.347v78.803h22.347V67.52c0-10.585 5.148-16.026 13.53-16.026 8.377 0 13.082 5.441 13.082 16.026v43.958h22.347V67.52c0-10.585 5.146-16.026 13.529-16.026 8.381 0 13.084 5.441 13.084 16.026v43.958h22.35m-133.638-.031s-.128-37.896-.128-51.167c0-15.695-12.195-29.09-35.164-29.09-23.35 0-34.01 13.166-34.01 30.42H651.7c.264-1.833-.682-11.167 12.476-11.167 9.486 0 14.074 2.794 14.074 7.594 0 13.18-48.31-2.008-48.31 32.996 0 16.972 12.39 22.205 24.004 22.205 17.866 0 24.306-10.076 24.306-10.076l-.188 8.26zm-38.887-14.354c-6.337 0-10.206-3.318-10.206-7.528 0-4.85 2.341-7.364 9.313-8.389 14.539-2.14 18.117-4.297 18.117-4.297 2.148 17.764-10.464 20.214-17.224 20.214m-60.69-14.016c-1.019 4.366-6.007 10.909-16.454 10.909-12.201 0-19.994-9.704-19.994-21.76v-.295c0-11.615 7.94-21.464 19.113-21.464 10.95 0 15.863 5.984 17.335 11.142h20.862c-.337-9.845-9.372-30.404-38.05-30.404-24.111 0-41.316 18.528-41.316 41.02v.294c0 22.495 17.352 40.725 41.022 40.725 28.256 0 38.007-20.888 38.344-30.167H600.56" fill="#6a7478"/><path d="M962.163 32.676V18.152h-3.63v-3.63h-3.63V7.26h-3.631V3.63h-3.632v7.26h-3.63v3.631h3.63v3.631h-3.63v-3.63h-3.631v3.63h-3.631v3.632h-3.63v3.63h-3.631v-3.63h-3.631v10.892zM944.009 3.629h-3.63V7.26h3.63zm-3.63 3.631h-3.631v3.63h3.63zm-3.631 3.63h-3.63v3.631h3.63zm-3.63 3.631h-3.631v7.262h3.63zm10.89-10.891h3.631V0h-3.63v3.63M442.05 92.83s-2.95.32-7.938.32c-4.985 0-7.824-3.12-7.824-8.317V51.791h16.29V32.676h-16.29V12.533h-22.35v20.143h-12.533v19.115h12.534v35.964c0 18.234 9.158 24.614 22.937 24.614 9.62 0 15.175-.944 15.175-.944V92.83" fill="#f25c24"/></svg>