<svg xmlns="http://www.w3.org/2000/svg" viewBox="0 0 962.16 135" height="135" width="962.16"><path d="M533.601 72.22v-.296c0-22.639-18.085-40.724-42.493-40.724-24.553 0-42.781 18.379-42.781 41.02v.293c0 22.641 18.082 40.727 42.488 40.727 24.552 0 42.786-18.377 42.786-41.02m-22.054.293c0 11.616-7.646 21.467-20.439 21.467-12.348 0-20.73-10.145-20.73-21.76v-.296c0-11.614 7.647-21.461 20.437-21.461 12.35 0 20.732 10.141 20.732 21.757v.293" fill="#f25c24"/><path d="M386.812 72.22v-.296c0-26.317-17.495-40.724-35.873-40.724-11.614 0-19.114 5.441-24.554 12.79V32.67H305.38V135h21.006v-33.815c5.291 6.32 12.646 11.757 24.554 11.757 18.67 0 35.873-14.403 35.873-40.722m-20.113 0c0 13.233-8.823 21.76-19.26 21.76-10.439 0-19.114-8.673-19.114-21.76v-.296c0-13.084 8.675-21.758 19.114-21.758 10.437 0 19.26 8.674 19.26 21.758v.296m-74.983 39.253v-51.31c0-18.964-10-28.962-26.613-28.962-10.73 0-18.967 4.409-25.875 12.497-4.116-7.94-11.909-12.497-22.202-12.497-11.32 0-18.083 6.028-23.23 12.643V32.67h-22.346v78.803h22.346V67.516c0-10.585 5.147-16.026 13.53-16.026 8.377 0 13.082 5.441 13.082 16.026v43.957h22.347V67.516c0-10.585 5.147-16.026 13.53-16.026 8.38 0 13.083 5.441 13.083 16.026v43.957h22.348m-133.637-.031s-.127-37.896-.127-51.167c0-15.695-12.194-29.091-35.163-29.091-23.35 0-34.01 13.167-34.01 30.42h20.863c.265-1.832-.68-11.167 12.477-11.167 9.487 0 14.073 2.795 14.073 7.595 0 13.18-48.308-2.008-48.308 32.996 0 16.971 12.392 22.204 24.004 22.204 17.864 0 24.304-10.075 24.304-10.075l-.186 8.26zm-38.887-14.354c-6.337 0-10.206-3.318-10.206-7.528 0-4.851 2.342-7.364 9.313-8.39 14.54-2.14 18.117-4.297 18.117-4.297 2.15 17.764-10.462 20.215-17.224 20.215" fill="#6a7478"/><path d="M58.504 83.072c-1.02 4.365-6.006 10.909-16.454 10.909-12.2 0-19.993-9.705-19.993-21.76v-.296c0-11.614 7.938-21.464 19.113-21.464 10.95 0 15.862 5.984 17.334 11.143h20.862c-.337-9.845-9.373-30.403-38.051-30.403C17.205 31.2 0 49.727 0 72.22v.293c0 22.494 17.351 40.725 41.022 40.725 28.256 0 38.006-20.888 38.343-30.167H58.504" fill="#6a7378"/><path d="M928.867 72.22v-.296c0-26.317-17.495-40.724-35.872-40.724-11.615 0-19.115 5.441-24.554 12.79V32.67h-21.008V135h21.008v-33.815c5.291 6.32 12.644 11.757 24.554 11.757 18.67 0 35.872-14.403 35.872-40.722m-20.114 0c0 13.233-8.822 21.76-19.257 21.76-10.44 0-19.116-8.673-19.116-21.76v-.296c0-13.084 8.676-21.758 19.116-21.758 10.435 0 19.257 8.674 19.257 21.758v.296m-74.98 39.253v-51.31c0-18.964-9.998-28.962-26.614-28.962-10.731 0-18.967 4.409-25.875 12.497-4.116-7.94-11.91-12.497-22.203-12.497-11.32 0-18.081 6.028-23.229 12.643V32.67h-22.347v78.803h22.347V67.516c0-10.585 5.148-16.026 13.53-16.026 8.377 0 13.082 5.441 13.082 16.026v43.957h22.347V67.516c0-10.585 5.146-16.026 13.529-16.026 8.381 0 13.084 5.441 13.084 16.026v43.957h22.35m-133.638-.031s-.128-37.896-.128-51.167c0-15.695-12.195-29.091-35.164-29.091-23.35 0-34.01 13.167-34.01 30.42H651.7c.264-1.832-.682-11.167 12.476-11.167 9.486 0 14.074 2.795 14.074 7.595 0 13.18-48.31-2.008-48.31 32.996 0 16.971 12.39 22.204 24.004 22.204 17.866 0 24.306-10.075 24.306-10.075l-.188 8.26zm-38.887-14.354c-6.337 0-10.206-3.318-10.206-7.528 0-4.851 2.341-7.364 9.313-8.39 14.539-2.14 18.117-4.297 18.117-4.297 2.148 17.764-10.464 20.215-17.224 20.215m-60.69-14.016c-1.019 4.365-6.007 10.909-16.454 10.909-12.201 0-19.994-9.705-19.994-21.76v-.296c0-11.614 7.94-21.464 19.113-21.464 10.95 0 15.863 5.984 17.335 11.143h20.862c-.337-9.845-9.372-30.403-38.05-30.403-24.111 0-41.316 18.526-41.316 41.02v.293c0 22.494 17.352 40.725 41.022 40.725 28.256 0 38.007-20.888 38.344-30.167H600.56" fill="#6a7478"/><path d="M962.163 32.67V18.147h-3.63v-3.63h-3.63V7.255h-3.631V3.624h-3.632v7.261h-3.63v3.631h3.63v3.63h-3.63v-3.63h-3.631v3.63h-3.631v3.633h-3.63v3.63h-3.631v-3.63h-3.631V32.67zM944.009 3.625h-3.63v3.63h3.63zm-3.63 3.63h-3.631v3.631h3.63zm-3.631 3.631h-3.63v3.631h3.63zm-3.63 3.631h-3.631v7.261h3.63zm10.891-10.892h3.631v-3.63h-3.63v3.63m-501.96 89.2s-2.95.32-7.938.32c-4.985 0-7.824-3.121-7.824-8.317V51.786h16.29V32.671h-16.29V12.528h-22.35V32.67h-12.533v19.115h12.534V87.75c0 18.234 9.158 24.614 22.937 24.614 9.62 0 15.175-.944 15.175-.944V92.825" fill="#f25c24"/></svg>