<?xml version="1.0" encoding="UTF-8" standalone="no"?>
<svg
   xmlns:dc="http://purl.org/dc/elements/1.1/"
   xmlns:cc="http://creativecommons.org/ns#"
   xmlns:rdf="http://www.w3.org/1999/02/22-rdf-syntax-ns#"
   xmlns:svg="http://www.w3.org/2000/svg"
   xmlns="http://www.w3.org/2000/svg"
   xmlns:sodipodi="http://sodipodi.sourceforge.net/DTD/sodipodi-0.dtd"
   xmlns:inkscape="http://www.inkscape.org/namespaces/inkscape"
   width="83.669373mm"
   height="83.669373mm"
   viewBox="0 0 83.669373 83.669373"
   version="1.1"
   id="svg839"
   inkscape:version="1.0.1 (3bc2e813f5, 2020-09-07)"
   sodipodi:docname="devops-stack-logo.svg">
  <defs
     id="defs833" />
  <sodipodi:namedview
     id="base"
     pagecolor="#ffffff"
     bordercolor="#666666"
     borderopacity="1.0"
     inkscape:pageopacity="0.0"
     inkscape:pageshadow="2"
     inkscape:zoom="0.7"
     inkscape:cx="191.65828"
     inkscape:cy="191.9892"
     inkscape:document-units="mm"
     inkscape:current-layer="layer1"
     inkscape:document-rotation="0"
     showgrid="false"
     fit-margin-top="0"
     fit-margin-left="0"
     fit-margin-right="0"
     fit-margin-bottom="0"
     inkscape:window-width="1920"
     inkscape:window-height="1043"
     inkscape:window-x="3840"
     inkscape:window-y="0"
     inkscape:window-maximized="1" />
  <metadata
     id="metadata836">
    <rdf:RDF>
      <cc:Work
         rdf:about="">
        <dc:format>image/svg+xml</dc:format>
        <dc:type
           rdf:resource="http://purl.org/dc/dcmitype/StillImage" />
        <dc:title></dc:title>
      </cc:Work>
    </rdf:RDF>
  </metadata>
  <g
     inkscape:label="Layer 1"
     inkscape:groupmode="layer"
     id="layer1"
     transform="translate(-101.79626,-101.81761)">
    <g
       id="g3426"
       transform="matrix(0.35277777,0,0,-0.35277777,-626.0158,545.86195)">
      <g
         id="g3303"
         transform="translate(374.21092,292.62567)">
        <g
           id="g3281"
           transform="translate(1689.8798,895.79238)"
           style="fill:#4b7bec;fill-opacity:1">
          <path
             d="m 0,0 c 5.504,24.35 19.072,42.027 40.754,51.751 30.696,13.766 59.62,9.133 85.434,-13.147 19.109,-16.494 29.134,-47.711 23.098,-70.046 -2.9,7.68 -6.171,15.459 -8.804,23.462 C 126.952,33.146 73.854,56.942 30.62,29.777 19.95,23.073 11.271,14.272 4.093,3.796 3.211,2.509 2.277,1.258 1.341,0.012 1.272,-0.08 0.988,0 0,0"
             style="fill:#4b7bec;fill-opacity:1;fill-rule:nonzero;stroke:none"
             id="path3279" />
        </g>
        <g
           id="g3285"
           transform="translate(1781.5644,840.52578)"
           style="fill:#666666;fill-opacity:1">
          <path
             d="m 0,0 c 27.415,-24.056 57.799,-34.53 91.906,-18.408 33.887,16.017 46.513,46.177 45.847,83.435 9.76,-11.381 8.749,-44.02 -1.982,-65.081 C 120.439,-30.147 88.988,-44.992 60.919,-42.477 33.247,-39.997 12.751,-25.777 0,0"
             style="fill:#666666;fill-opacity:1;fill-rule:nonzero;stroke:none"
             id="path3283" />
        </g>
        <g
           id="g3289"
           transform="translate(1699.8207,804.30208)"
           style="fill:#4b7bec;fill-opacity:1">
          <path
             d="m 0,0 c -12.423,20.633 -14.245,42.482 -5.583,64.851 11.972,30.916 34.559,48.636 66.547,51.606 28.608,2.655 51.821,-8.281 67.628,-34.089 C 98.871,103.313 67.601,109.365 35.885,89.165 3.924,68.808 -4.952,37.095 0,0"
             style="fill:#4b7bec;fill-opacity:1;fill-rule:nonzero;stroke:none"
             id="path3287" />
        </g>
        <g
           id="g3293"
           transform="translate(1855.9999,748.83728)"
           style="fill:#4b7bec;fill-opacity:1">
          <path
             d="m 0,0 c -12.611,-10.995 -43.457,-12.659 -64.298,-1.84 -30.458,15.813 -46.711,45.242 -44.191,81.854 1.824,26.512 18.733,48.957 37.664,57.536 C -94.188,106.7 -101.855,73.778 -82.251,39.068 -64.172,7.061 -34.873,-3.321 0,0"
             style="fill:#4b7bec;fill-opacity:1;fill-rule:nonzero;stroke:none"
             id="path3291" />
        </g>
        <g
           id="g3297"
           transform="translate(1917.913,814.31478)"
           style="fill:#4b7bec;fill-opacity:1">
          <path
             d="m 0,0 c -9.829,-36.149 -52.389,-60.949 -95.265,-46.059 -41.66,14.468 -62.193,62.926 -47.801,95.089 2.814,-34.712 17.572,-61.846 50.019,-76.383 16.427,-7.358 33.586,-7.372 50.7,-2.206 C -25.235,-24.395 -11.72,-13.614 0,0"
             style="fill:#4b7bec;fill-opacity:1;fill-rule:nonzero;stroke:none"
             id="path3295" />
        </g>
        <g
           id="g3301"
           transform="translate(1768.411,743.89388)"
           style="fill:#4b7bec;fill-opacity:1">
          <path
             d="m 0,0 c -37.901,7.887 -61.777,52.4 -51.914,94.424 9.811,41.799 52.497,68.984 92.172,56.828 C 2.663,146.027 -24.354,128.269 -34.197,90.84 -44.06,53.344 -29.359,24.027 0,0"
             style="fill:#4b7bec;fill-opacity:1;fill-rule:nonzero;stroke:none"
             id="path3299" />
        </g>
      </g>
    </g>
  </g>
</svg>
